<?xml version="1.0" encoding="utf-8"?>
<!-- Generator: Adobe Illustrator 23.0.3, SVG Export Plug-In . SVG Version: 6.00 Build 0)  -->
<svg version="1.1" id="Layer_1" xmlns="http://www.w3.org/2000/svg" xmlns:xlink="http://www.w3.org/1999/xlink" x="0px" y="0px"
	 viewBox="0 0 512 512" style="enable-background:new 0 0 512 512;" xml:space="preserve">
<style type="text/css">
	.st0{fill:#0C8355;}
</style>
<title></title>
<path class="st0" d="M441.2,434.5h-84V228.7c7.6-0.6,13.1-3.7,16.3-9.2c11.7-19.9-13.6-64.2-16.5-69.2c-0.6-1.1-1.8-1.8-3.1-1.8l0,0
	c-1.3,0-2.4,0.7-3.1,1.7c-3,4.8-28.6,47.9-17.5,68.3c3.2,5.8,8.7,9.1,16.6,10v205.9H162.1V228.7c7.6-0.6,13.1-3.7,16.3-9.2
	c11.7-19.9-13.6-64.2-16.5-69.2c-0.6-1.1-1.8-1.8-3.1-1.8c-1.3,0-2.4,0.7-3.1,1.7c-3,4.8-28.6,47.9-17.5,68.3
	c3.2,5.8,8.7,9.1,16.6,10v205.9h-84c-2-0.1-3.7,1.4-3.8,3.4c-0.1,2,1.4,3.7,3.4,3.8c0.1,0,0.3,0,0.4,0h370.5c2,0.1,3.7-1.4,3.8-3.4
	c0.1-2-1.4-3.7-3.4-3.8C441.5,434.5,441.4,434.5,441.2,434.5z M339.7,215.1c-6.8-12.4,5.9-40.6,14.1-55.6
	c8.1,15.4,20.5,44.2,13.5,56.3c-2.3,4-6.9,5.8-13.8,5.7C346.5,221.4,342,219.3,339.7,215.1z M144.5,215.1
	c-6.8-12.4,5.9-40.6,14.1-55.6c8.1,15.4,20.6,44.2,13.5,56.3c-2.3,4-6.9,5.8-13.8,5.7C151.4,221.4,146.8,219.3,144.5,215.1
	L144.5,215.1z"/>
<path class="st0" d="M118.3,413.2c0.6,0.1,1.2,0.1,1.8,0.1c7.2,0,13.6-4,19-12c5.9-8.7,7.1-16.8,3.6-24
	c-11.2-23.2-69.2-27.6-71.7-27.7c-2-0.1-3.8,1.4-3.9,3.4c0,0.6,0.1,1.2,0.3,1.7C70,360.4,93.4,411,118.3,413.2z M136.2,380.4
	c2.3,4.8,1.3,10.3-3.1,16.8s-9,9.2-14.1,8.8c-15.6-1.4-33.7-31.6-42.2-48.6C95.3,359.5,129.3,366.1,136.2,380.4z"/>
<path class="st0" d="M174.1,377.2c-3.5,7.3-2.3,15.4,3.6,24c5.4,8,11.8,12,19,12c0.6,0,1.2,0,1.8-0.1c24.9-2.2,48.3-52.8,50.9-58.5
	c0.5-1.2,0.4-2.5-0.3-3.6c-0.7-1-2-1.6-3.2-1.5C243.3,349.7,185.3,354.1,174.1,377.2z M180.6,380.4c6.9-14.2,40.9-20.9,59.4-23
	c-8.4,17-26.6,47.2-42.2,48.6c-5.1,0.5-9.8-2.4-14.1-8.8S178.3,385.2,180.6,380.4L180.6,380.4z"/>
<path class="st0" d="M123.3,346.4c0.5,0,1.1,0.1,1.6,0.1c6.4,0,12.1-3.6,17-10.7c5.3-7.7,6.4-15,3.2-21.5
	c-9.7-20.1-57.6-24.1-63.1-24.5c-1.3-0.1-2.5,0.5-3.2,1.5c-0.7,1-0.9,2.4-0.3,3.6C80.8,300,101.3,344.5,123.3,346.4z M138.6,317.5
	c2,4.1,1.1,8.7-2.7,14.2s-7.6,7.9-11.9,7.5c-13.2-1.2-28.6-26.6-36.1-41.4C104.1,299.7,132.7,305.5,138.6,317.5z"/>
<path class="st0" d="M171.7,314.4c-3.1,6.5-2.1,13.7,3.2,21.5c4.9,7.1,10.6,10.7,17,10.7c0.5,0,1.1,0,1.6-0.1
	c22.1-2,42.6-46.4,44.8-51.5c0.8-1.8,0-4-1.8-4.8c-0.6-0.2-1.2-0.4-1.8-0.3C229.3,290.3,181.4,294.2,171.7,314.4z M178.2,317.5
	c5.8-12.1,34.4-17.8,50.7-19.8c-7.5,14.9-22.9,40.3-36.1,41.4c-4.3,0.5-8.2-2-11.9-7.5S176.3,321.6,178.2,317.5z"/>
<path class="st0" d="M125.6,280c0.5,0,1,0.1,1.5,0.1c6.1,0,11.5-3.4,16.1-10.1c5-7.3,6-14.1,3-20.3c-9.1-18.9-54-22.7-59.1-23
	c-1.3-0.1-2.5,0.5-3.2,1.5c-0.7,1-0.9,2.4-0.3,3.6C85.6,236.5,104.8,278.1,125.6,280z M139.6,252.9c1.8,3.7,1,8-2.5,13
	s-7,7.2-10.9,6.9c-12.1-1.1-26.3-24.3-33.4-38.2C108.1,236.4,134.3,241.8,139.6,252.9L139.6,252.9z"/>
<path class="st0" d="M170.6,249.7c-3,6.2-2,13,3,20.3c4.6,6.7,10,10.1,16.1,10.1c0.5,0,1,0,1.5-0.1c20.8-1.9,40-43.5,42.1-48.2
	c0.5-1.2,0.4-2.5-0.3-3.6c-0.7-1-2-1.6-3.2-1.5C224.7,227,179.8,230.8,170.6,249.7z M177.2,252.8c5.4-11.1,31.5-16.5,46.8-18.3
	c-7,13.9-21.2,37.1-33.4,38.2c-4,0.3-7.5-1.9-10.9-6.9S175.4,256.5,177.2,252.8L177.2,252.8z"/>
<path class="st0" d="M128.1,154.4c2,0,3.6-1.6,3.6-3.6V99.5c0.1-2-1.4-3.7-3.4-3.8c-2-0.1-3.7,1.4-3.8,3.4c0,0.1,0,0.3,0,0.4v51.3
	C124.5,152.8,126.1,154.4,128.1,154.4C128.1,154.4,128.1,154.4,128.1,154.4z"/>
<path class="st0" d="M188.7,154.4c2,0,3.6-1.6,3.6-3.6c0,0,0,0,0,0V99.5c0.1-2-1.4-3.7-3.4-3.8c-2-0.1-3.7,1.4-3.8,3.4
	c0,0.1,0,0.3,0,0.4v51.3C185.1,152.8,186.7,154.4,188.7,154.4z"/>
<path class="st0" d="M158.4,128.8c2,0,3.6-1.6,3.6-3.6c0,0,0,0,0,0V73.8c0-2-1.6-3.6-3.6-3.6c-2,0-3.6,1.6-3.6,3.6v51.3
	C154.8,127.1,156.4,128.8,158.4,128.8C158.4,128.8,158.4,128.8,158.4,128.8z"/>
<path class="st0" d="M313.5,413.2c0.6,0.1,1.2,0.1,1.8,0.1c7.2,0,13.6-4,19-12c5.9-8.7,7.1-16.8,3.6-24
	c-11.2-23.1-69.2-27.5-71.7-27.7c-1.3-0.1-2.5,0.5-3.2,1.5c-0.7,1-0.9,2.4-0.4,3.6C265.2,360.4,288.5,411,313.5,413.2z M331.4,380.4
	c2.3,4.8,1.3,10.3-3.1,16.8s-9,9.3-14.1,8.8c-15.6-1.4-33.7-31.6-42.2-48.6C290.5,359.5,324.5,366.1,331.4,380.4z"/>
<path class="st0" d="M369.3,377.2c-3.5,7.3-2.3,15.4,3.6,24c5.5,8,11.8,12,19,12c0.6,0,1.2,0,1.8-0.1c25-2.2,48.3-52.8,50.9-58.5
	c0.8-1.8,0-4-1.9-4.8c-0.5-0.2-1.1-0.3-1.7-0.3C438.5,349.7,380.5,354.1,369.3,377.2z M375.8,380.4c6.9-14.2,40.9-20.9,59.4-23
	c-8.4,17-26.6,47.2-42.2,48.6c-5.2,0.5-9.8-2.4-14.1-8.8S373.5,385.2,375.8,380.4L375.8,380.4z"/>
<path class="st0" d="M318.5,346.4c0.5,0,1.1,0.1,1.6,0.1c6.4,0,12.1-3.6,17-10.7c5.3-7.7,6.4-15,3.2-21.5
	c-9.7-20.1-57.6-24.1-63-24.5c-2-0.1-3.7,1.4-3.9,3.4c0,0.6,0.1,1.2,0.3,1.8C275.9,300,296.5,344.5,318.5,346.4z M333.8,317.5
	c2,4.1,1.1,8.7-2.7,14.2s-7.7,7.9-11.9,7.5c-13.2-1.2-28.6-26.6-36.1-41.4C299.3,299.7,327.9,305.5,333.8,317.5z"/>
<path class="st0" d="M366.9,314.4c-3.1,6.5-2.1,13.7,3.2,21.5c4.9,7.1,10.6,10.7,17,10.7c0.5,0,1.1,0,1.6-0.1
	c22.1-2,42.6-46.4,44.8-51.5c0.8-1.8,0-4-1.8-4.8c-0.6-0.2-1.2-0.4-1.8-0.3C424.5,290.3,376.6,294.2,366.9,314.4z M373.4,317.5
	c5.8-12.1,34.4-17.8,50.7-19.8c-7.5,14.9-22.9,40.3-36.1,41.4c-4.3,0.5-8.2-2-11.9-7.5S371.5,321.6,373.4,317.5z"/>
<path class="st0" d="M320.8,280c0.5,0,1,0.1,1.5,0.1c6.1,0,11.5-3.4,16.1-10.1c5-7.3,6-14.1,3-20.3c-9.1-18.9-54-22.7-59.1-23
	c-1.3-0.1-2.5,0.5-3.2,1.5c-0.7,1-0.9,2.4-0.4,3.6C280.8,236.5,300,278.1,320.8,280z M334.8,252.9c1.8,3.7,1,8-2.5,13
	s-7,7.2-10.9,6.9c-12.1-1.1-26.3-24.3-33.4-38.2C303.3,236.4,329.5,241.8,334.8,252.9L334.8,252.9z"/>
<path class="st0" d="M365.8,249.7c-3,6.2-2,13,3,20.3c4.6,6.7,10,10.1,16.1,10.1c0.5,0,1,0,1.5-0.1c20.8-1.9,40-43.5,42.1-48.2
	c0.5-1.2,0.4-2.5-0.4-3.6c-0.7-1-2-1.6-3.2-1.5C419.8,227,374.9,230.8,365.8,249.7z M372.3,252.8c5.4-11.1,31.5-16.4,46.8-18.3
	c-7,13.9-21.2,37.1-33.4,38.2c-3.9,0.4-7.5-1.9-10.9-6.9S370.6,256.5,372.3,252.8L372.3,252.8z"/>
<path class="st0" d="M323.3,154.4c2,0,3.6-1.6,3.6-3.6v0V99.5c0.1-2-1.4-3.7-3.4-3.8c-2-0.1-3.7,1.4-3.8,3.4c0,0.1,0,0.3,0,0.4v51.3
	C319.7,152.8,321.3,154.4,323.3,154.4C323.3,154.4,323.3,154.4,323.3,154.4z"/>
<path class="st0" d="M383.9,154.4c2,0,3.6-1.6,3.6-3.6c0,0,0,0,0,0V99.5c0.1-2-1.4-3.7-3.4-3.8c-2-0.1-3.7,1.4-3.8,3.4
	c0,0.1,0,0.3,0,0.4v51.3C380.2,152.8,381.9,154.4,383.9,154.4z"/>
<path class="st0" d="M353.6,128.8c2,0,3.6-1.6,3.6-3.6c0,0,0,0,0,0V73.8c0-2-1.6-3.6-3.6-3.6c-2,0-3.6,1.6-3.6,3.6v51.3
	C350,127.1,351.6,128.8,353.6,128.8C353.6,128.8,353.6,128.8,353.6,128.8z"/>
</svg>
