<?xml version="1.0" encoding="utf-8"?>
<!-- Generator: Adobe Illustrator 23.0.3, SVG Export Plug-In . SVG Version: 6.00 Build 0)  -->
<svg version="1.1" id="Слой_1" xmlns="http://www.w3.org/2000/svg" xmlns:xlink="http://www.w3.org/1999/xlink" x="0px" y="0px"
	 viewBox="0 0 512 512" style="enable-background:new 0 0 512 512;" xml:space="preserve">
<style type="text/css">
	.st0{fill:#0C8355;}
</style>
<title></title>
<g id="Analysis_mapping">
	<path class="st0" d="M274.5,194.6l29.1-70.8l0.1-0.2c7.3-26-7.8-53.1-33.9-60.5c-4.2-1.2-8.5-1.8-12.8-1.8h-0.4
		c-27.1,0-49,22-49,49c0,4.2,0.5,8.4,1.6,12.5l28.4,72.6l-44.3,33.5l-50.8-81H58.3v4h81.9l49.8,79.4l-82.6,62.5l29.2,22.1L107.4,338
		l149.1,112.8L405.7,338l-29.2-22.1l29.2-22.1L274.5,194.6z M221,82.6c15.3-19.6,43.5-23.2,63.1-7.9c14.4,11.2,20.6,30,15.7,47.6
		l-44.4,108L213,121.6C209.4,108,212.4,93.6,221,82.6z M192.2,234.7l10.5,16.7c-4.2,0.5-8.3,1.5-12.3,3.1l-0.5,0.2l-0.7,0.3
		l-1.6,0.7l0.4,1.7c0.1,0.5,0.3,1,0.4,1.5c7.3,26.8,35,42.6,61.9,35.2c1.1-0.3,2.1-0.6,3.1-1v29.5h4v-29.5c26.4,9,55-5,64.1-31.4
		c0.5-1.5,0.9-2.9,1.3-4.4l0.4-1.6l-1.6-0.7c-25.7-10.8-55.2,1.3-66,27c-0.1,0.1-0.1,0.3-0.2,0.4c-8-19.5-27.2-31.9-48.2-31.3
		l-11.8-18.8l43.7-33.1l16.3,41.8l17.6-42.6l126.1,95.4L256.5,401.5L114,293.8L192.2,234.7z M213.7,269l3.4-2.1l-7.4-11.9
		c20.3,0.4,38,14,43.6,33.5l-0.1,0.4c-24.1,8.9-50.8-3.3-59.7-27.4c-0.4-1.1-0.8-2.3-1.1-3.5c4.1-1.5,8.4-2.5,12.7-2.8L213.7,269z
		 M257.4,288.5c7.2-24.6,32.9-38.8,57.6-31.6c1.2,0.3,2.3,0.7,3.4,1.1c-7,24.7-32.6,39-57.3,32.1c-1.2-0.3-2.4-0.7-3.5-1.1
		L257.4,288.5z M399.1,338L256.5,445.8L114,338l26-19.6l116.6,88.2l116.6-88.2L399.1,338z"/>
	<path class="st0" d="M256.5,137c15.8,0.1,28.7-12.7,28.8-28.5c0.1-15.8-12.7-28.7-28.5-28.8h-0.2c-15.8-0.1-28.7,12.7-28.8,28.5
		s12.7,28.7,28.5,28.8l0,0H256.5z M231.9,108.1c0.1-13.5,11.1-24.4,24.7-24.4h0.2c13.6,0.1,24.6,11.3,24.4,24.9
		c-0.1,13.6-11.3,24.6-24.9,24.4C242.7,132.9,231.8,121.8,231.9,108.1L231.9,108.1z"/>
	<rect x="370.7" y="190" class="st0" width="83" height="4"/>
	<rect x="370.7" y="205" class="st0" width="83" height="4"/>
	<rect x="431.5" y="220" class="st0" width="22.2" height="4"/>
	<path class="st0" d="M420.4,224l-0.1-4c-16.4,0.2-33.6,0.2-49.6,0l-0.1,4c8.1,0.1,16.4,0.2,24.8,0.2S412.2,224.1,420.4,224z"/>
	<rect x="370.7" y="235" class="st0" width="83" height="4"/>
	<rect x="58.3" y="102.8" class="st0" width="83" height="4"/>
	<rect x="58.3" y="117.8" class="st0" width="83" height="4"/>
	<rect x="119.2" y="132.8" class="st0" width="22.2" height="4"/>
	<path class="st0" d="M108.1,136.8v-4c-16.4,0.2-33.6,0.2-49.7,0v4c8.1,0.1,16.4,0.2,24.8,0.2S99.9,136.9,108.1,136.8z"/>
</g>
</svg>
