<?xml version="1.0" encoding="utf-8"?>
<!-- Generator: Adobe Illustrator 23.0.3, SVG Export Plug-In . SVG Version: 6.00 Build 0)  -->
<svg version="1.1" id="Слой_1" xmlns="http://www.w3.org/2000/svg" xmlns:xlink="http://www.w3.org/1999/xlink" x="0px" y="0px"
	 viewBox="0 0 512 512" style="enable-background:new 0 0 512 512;" xml:space="preserve">
<style type="text/css">
	.st0{fill:none;stroke:#0C8355;stroke-width:5;stroke-miterlimit:10;}
</style>
<g id="C_-_17_x2C__Law_x2C__Action_x2C__auction_x2C__court_x2C__gavel_x2C__hammer_x2C__judge_x2C__legal">
	<g>
		<polygon class="st0" points="251.3,105.2 255.8,105.2 255.8,78.1 136.7,78.1 136.7,105.2 141.2,105.2 		"/>
		<rect x="256" y="151.1" class="st0" width="36.5" height="27.1"/>
		<path class="st0" d="M246.6,214.8V183v-36.5v-31.8H145.9v100.2L246.6,214.8L246.6,214.8z M187.1,128.2h18.3v18.3h-18.3V128.2z
			 M187.1,155.6h18.3v18.3h-18.3V155.6z M187.1,183h18.3v18.3h-18.3V183z"/>
		<polygon class="st0" points="457.5,142.2 337.8,148.9 337.8,180.5 457.5,187.2 		"/>
		<polygon class="st0" points="328.4,149.4 301.8,150.9 301.8,178.5 328.4,180 		"/>
		<polygon class="st0" points="255.8,224.2 251.3,224.2 141.2,224.2 136.7,224.2 136.7,251.3 255.8,251.3 		"/>
		<path class="st0" d="M237.4,347.3c0-7.5-6.1-13.6-13.7-13.6h-9.1c0,0-0.1,0-0.1,0H113.7c0,0-0.1,0-0.1,0h-9.1
			c-7.5,0-13.7,6.1-13.7,13.6v13.6h146.5L237.4,347.3L237.4,347.3z"/>
		<rect x="118.4" y="306.3" class="st0" width="91.5" height="18"/>
		<path class="st0" d="M462.3,424.5h-179v-22.5c0-17.6-14.4-31.8-32-31.8h-9.2H86.2H77c-16,0-29.4,11.8-31.7,27.1h150.9
			c2.6,0,4.7,2.1,4.7,4.7s-2.1,4.7-4.7,4.7H45v27.2h233.9h4.4h179c2.6,0,4.7-2.1,4.7-4.7S464.9,424.5,462.3,424.5z"/>
	</g>
</g>
<g id="Layer_1">
</g>
</svg>
