<?xml version="1.0" encoding="utf-8"?>
<!-- Generator: Adobe Illustrator 24.0.1, SVG Export Plug-In . SVG Version: 6.00 Build 0)  -->
<svg version="1.1" id="Слой_1" xmlns="http://www.w3.org/2000/svg" xmlns:xlink="http://www.w3.org/1999/xlink" x="0px" y="0px"
	 viewBox="0 0 105 40" style="enable-background:new 0 0 105 40;" xml:space="preserve">
<style type="text/css">
	.st0{fill:#FFFFFF;}
	.st1{fill:#FFFFFF;stroke:#FFFFFF;stroke-width:0.25;stroke-miterlimit:10;}
</style>
<g>
	<path class="st0" d="M9.23,23.12c0.28-0.17,0.56-0.39,0.84-0.56c1.34-0.84,2.74-1.62,4.25-2.12c-0.06,0-0.11,0-0.22,0
		c-0.56,0-1.06,0.06-1.62,0.11l-0.62,0.06c-0.17,0-0.34,0.06-0.5,0.06l-2.01,0.5C9,21.27,8.67,21.39,8.33,21.5
		c-0.11,0.06-0.28,0.11-0.39,0.17c-0.06,0-0.34,0.22-0.39,0.22c0.28,0.17,0.5,0.34,0.73,0.5C8.61,22.62,8.89,22.9,9.23,23.12z"/>
	<path class="st0" d="M9.56,23.46c0.5,0.45,0.95,0.89,1.34,1.4c0.06,0.06,0.06,0.11,0.11,0.11c0.34-0.28,0.67-0.62,1.01-0.95
		c0.34-0.39,0.73-0.78,1.06-1.17c0.34-0.45,0.67-0.89,0.95-1.34c0.11-0.17,0.22-0.34,0.34-0.56c-0.06,0-0.17,0.06-0.22,0.06
		C12.47,21.55,10.96,22.5,9.56,23.46z"/>
	<path class="st0" d="M13.25,23.23c-0.62,0.73-1.23,1.45-1.96,2.07c0.22,0.28,0.5,0.56,0.73,0.89c1.51-1.23,2.57-3.02,2.74-5.09
		C14.31,21.83,13.81,22.56,13.25,23.23z"/>
	<path class="st0" d="M10.4,24.8c-0.73-0.78-1.51-1.51-2.35-2.12c-0.89-0.62-1.85-1.12-2.91-1.45c-0.56-0.22-1.17-0.34-1.79-0.5l0,0
		c-0.06,0-0.11,0-0.17,0l0,0c-0.17-0.06-0.34-0.06-0.45-0.06c-0.28-0.06-0.62-0.11-0.89-0.11l0,0l0,0c-0.06,0-0.06,0-0.11,0l0,0
		c-0.5-0.06-0.95-0.11-1.45-0.06c-0.06,0-0.11,0-0.11,0c0.39,0.11,0.73,0.22,1.12,0.34c0.5,0.17,1.06,0.34,1.57,0.56
		c1.9,0.73,3.69,1.79,5.26,3.02c0.78,0.62,1.51,1.29,2.18,1.96c0.22,0.22,0.39,0.39,0.62,0.62c0.34-0.17,0.62-0.34,0.89-0.56
		C11.29,25.86,10.85,25.3,10.4,24.8z"/>
	<path class="st0" d="M9.67,26.36c-0.67-0.67-1.4-1.29-2.18-1.9c-0.78-0.56-1.62-1.12-2.46-1.62s-1.79-0.89-2.68-1.23
		c-0.45-0.17-0.95-0.28-1.4-0.45C0.62,21.05,0.34,20.94,0,20.83c0,0,0,0,0,0.06c0.67,0.45,1.34,0.84,2.01,1.29
		c1.45,1.01,2.68,2.18,3.91,3.47c0.56,0.62,1.17,1.17,1.73,1.79c0.11,0.11,0.22,0.22,0.28,0.34c0.84-0.06,1.68-0.28,2.4-0.62
		C10.18,26.87,9.9,26.64,9.67,26.36z"/>
	<path class="st0" d="M1.06,23.18c-0.28-0.34-0.56-0.62-0.84-0.95c0.39,1.57,1.29,2.96,2.57,3.97c0.5,0.39,1.01,0.73,1.62,0.95
		c-0.62-0.89-1.23-1.73-1.96-2.52C1.96,24.18,1.51,23.68,1.06,23.18z"/>
	<path class="st0" d="M5.37,25.64c-0.62-0.62-1.23-1.23-1.85-1.79s-1.29-1.06-2.01-1.51C1.06,22,0.56,21.72,0.06,21.44l0,0
		c0.5,0.5,1.01,1.06,1.45,1.62c0.45,0.5,0.95,1.01,1.4,1.51c0.45,0.5,0.84,1.01,1.23,1.51c0.34,0.45,0.62,0.89,0.89,1.34
		c0.73,0.22,1.51,0.39,2.29,0.39h0.06c-0.11-0.11-0.22-0.28-0.34-0.39C6.54,26.81,5.93,26.25,5.37,25.64z"/>
	<g>
		<path class="st1" d="M7.04,12.89L7.04,12.89c0.11,0,0.22,0,0.34,0l0,0l0,0l0,0C7.27,12.83,7.16,12.83,7.04,12.89
			C7.04,12.83,6.99,12.89,7.04,12.89C6.99,12.89,7.04,12.89,7.04,12.89z"/>
		<path class="st1" d="M4.31,13.56L4.31,13.56c0.11-0.06,0.22-0.11,0.34-0.17l0,0l0,0C4.53,13.45,4.42,13.5,4.31,13.56L4.31,13.56
			L4.31,13.56z"/>
		<path class="st1" d="M3.08,14.29L3.08,14.29c0.11-0.06,0.22-0.11,0.28-0.22l0,0l0,0C3.24,14.12,3.19,14.17,3.08,14.29L3.08,14.29
			L3.08,14.29z"/>
		<path class="st1" d="M2.52,14.73L2.52,14.73c0.11-0.06,0.17-0.17,0.28-0.22l0,0l0,0C2.68,14.57,2.63,14.62,2.52,14.73L2.52,14.73
			L2.52,14.73z"/>
		<path class="st1" d="M5.65,13.11L5.65,13.11c0.11-0.06,0.22-0.06,0.34-0.11l0,0l0,0C5.87,13,5.76,13.06,5.65,13.11
			C5.65,13.06,5.59,13.06,5.65,13.11C5.59,13.11,5.65,13.11,5.65,13.11z"/>
		<path class="st1" d="M6.32,12.94L6.32,12.94c0.11,0,0.22-0.06,0.34-0.06l0,0l0,0C6.54,12.89,6.43,12.89,6.32,12.94L6.32,12.94
			L6.32,12.94z"/>
		<path class="st1" d="M3.69,13.89L3.69,13.89c0.11-0.06,0.22-0.11,0.34-0.17l0,0l0,0C3.86,13.78,3.75,13.84,3.69,13.89
			C3.63,13.89,3.63,13.89,3.69,13.89C3.63,13.89,3.69,13.89,3.69,13.89z"/>
		<path class="st1" d="M2.01,15.24L2.01,15.24c0.11-0.11,0.17-0.17,0.28-0.28l0,0l0,0C2.18,15.01,2.07,15.12,2.01,15.24L2.01,15.24
			L2.01,15.24z"/>
		<path class="st1" d="M0.28,18.31L0.28,18.31C0.34,18.31,0.34,18.31,0.28,18.31c0.06-0.11,0.11-0.22,0.11-0.34l0,0l0,0
			C0.34,18.03,0.34,18.14,0.28,18.31C0.28,18.26,0.28,18.31,0.28,18.31z"/>
		<path class="st1" d="M0.17,18.98L0.17,18.98L0.17,18.98c0.06-0.11,0.06-0.22,0.11-0.34l0,0l0,0C0.17,18.76,0.17,18.87,0.17,18.98
			C0.11,18.98,0.17,18.98,0.17,18.98z"/>
		<path class="st1" d="M0.5,17.64L0.5,17.64C0.56,17.64,0.56,17.64,0.5,17.64c0.06-0.11,0.11-0.22,0.17-0.34l0,0l0,0
			C0.62,17.36,0.56,17.47,0.5,17.64C0.5,17.58,0.5,17.64,0.5,17.64z"/>
		<path class="st1" d="M1.57,15.8L1.57,15.8c0.06-0.11,0.17-0.17,0.22-0.28l0,0l0,0C1.68,15.57,1.62,15.68,1.57,15.8
			C1.57,15.74,1.57,15.74,1.57,15.8L1.57,15.8z"/>
		<path class="st1" d="M1.17,16.35L1.17,16.35L1.17,16.35c0.06-0.11,0.17-0.22,0.22-0.28l0,0l0,0C1.29,16.13,1.23,16.24,1.17,16.35
			C1.12,16.35,1.12,16.35,1.17,16.35z"/>
		<path class="st1" d="M0.78,16.97L0.78,16.97C0.84,16.97,0.84,16.97,0.78,16.97c0.11-0.11,0.17-0.22,0.22-0.34l0,0l0,0
			C0.89,16.75,0.84,16.86,0.78,16.97L0.78,16.97z"/>
		<path class="st1" d="M10.46,13.56c0.11,0.06,0.22,0.11,0.34,0.17l0,0l0,0l0,0C10.68,13.61,10.57,13.56,10.46,13.56
			C10.46,13.5,10.46,13.5,10.46,13.56C10.46,13.5,10.46,13.56,10.46,13.56z"/>
		<path class="st1" d="M14.15,17.19L14.15,17.19L14.15,17.19L14.15,17.19c0-0.11-0.06-0.22-0.11-0.34l0,0l0,0
			C14.03,16.97,14.09,17.08,14.15,17.19z"/>
		<path class="st1" d="M13.81,16.58L13.81,16.58L13.81,16.58C13.87,16.58,13.87,16.58,13.81,16.58c-0.06-0.11-0.11-0.22-0.17-0.34
			l0,0l0,0C13.7,16.35,13.75,16.47,13.81,16.58z"/>
		<path class="st1" d="M13.42,15.96L13.42,15.96C13.47,15.96,13.47,15.96,13.42,15.96C13.47,15.96,13.47,15.96,13.42,15.96
			c-0.06-0.11-0.11-0.17-0.17-0.28l0,0l0,0C13.31,15.8,13.36,15.91,13.42,15.96z"/>
		<path class="st1" d="M14.42,17.86L14.42,17.86L14.42,17.86L14.42,17.86c0-0.11-0.06-0.22-0.11-0.34l0,0l0,0
			C14.31,17.64,14.37,17.75,14.42,17.86z"/>
		<path class="st1" d="M14.82,19.93L14.82,19.93L14.82,19.93c0-0.11,0-0.28,0-0.39l0,0l0,0C14.76,19.71,14.76,19.82,14.82,19.93
			C14.76,19.93,14.82,19.93,14.82,19.93z"/>
		<path class="st1" d="M12.97,15.4C13.03,15.4,13.03,15.4,12.97,15.4C13.03,15.4,13.03,15.4,12.97,15.4
			C13.03,15.4,13.03,15.4,12.97,15.4c-0.06-0.11-0.11-0.22-0.22-0.28l0,0l0,0C12.86,15.24,12.92,15.35,12.97,15.4z"/>
		<path class="st1" d="M14.76,19.26L14.76,19.26L14.76,19.26c0-0.11,0-0.28-0.06-0.39l0,0l0,0C14.7,18.98,14.7,19.09,14.76,19.26
			C14.7,19.26,14.7,19.26,14.76,19.26z"/>
		<path class="st1" d="M14.59,18.54L14.59,18.54L14.59,18.54C14.65,18.54,14.65,18.54,14.59,18.54c0-0.11-0.06-0.22-0.06-0.34l0,0
			l0,0C14.54,18.31,14.59,18.42,14.59,18.54z"/>
		<path class="st1" d="M8.44,12.94c0.11,0,0.22,0.06,0.34,0.06l0,0l0,0l0,0C8.67,12.94,8.55,12.94,8.44,12.94L8.44,12.94L8.44,12.94
			z"/>
		<path class="st1" d="M12.52,14.9L12.52,14.9L12.52,14.9L12.52,14.9c-0.06-0.11-0.17-0.17-0.22-0.28l0,0l0,0
			C12.36,14.73,12.41,14.85,12.52,14.9z"/>
		<path class="st1" d="M7.72,12.89c0.11,0,0.22,0,0.34,0l0,0l0,0l0,0C8,12.89,7.88,12.89,7.72,12.89
			C7.72,12.83,7.72,12.89,7.72,12.89L7.72,12.89z"/>
		<path class="st1" d="M9.84,13.28c0.11,0.06,0.22,0.06,0.34,0.11l0,0l0,0l0,0C10.06,13.34,9.95,13.28,9.84,13.28
			C9.84,13.22,9.78,13.22,9.84,13.28C9.78,13.28,9.78,13.28,9.84,13.28z"/>
		<path class="st1" d="M9.11,13.06c0.11,0,0.22,0.06,0.34,0.11l0,0l0,0l0,0C9.39,13.11,9.28,13.06,9.11,13.06L9.11,13.06L9.11,13.06
			z"/>
		<path class="st1" d="M11.96,14.45L11.96,14.45C11.96,14.45,12.02,14.45,11.96,14.45C12.02,14.45,12.02,14.45,11.96,14.45
			c-0.06-0.11-0.17-0.17-0.28-0.22l0,0l0,0C11.8,14.29,11.91,14.4,11.96,14.45z"/>
		<path class="st1" d="M11.07,13.84c0.11,0.06,0.22,0.11,0.28,0.17l0,0l0,0l0,0C11.29,13.95,11.24,13.89,11.07,13.84
			C11.13,13.84,11.07,13.84,11.07,13.84L11.07,13.84z"/>
		<path class="st1" d="M0.06,19.71L0.06,19.71C0.06,19.71,0.06,19.65,0.06,19.71c0-0.11,0.06-0.22,0.06-0.39l0,0l0,0
			C0.06,19.43,0.06,19.54,0.06,19.71C0.06,19.65,0.06,19.71,0.06,19.71z"/>
		<path class="st1" d="M4.98,13.28L4.98,13.28c0.11-0.06,0.22-0.06,0.34-0.11l0,0l0,0C5.2,13.22,5.03,13.22,4.98,13.28
			C4.92,13.28,4.92,13.28,4.98,13.28C4.92,13.28,4.92,13.28,4.98,13.28z"/>
		<path class="st1" d="M14.82,20.66L14.82,20.66L14.82,20.66C14.82,20.66,14.76,20.66,14.82,20.66c0-0.11,0-0.22,0-0.34l0,0l0,0l0,0
			C14.82,20.44,14.82,20.55,14.82,20.66z"/>
		<path class="st1" d="M14.82,20.27L14.82,20.27L14.82,20.27c0,0.11,0,0.22,0,0.39l0,0l0,0l0,0C14.82,20.55,14.82,20.44,14.82,20.27
			L14.82,20.27z"/>
	</g>
	<path class="st0" d="M8.5,16.08c0.11,0.11,0.34,0.11,0.45,0l0.22-0.22l3.13,3.13l-0.28,0.22c-0.11,0.11-0.11,0.34,0,0.45
		c0.11,0.11,0.34,0.11,0.45,0c0.06-0.06,3.35-3.35,3.13-3.13c0.11-0.11,0.11-0.34,0-0.45c-0.11-0.11-0.34-0.11-0.45,0l-0.22,0.22
		l-3.13-3.13l0.22-0.22c0.11-0.11,0.11-0.34,0-0.45c-0.11-0.11-0.34-0.11-0.45,0c-0.06,0.06-3.35,3.35-3.13,3.13
		C8.33,15.8,8.33,15.96,8.5,16.08L8.5,16.08z M5.87,21.39C5.76,21.5,5.7,21.67,5.7,21.83c0,0.34,0.28,0.62,0.62,0.62
		c0.17,0,0.34-0.06,0.45-0.17l3.97-3.97l-0.89-0.89L5.87,21.39z"/>
	<g>
		<g>
			<path class="st0" d="M23.04,24.01h-4.92v-7.38h4.92v0.89l-0.39,0.95h-2.24v0.84h2.24v1.85h-2.24v1.01h2.63V24.01z"/>
			<path class="st0" d="M24.54,19.6h5.2v1.45h-5.2V19.6z"/>
			<path class="st0" d="M33.71,24.01h-2.29v-7.38h2.29V24.01z"/>
			<path class="st0" d="M38.02,24.01h-2.74v-1.85h1.34v-5.54h2.29v6.49c0,0.28-0.11,0.5-0.28,0.67
				C38.47,23.9,38.24,24.01,38.02,24.01z"/>
			<path class="st0" d="M41.65,16.63h3.8l1.01,6.49v0.89h-2.29l-0.11-1.51h-1.01l-0.17,1.51h-2.29v-0.89L41.65,16.63z M43.22,20.66
				h0.67l-0.22-2.18h-0.22L43.22,20.66z"/>
			<path class="st0" d="M48.19,16.63h4.58c0.28,0,0.5,0.06,0.67,0.28s0.28,0.39,0.28,0.67v2.91c0,0.17-0.06,0.34-0.17,0.5
				c-0.11,0.17-0.28,0.28-0.45,0.34l0.73,1.79v0.89h-2.24l-0.62-2.29h-0.45v2.29h-2.29L48.19,16.63L48.19,16.63z M51.38,18.48h-0.89
				v1.4h0.89V18.48z"/>
			<path class="st0" d="M56.3,16.63h3.8l1.01,6.43v0.89h-2.29l-0.11-1.51H57.7l-0.17,1.51h-2.29v-0.84L56.3,16.63z M57.92,20.66
				h0.67l-0.22-2.18h-0.22L57.92,20.66z"/>
		</g>
		<path class="st0" d="M66.25,18.48h-1.4v-1.85H70v0.89l-0.39,0.95h-1.12v5.54H66.2L66.25,18.48L66.25,18.48z"/>
		<path class="st0" d="M71.9,16.63h3.86l1.06,6.43v0.89h-2.29l-0.11-1.51h-1.01l-0.17,1.51h-2.4v-0.84L71.9,16.63z M73.47,20.66
			h0.67l-0.22-2.18h-0.22L73.47,20.66z"/>
		<path class="st0" d="M81.96,20.04h0.17l-0.34-2.52v-0.89h2.12v7.38h-2.46L80.4,20.6h-0.17l0.28,2.46v0.89h-2.12v-7.32h2.46
			L81.96,20.04z"/>
		<path class="st0" d="M85.88,24.01v-7.38h2.29v5.54h2.29v1.85H85.88L85.88,24.01z"/>
		<path class="st0" d="M100.3,24.01l-1.17-6.77v-0.62h2.29l0.5,5.54h0.28l0.5-5.54H105v0.62l-1.17,6.77H100.3z"/>
		<path class="st0" d="M96.61,24.01h-3.69c-0.28,0-0.5-0.11-0.67-0.28c-0.17-0.17-0.28-0.39-0.28-0.67v-5.54
			c0-0.28,0.06-0.5,0.28-0.67c0.17-0.17,0.39-0.28,0.67-0.28h3.69c0.28,0,0.5,0.06,0.67,0.28c0.17,0.22,0.28,0.39,0.28,0.67v5.59
			c0,0.28-0.06,0.5-0.28,0.67C97.12,23.9,96.89,24.01,96.61,24.01z M95.27,18.48h-0.95v3.69h0.89v-3.69H95.27z"/>
	</g>
	<g>
		<path class="st0" d="M71.68,27.26c0,0.56-0.28,1.01-0.89,1.01c-0.28,0-0.5-0.11-0.67-0.22l0.17-0.34c0.17,0.11,0.28,0.17,0.5,0.17
			c0.22,0,0.39-0.17,0.45-0.39h0.11c-0.06,0.28-0.28,0.5-0.56,0.5c-0.17,0-0.34-0.06-0.45-0.11l-0.06,0.17
			c0.11,0.06,0.28,0.11,0.5,0.11c0.5,0,0.73-0.34,0.78-0.78h-0.95v-0.39h0.89c-0.06-0.39-0.28-0.67-0.73-0.67
			c-0.22,0-0.34,0.06-0.45,0.11l0.06,0.17c0.11-0.06,0.22-0.11,0.39-0.11c0.22,0,0.39,0.17,0.5,0.39h-0.11
			c-0.06-0.17-0.22-0.28-0.39-0.28c-0.22,0-0.34,0.11-0.45,0.17l-0.17-0.34c0.17-0.11,0.34-0.22,0.62-0.22
			c0.5,0,0.84,0.39,0.84,0.95h-0.95v0.17h1.01V27.26z"/>
		<path class="st0" d="M73.63,26.19v2.07h-0.39v-1.68H72.8v-0.11h0.56v1.68h0.17v-1.79h-0.89v1.12c0,0.56-0.28,0.84-0.73,0.84v-0.39
			c0.17-0.06,0.34-0.06,0.34-0.5v-0.95h0.11v0.89c0,0.45-0.17,0.56-0.34,0.56v0.17c0.34-0.06,0.5-0.28,0.5-0.73v-1.23h1.12V26.19z"
			/>
		<path class="st0" d="M75.42,27.87v0.39h-1.23v-2.07h1.23v0.39h-0.84v0.22h-0.11v-0.34h0.84v-0.17h-1.01v1.79h1.06v-0.17h-0.84
			v-1.01h0.95v0.39h-0.73V27.2h0.5v-0.17h-0.67v0.78h0.84V27.87z"/>
		<path class="st0" d="M77.55,28.21h-0.5l-0.56-0.62v-0.17l0.62,0.73h0.22l-0.84-0.95l0.73-0.84h-0.22l-0.73,0.84v1.12h-0.39v-2.07
			h0.39v0.5l-0.11,0.11v-0.56h-0.17v1.79h0.17v-1.06l0.78-0.89h0.5l-0.84,1.01L77.55,28.21z"/>
		<path class="st0" d="M79.23,26.19v0.39h-0.34v-0.11h0.22v-0.17h-0.45v1.96h-0.39v-1.96h-0.39v0.17h0.22v0.11h-0.34v-0.39h0.67
			v1.96h0.17v-1.96H79.23z"/>
		<path class="st0" d="M81.01,26.87c0,0.39-0.22,0.67-0.67,0.67h-0.17v-0.11h0.17c0.34,0,0.56-0.22,0.56-0.56
			c0-0.17-0.06-0.56-0.62-0.56h-0.62v1.79h0.17v-0.95h0.45c0.22,0,0.28-0.11,0.28-0.28c0-0.17-0.11-0.28-0.28-0.28h-0.34v0.45h-0.11
			v-0.56h0.45c0.22,0,0.39,0.17,0.39,0.39c0,0.28-0.17,0.39-0.45,0.39H79.9v0.95H79.5v-2.07h0.73
			C80.79,26.19,81.01,26.47,81.01,26.87z"/>
		<path class="st0" d="M83.14,27.2c0,0.56-0.34,1.06-0.89,1.06s-0.89-0.5-0.89-1.06c0-0.56,0.34-1.06,0.89-1.06h0.06v0.28
			c0.39,0.06,0.56,0.45,0.56,0.78c0,0.39-0.17,0.78-0.62,0.78c-0.45,0-0.62-0.39-0.62-0.78c0-0.28,0.11-0.62,0.39-0.73v0.11
			c-0.17,0.11-0.28,0.39-0.28,0.62c0,0.28,0.11,0.67,0.5,0.67s0.5-0.39,0.5-0.67s-0.11-0.67-0.5-0.67h-0.06v-0.28
			c-0.5,0.06-0.73,0.5-0.73,0.95s0.22,0.95,0.78,0.95s0.78-0.45,0.78-0.95c0-0.39-0.17-0.78-0.56-0.89v-0.11
			C82.92,26.31,83.14,26.7,83.14,27.2z"/>
		<path class="st0" d="M85.15,26.19v2.07h-0.39v-0.89H83.7v0.78h0.17v-0.62h0.11v0.73h-0.39v-1.01h1.29v0.89h0.17v-1.79h-0.17v0.78
			h-1.29v-0.89h0.39v0.62h-0.11v-0.5H83.7v0.67h1.06v-0.78h0.39V26.19z"/>
		<path class="st0" d="M89.29,26.19v2.07H88.9v-1.23l-0.45,0.78h-0.11l0.67-1.17v1.57h0.17v-1.79h-0.22l-0.84,1.45l-0.45-0.78v1.23
			h-0.39v-2.07h0.39l0.5,0.78l-0.06,0.11l-0.5-0.89h-0.22v1.79h0.17v-1.57l0.56,0.95l0.78-1.34h0.39V26.19z"/>
		<path class="st0" d="M91.53,28.21h-0.45l-0.17-0.5H89.9l-0.17,0.39h0.17l0.11-0.22h0.11l-0.11,0.34h-0.39l0.22-0.62h1.12l0.17,0.5
			h0.17l-0.67-1.79h-0.22l-0.39,1.06h0.67l-0.22-0.56L90.3,27.2h-0.11l0.28-0.73l0.39,1.01h-1.01l0.45-1.29h0.39L91.53,28.21z"/>
		<path class="st0" d="M93.48,26.19v2.07h-0.39v-1.01l0.11-0.22v1.12h0.17v-1.68l-1.06,1.79h-0.39v-2.07h0.39v1.34l0.78-1.34h0.11
			l-1.01,1.73v-1.62h-0.17v1.79h0.22l1.12-1.96h0.11V26.19z M92.2,25.92c0-0.06-0.06-0.06-0.06-0.11l0.34-0.11
			c0.06,0.06,0.11,0.11,0.17,0.11s0.11-0.06,0.17-0.11l0.34,0.11c-0.11,0.22-0.28,0.34-0.5,0.34c-0.11,0-0.28-0.06-0.34-0.11
			l0.17-0.06c0.06,0.06,0.11,0.06,0.22,0.06c0.11,0,0.22-0.06,0.34-0.11l-0.11-0.06c-0.06,0.06-0.11,0.06-0.22,0.06
			c-0.06,0-0.17,0-0.22-0.06L92.2,25.92z"/>
		<path class="st0" d="M95.44,28.71v-0.5h-1.23v0.5h-0.39v-0.84h0.17c0.11-0.11,0.28-0.34,0.28-0.84v-0.56h1.06v1.12h0.17v-1.29
			h-0.95v-0.11h1.06v1.51h-0.39v-1.12h-0.84v0.45c0,0.5-0.17,0.73-0.28,0.89l-0.06,0.06h-0.11v0.62h0.17v-0.5h1.45v0.5h0.17v-0.62
			h-1.45l0.11-0.17c0.06-0.11,0.17-0.34,0.17-0.73v-0.34h0.11v0.28c0,0.39-0.11,0.67-0.17,0.78h1.4v0.89H95.44z"/>
		<path class="st0" d="M97.96,27.2c0,0.56-0.34,1.06-0.89,1.06s-0.89-0.5-0.89-1.06c0-0.56,0.34-1.06,0.89-1.06h0.06v0.28
			c0.39,0.06,0.56,0.45,0.56,0.78c0,0.39-0.17,0.78-0.62,0.78c-0.45,0-0.62-0.39-0.62-0.78c0-0.28,0.11-0.62,0.39-0.73v0.11
			c-0.17,0.11-0.28,0.39-0.28,0.62c0,0.28,0.11,0.67,0.5,0.67c0.39,0,0.5-0.39,0.5-0.67s-0.11-0.67-0.5-0.67H97v-0.28
			c-0.5,0.06-0.73,0.5-0.73,0.95s0.22,0.95,0.78,0.95s0.78-0.45,0.78-0.95c0-0.39-0.17-0.78-0.56-0.89v-0.11
			C97.73,26.31,97.96,26.7,97.96,27.2z"/>
		<path class="st0" d="M99.97,26.19v2.07h-0.39v-0.89h-1.06v0.78h0.17v-0.62h0.11v0.73H98.4v-1.01h1.29v0.89h0.17v-1.79h-0.17v0.78
			H98.4v-0.89h0.39v0.62h-0.11v-0.5h-0.17v0.67h1.06v-0.78h0.39V26.19z"/>
		<path class="st0" d="M100.75,26.87v-0.56h-0.17v0.56c0,0.39,0.34,0.56,0.62,0.56c0.34,0,0.62-0.06,0.78-0.11v0.89h-0.39v-0.56
			c0.06,0,0.06,0,0.11,0v0.45h0.17v-0.67c-0.17,0-0.34,0.06-0.67,0.06c-0.39,0-0.73-0.22-0.73-0.67v-0.67h0.39v0.67
			c0,0.17,0.11,0.28,0.34,0.28c0.28,0,0.5-0.06,0.67-0.11v-0.78h-0.17v0.62c-0.06,0-0.06,0-0.11,0v-0.78h0.39v0.95
			c-0.17,0.06-0.45,0.11-0.78,0.11C100.92,27.26,100.75,27.03,100.75,26.87z"/>
		<path class="st0" d="M104.22,28.21h-0.45l-0.17-0.5h-1.01l-0.17,0.39h0.17l0.11-0.22h0.11l-0.11,0.34h-0.39l0.22-0.62h1.12
			l0.17,0.5h0.17l-0.67-1.79h-0.22l-0.39,1.06h0.67l-0.22-0.56l-0.17,0.39h-0.11l0.28-0.73l0.39,1.01h-1.01l0.45-1.29h0.39
			L104.22,28.21z"/>
	</g>
</g>
</svg>
