<?xml version="1.0" encoding="utf-8"?>
<!-- Generator: Adobe Illustrator 23.0.3, SVG Export Plug-In . SVG Version: 6.00 Build 0)  -->
<svg version="1.1" id="Слой_1" xmlns="http://www.w3.org/2000/svg" xmlns:xlink="http://www.w3.org/1999/xlink" x="0px" y="0px"
	 viewBox="0 0 313.4 66.1" style="enable-background:new 0 0 313.4 66.1;" xml:space="preserve">
<style type="text/css">
	.st0{fill-rule:evenodd;clip-rule:evenodd;fill:#0D8356;}
	.st1{fill:#0D8356;}
</style>
<g>
	<rect x="3.7" y="60" class="st0" width="64.4" height="0.9"/>
	<rect x="245.3" y="60" class="st0" width="64.4" height="0.9"/>
	<g>
		<path class="st1" d="M21.2,8c-0.1-2.1-0.2-4.3-0.4-6.4c2.1,0,4.1,0.1,6.2,0.1c2,0.1,4.1,0.1,6.2,0.1c3.4,0,6.5,0,9.1-0.1
			c2.7-0.1,4.5-0.1,5.4-0.2c-0.2,0.5-0.3,1.2-0.3,2.1c0,0.5,0,0.9,0.1,1.2s0.1,0.6,0.2,1c-1.3-0.1-2.8-0.1-4.4-0.2
			c-1.6-0.1-3.1-0.1-4.6-0.2c-1.5-0.1-2.8-0.1-4-0.1s-2.1-0.1-2.6-0.1c-0.2,1.8-0.3,3.6-0.3,5.4c0,1.8,0,3.6,0,5.4
			c3,0,5.7-0.1,8.1-0.1c2.4-0.1,5-0.1,7.6-0.2c-0.1,0.6-0.2,1-0.3,1.3c0,0.3-0.1,0.6-0.1,0.9c0,0.3,0,0.5,0.1,0.8
			c0.1,0.3,0.2,0.7,0.2,1.2c-5.3-0.3-10.5-0.4-15.7-0.4c0,1.1,0,2.1,0,3.2s0,2.1,0,3.2c0,2.1,0.1,4.2,0.2,6.2c2.6,0,5.3-0.1,7.9-0.1
			c2.6-0.1,5.3-0.3,8-0.5c-0.1,0.4-0.2,0.7-0.2,1s-0.1,0.7-0.1,1.2s0,0.9,0.1,1.2c0,0.3,0.1,0.5,0.2,0.7c-1.2,0-2.8-0.1-4.6-0.1
			c-1.8,0-4.3,0-7.5,0c-2.8,0-5.1,0-6.9,0c-1.7,0-3.1,0-4.1,0c-1,0-1.8,0-2.4,0c-0.5,0-1,0-1.4,0.1c0.2-2,0.3-4.1,0.4-6.2
			c0.1-2.1,0.1-4.6,0.1-7.3v-6.7C21.3,12.5,21.3,10.1,21.2,8z"/>
		<path class="st1" d="M77.5,21.9v5.4H60.2v-5.4H77.5z"/>
		<path class="st1" d="M93.6,8c-0.1-2.1-0.2-4.3-0.4-6.4c0.8,0.1,1.6,0.1,2.6,0.2s2,0.1,3.1,0.1c1.2,0,2.2,0,3.1-0.1
			c0.9-0.1,1.8-0.1,2.6-0.2c-0.2,2.1-0.3,4.3-0.4,6.4c-0.1,2.1-0.1,4.6-0.1,7.3V22c0,2.7,0.1,5.2,0.1,7.3c0.1,2.1,0.2,4.2,0.4,6.2
			c-0.8-0.1-1.6-0.1-2.6-0.1s-2,0-3.1,0s-2.2,0-3.1,0c-0.9,0-1.8,0-2.6,0.1c0.2-2,0.3-4.1,0.4-6.2c0.1-2.1,0.1-4.6,0.1-7.3v-6.7
			C93.8,12.5,93.7,10.1,93.6,8z"/>
		<path class="st1" d="M120.2,40.2c0.7-0.3,1.2-0.6,1.6-1c0.4-0.4,0.7-0.9,0.9-1.5s0.4-1.3,0.4-2.2c0.2-2,0.3-4.1,0.4-6.2
			c0.1-2.1,0.1-4.6,0.1-7.3v-6.7c0-2.7-0.1-5.2-0.1-7.3c-0.1-2.1-0.2-4.3-0.4-6.4c0.8,0.1,1.6,0.1,2.6,0.2s2,0.1,3.1,0.1
			c1.1,0,2.2,0,3.1-0.1c0.9-0.1,1.8-0.1,2.6-0.2c-0.2,2.1-0.3,4.3-0.4,6.4c-0.1,2.1-0.1,4.6-0.1,7.3V22c0,1.4,0,2.8,0.1,4.4
			c0.1,1.5,0.1,3.1,0.1,4.6c0,3.9-1.3,6.8-3.9,8.7c-2.6,1.9-6.4,3.2-11.5,3.8l-1-2.3C118.8,40.8,119.6,40.5,120.2,40.2z"/>
		<path class="st1" d="M191.3,35.5c-1.1-0.1-2.2-0.1-3.1-0.1c-1,0-2,0-2.9,0s-1.9,0-2.9,0s-2,0-2.9,0.1c-0.7-1.6-1.5-3.3-2.3-4.9
			c-0.8-1.7-1.6-3.4-2.5-5c-1.5,0-3-0.1-4.4-0.1c-1.5,0-3,0-4.4,0c-1.2,0-2.4,0-3.6,0c-1.2,0-2.4,0-3.6,0.1c-0.9,1.7-1.8,3.4-2.6,5
			c-0.8,1.7-1.5,3.3-2.1,4.9c-0.6-0.1-1.1-0.1-1.6-0.1s-1.1,0-1.6,0s-1.1,0-1.7,0s-1.2,0-1.8,0.1c0.6-0.9,1.3-2,2.2-3.6
			c0.9-1.5,1.9-3.2,3.1-5.1s2.3-4,3.6-6.1c1.3-2.2,2.5-4.4,3.8-6.6s2.5-4.4,3.7-6.6s2.3-4.2,3.4-6.1c0.5,0.1,0.9,0.1,1.3,0.2
			c0.4,0.1,0.9,0.1,1.3,0.1c0.5,0,0.9,0,1.3-0.1c0.4-0.1,0.9-0.1,1.3-0.2c1.5,2.8,3.1,5.8,4.8,9s3.4,6.3,5.1,9.4
			c1.7,3.1,3.4,6,5,8.8C188.5,31.2,190,33.6,191.3,35.5z M166.8,10.8c-1.2,2-2.3,3.9-3.4,5.9c-1.1,1.9-2.1,3.9-3.1,5.9H173
			c-1-2-2-4-3-5.9C169,14.8,167.9,12.8,166.8,10.8z"/>
		<path class="st1" d="M215.7,19.9v2c0,2.7,0.1,5.2,0.1,7.3c0.1,2.1,0.2,4.2,0.4,6.2c-0.8-0.1-1.6-0.1-2.6-0.1s-2,0-3.1,0
			c-1.2,0-2.2,0-3.1,0c-0.9,0-1.8,0-2.6,0.1c0.2-2,0.3-4.1,0.4-6.2c0.1-2.1,0.1-4.6,0.1-7.3v-6.7c0-2.7-0.1-5.2-0.1-7.3
			c-0.1-2.1-0.2-4.3-0.4-6.4c0.8,0.1,1.6,0.1,2.6,0.2s2,0.1,3.1,0.1c1.2,0,2.7,0,4.3-0.1s3.6-0.1,5.9-0.1c1.8,0,3.3,0,4.5,0.1
			c1.2,0.1,2.3,0.2,3.2,0.3s1.7,0.3,2.4,0.5s1.3,0.5,1.9,0.8c1.4,0.7,2.5,1.6,3.3,2.7s1.2,2.4,1.2,3.8c0,2.4-0.9,4.4-2.8,5.9
			c-1.9,1.5-4.5,2.6-8,3.2c2.2,2.8,4.6,5.6,7.1,8.4s5.1,5.5,7.6,8.3c-1.1-0.1-2.1-0.1-3.1-0.1c-1,0-2.1,0-3.1,0s-2.1,0-3.1,0
			s-2.1,0-3.1,0.1l-12.4-15.6L215.7,19.9L215.7,19.9z M226.6,10.8c0-1.4-0.2-2.6-0.6-3.5c-0.4-0.9-1.1-1.5-1.9-1.9
			c-0.9-0.4-2-0.7-3.3-0.9c-1.4-0.1-3-0.2-4.9-0.2c-0.1,4.5-0.2,9-0.2,13.4c0.3,0,0.5,0.1,0.8,0.1c0.2,0,0.5,0,0.7,0
			c3.1,0,5.4-0.6,7-1.8C225.8,15,226.6,13.2,226.6,10.8z"/>
		<path class="st1" d="M293.7,35.5c-1.1-0.1-2.2-0.1-3.1-0.1s-2,0-2.9,0s-2,0-2.9,0s-2,0-2.9,0.1c-0.7-1.6-1.5-3.3-2.3-4.9
			c-0.8-1.7-1.6-3.4-2.5-5c-1.5,0-3-0.1-4.4-0.1c-1.5,0-3,0-4.4,0c-1.2,0-2.4,0-3.6,0s-2.4,0-3.6,0.1c-0.9,1.7-1.8,3.4-2.6,5
			c-0.8,1.7-1.5,3.3-2.1,4.9c-0.6-0.1-1.1-0.1-1.6-0.1s-1.1,0-1.6,0s-1.1,0-1.7,0s-1.2,0-1.8,0.1c0.6-0.9,1.3-2,2.2-3.6
			c0.9-1.5,1.9-3.2,3.1-5.1s2.3-4,3.6-6.1c1.3-2.2,2.5-4.4,3.8-6.6s2.5-4.4,3.7-6.6s2.3-4.2,3.4-6.1c0.5,0.1,0.9,0.1,1.3,0.2
			s0.9,0.1,1.3,0.1c0.5,0,0.9,0,1.3-0.1c0.4-0.1,0.9-0.1,1.3-0.2c1.5,2.8,3.1,5.8,4.8,9s3.4,6.3,5.1,9.4s3.4,6,5,8.8
			C290.9,31.2,292.4,33.6,293.7,35.5z M269.2,10.8c-1.2,2-2.3,3.9-3.4,5.9c-1.1,1.9-2.1,3.9-3.1,5.9h12.7c-1-2-2-4-3-5.9
			C271.4,14.8,270.3,12.8,269.2,10.8z"/>
	</g>
	<g>
		<path class="st1" d="M79,56.9c0.5-0.4,1-0.7,1.5-0.8c0.5-0.1,0.9-0.2,1.4-0.2c0.4,0,0.8,0.1,1.2,0.2s0.7,0.3,0.9,0.5
			s0.4,0.5,0.6,0.9s0.2,0.7,0.2,1.1c0,0.7,0,1.4,0,2c0,0.7,0,1.4,0,2.1c0,0.1,0,0.3,0,0.5s0,0.3,0.1,0.4s0.1,0.2,0.2,0.3
			s0.2,0.1,0.4,0.1c0.1,0,0.1,0,0.2,0c0.1,0,0.1,0,0.2-0.1v0.4c-0.1,0.1-0.3,0.1-0.5,0.1s-0.4,0.1-0.7,0.1c-0.4,0-0.7-0.1-0.9-0.3
			s-0.3-0.5-0.4-0.8c-0.4,0.4-0.9,0.8-1.3,1s-0.9,0.3-1.6,0.3c-0.3,0-0.6,0-0.9-0.1s-0.5-0.2-0.8-0.4c-0.2-0.2-0.4-0.4-0.5-0.7
			s-0.2-0.6-0.2-0.9c0-0.7,0.2-1.3,0.7-1.7c0.4-0.4,1.1-0.7,1.9-0.8c0.7-0.1,1.2-0.2,1.5-0.3c0.4-0.1,0.6-0.2,0.8-0.2
			s0.3-0.2,0.3-0.3c0-0.1,0.1-0.3,0.1-0.4c0-0.3,0-0.6-0.1-0.9c-0.1-0.3-0.2-0.5-0.3-0.7c-0.2-0.2-0.4-0.4-0.6-0.5s-0.6-0.2-0.9-0.2
			c-0.5,0-0.9,0.1-1.3,0.3s-0.7,0.5-0.9,0.9H79L79,56.9L79,56.9z M83.5,60.1c-0.2,0.1-0.4,0.1-0.7,0.2s-0.5,0.1-0.8,0.1
			c-0.3,0.1-0.6,0.1-0.8,0.2s-0.5,0.2-0.7,0.3s-0.4,0.3-0.5,0.5c-0.1,0.2-0.2,0.5-0.2,0.8c0,0.6,0.2,1,0.5,1.3
			c0.3,0.3,0.7,0.4,1.1,0.4c0.5,0,0.9-0.1,1.2-0.4s0.7-0.6,0.9-0.9L83.5,60.1z"/>
		<path class="st1" d="M94.7,59.4c0.4-0.6,0.8-1.1,1.3-1.7s0.8-1.1,1.2-1.7c0.1,0,0.2,0,0.3,0.1s0.2,0,0.3,0c0.1,0,0.3,0,0.6-0.1
			c-0.6,0.7-1.1,1.3-1.7,1.9c-0.6,0.6-1.1,1.3-1.6,1.9c0.5,0.8,1.1,1.6,1.7,2.4s1.2,1.6,1.8,2.3c-0.2,0-0.3,0-0.5,0
			c-0.2,0-0.3,0-0.4,0s-0.3,0-0.4,0c-0.2,0-0.3,0-0.5,0c-0.4-0.6-0.8-1.2-1.2-1.8s-0.8-1.2-1.3-1.8c-0.4,0.6-0.9,1.2-1.3,1.8
			c-0.4,0.6-0.8,1.2-1.2,1.8c-0.2,0-0.4,0-0.6,0c-0.2,0-0.4,0-0.6,0c0.6-0.7,1.1-1.4,1.7-2c0.6-0.7,1.1-1.4,1.6-2.1
			c-0.5-0.7-1.1-1.5-1.6-2.2s-1.1-1.5-1.7-2.2c0.2,0,0.3,0,0.5,0.1s0.3,0,0.5,0s0.3,0,0.5,0s0.3,0,0.5-0.1c0.3,0.6,0.7,1.1,1.1,1.7
			S94.3,58.8,94.7,59.4z"/>
		<path class="st1" d="M111.9,60.1c0,0.7-0.1,1.3-0.3,1.9s-0.5,1.1-0.9,1.5c-0.4,0.4-0.8,0.7-1.3,1s-1,0.3-1.6,0.3s-1.1-0.1-1.6-0.4
			s-0.8-0.5-1.1-0.9c-0.4,0.4-0.8,0.7-1.2,1h-0.3c0-0.3,0-0.6,0.1-1s0-0.8,0-1.3s0-0.9,0-1.4c0-0.5,0-0.9,0-1.3v-3.3
			c0-0.4,0-0.9,0-1.3s0-0.9,0-1.4s0-0.9,0-1.3c0-0.4,0-0.8-0.1-1.1c0.3,0.1,0.6,0.1,0.8,0.1c0.1,0,0.3,0,0.4,0c0.1,0,0.3,0,0.5-0.1
			c0,0.2-0.1,0.6-0.1,1.1s0,1.1-0.1,1.8c0,0.6,0,1.3,0,2c0,0.7,0,1.3,0,1.8h0c0.4-0.6,0.9-1.1,1.3-1.4s1.1-0.4,1.7-0.4
			c0.6,0,1.2,0.1,1.6,0.4c0.5,0.2,0.8,0.5,1.1,0.9s0.5,0.8,0.7,1.3S111.9,59.5,111.9,60.1z M110.3,60c0-0.6-0.1-1-0.2-1.5
			c-0.1-0.4-0.3-0.8-0.5-1.1s-0.5-0.5-0.8-0.7c-0.3-0.1-0.6-0.2-0.9-0.2c-0.4,0-0.7,0.1-1.1,0.2s-0.6,0.4-0.9,0.7s-0.4,0.7-0.6,1.2
			s-0.2,1.1-0.2,1.9c0,2.4,0.9,3.6,2.6,3.6c0.4,0,0.7-0.1,1-0.3c0.3-0.2,0.6-0.5,0.8-0.9s0.4-0.8,0.6-1.3
			C110.3,61.2,110.3,60.6,110.3,60z"/>
		<path class="st1" d="M116.9,60.3c0-0.8,0.1-1.5,0.4-2.1s0.6-1,1-1.4c0.4-0.4,0.9-0.6,1.4-0.8c0.5-0.2,1-0.2,1.6-0.2
			c0.5,0,1.1,0.1,1.6,0.2s1,0.4,1.4,0.8s0.8,0.8,1,1.4c0.3,0.6,0.4,1.3,0.4,2.1s-0.1,1.5-0.4,2.1s-0.6,1-1,1.4
			c-0.4,0.4-0.9,0.6-1.4,0.8c-0.5,0.1-1,0.2-1.6,0.2c-0.5,0-1-0.1-1.6-0.2c-0.5-0.1-1-0.4-1.4-0.8c-0.4-0.4-0.8-0.8-1-1.4
			C117,61.8,116.9,61.1,116.9,60.3z M118.5,60.3c0,0.5,0,1,0.1,1.5s0.2,0.9,0.5,1.2s0.5,0.7,0.9,0.9c0.4,0.2,0.8,0.3,1.3,0.3
			s1-0.1,1.3-0.3c0.4-0.2,0.7-0.5,0.9-0.9s0.4-0.8,0.5-1.2s0.1-0.9,0.1-1.5s0-1-0.1-1.5s-0.2-0.9-0.5-1.2s-0.5-0.7-0.9-0.9
			s-0.8-0.3-1.3-0.3s-1,0.1-1.3,0.3s-0.7,0.5-0.9,0.9c-0.2,0.4-0.4,0.8-0.5,1.2S118.5,59.8,118.5,60.3z"/>
		<path class="st1" d="M135,57.3c-0.2-0.1-0.4-0.1-0.5-0.1c-0.3,0-0.6,0.1-0.8,0.2c-0.2,0.1-0.4,0.3-0.6,0.5s-0.3,0.5-0.4,0.8
			c-0.1,0.3-0.1,0.6-0.1,1v2c0,0.8,0,1.4,0,1.8c0,0.4,0,0.8,0.1,1c-0.2,0-0.5,0-0.7,0c-0.3,0-0.5,0-0.8,0c0-0.4,0.1-1,0.1-1.7
			s0-1.6,0-2.6v-0.6c0-0.5,0-1,0-1.6s0-1.3-0.1-2.1c0.1,0,0.3,0,0.4,0.1c0.1,0,0.2,0,0.4,0c0.1,0,0.2,0,0.3,0s0.2,0,0.4-0.1
			c-0.1,0.4-0.1,0.8-0.1,1s0,0.5,0,0.7l0,0c0.7-1.3,1.5-1.9,2.4-1.9c0.1,0,0.2,0,0.3,0c0.1,0,0.2,0,0.3,0.1
			c-0.1,0.1-0.1,0.4-0.1,0.7s0,0.6,0,0.8l-0.1,0.1C135.3,57.4,135.2,57.3,135,57.3z"/>
		<path class="st1" d="M140.1,60.3c0-0.8,0.1-1.5,0.4-2.1s0.6-1,1-1.4c0.4-0.4,0.9-0.6,1.4-0.8s1-0.2,1.6-0.2c0.5,0,1.1,0.1,1.6,0.2
			s1,0.4,1.4,0.8s0.8,0.8,1,1.4c0.3,0.6,0.4,1.3,0.4,2.1s-0.1,1.5-0.4,2.1s-0.6,1-1,1.4c-0.4,0.4-0.9,0.6-1.4,0.8
			c-0.5,0.1-1,0.2-1.6,0.2c-0.5,0-1-0.1-1.6-0.2c-0.5-0.1-1-0.4-1.4-0.8c-0.4-0.4-0.8-0.8-1-1.4C140.2,61.8,140.1,61.1,140.1,60.3z
			 M141.7,60.3c0,0.5,0,1,0.1,1.5c0.1,0.5,0.2,0.9,0.5,1.2s0.5,0.7,0.9,0.9c0.4,0.2,0.8,0.3,1.3,0.3s1-0.1,1.3-0.3
			c0.4-0.2,0.6-0.5,0.9-0.9s0.4-0.8,0.5-1.2s0.1-0.9,0.1-1.5s0-1-0.1-1.5s-0.2-0.9-0.5-1.2s-0.5-0.7-0.9-0.9s-0.8-0.3-1.3-0.3
			s-1,0.1-1.3,0.3s-0.6,0.5-0.9,0.9c-0.2,0.4-0.4,0.8-0.5,1.2C141.7,59.3,141.7,59.8,141.7,60.3z"/>
		<path class="st1" d="M156.1,53.6c0,0.5-0.1,0.9-0.1,1.3s0,0.9-0.1,1.3c0.1,0,0.4,0,0.7,0s0.8,0,1.2,0c0,0,0,0.1,0,0.2v0.2v0.2
			c0,0.1,0,0.1,0,0.2c-0.2,0-0.3,0-0.5,0s-0.4,0-0.5,0H156c0,0.1,0,0.2,0,0.6c0,0.3,0,0.7,0,1.2c0,0.5,0,0.9,0,1.4s0,0.9,0,1.4
			c0,0.3,0,0.7,0,1s0.1,0.6,0.2,0.9c0.1,0.3,0.2,0.5,0.4,0.6c0.2,0.2,0.5,0.2,0.8,0.2c0.1,0,0.2,0,0.4,0s0.3-0.1,0.4-0.1v0.4
			c-0.2,0-0.4,0.1-0.7,0.1c-0.2,0.1-0.5,0.1-0.7,0.1c-0.8,0-1.3-0.2-1.7-0.6c-0.4-0.4-0.5-0.9-0.5-1.6c0-0.3,0-0.7,0-1.1
			s0-0.8,0-1.2c0-0.4,0-0.9,0-1.5s0-1.2,0-1.8h-0.6c-0.1,0-0.2,0-0.3,0s-0.2,0-0.3,0c0-0.1,0-0.1,0-0.2s0-0.1,0-0.2
			c0-0.1,0-0.1,0-0.2s0-0.1,0-0.2c0.5,0,0.9,0.1,1.2,0.1c0-0.2,0-0.5,0-0.9s0-0.7,0-1.1L156.1,53.6L156.1,53.6L156.1,53.6z"/>
		<path class="st1" d="M173.3,53.6c0,0.5-0.1,0.9-0.1,1.3s0,0.9-0.1,1.3c0.1,0,0.4,0,0.7,0s0.8,0,1.2,0c0,0,0,0.1,0,0.2v0.2v0.2
			c0,0.1,0,0.1,0,0.2c-0.2,0-0.3,0-0.5,0s-0.4,0-0.5,0h-0.9c0,0.1,0,0.2,0,0.6c0,0.3,0,0.7,0,1.2c0,0.5,0,0.9,0,1.4s0,0.9,0,1.4
			c0,0.3,0,0.7,0,1s0.1,0.6,0.2,0.9c0.1,0.3,0.2,0.5,0.4,0.6c0.2,0.2,0.5,0.2,0.8,0.2c0.1,0,0.2,0,0.4,0s0.3-0.1,0.4-0.1v0.4
			c-0.2,0-0.4,0.1-0.7,0.1c-0.2,0.1-0.5,0.1-0.7,0.1c-0.8,0-1.3-0.2-1.7-0.6c-0.4-0.4-0.5-0.9-0.5-1.6c0-0.3,0-0.7,0-1.1
			s0-0.8,0-1.2c0-0.4,0-0.9,0-1.5s0-1.2,0-1.8h-0.6c-0.1,0-0.2,0-0.3,0s-0.2,0-0.3,0c0-0.1,0-0.1,0-0.2s0-0.1,0-0.2
			c0-0.1,0-0.1,0-0.2s0-0.1,0-0.2c0.5,0,0.9,0.1,1.2,0.1c0-0.2,0-0.5,0-0.9s0-0.7,0-1.1L173.3,53.6L173.3,53.6L173.3,53.6z"/>
		<path class="st1" d="M180.5,52.9c0-0.2,0.1-0.5,0.3-0.6c0.2-0.2,0.4-0.3,0.6-0.3s0.5,0.1,0.6,0.3c0.2,0.2,0.3,0.4,0.3,0.6
			s-0.1,0.5-0.3,0.6c-0.2,0.2-0.4,0.3-0.6,0.3s-0.5-0.1-0.6-0.3C180.6,53.3,180.5,53.1,180.5,52.9z M180.7,59.4c0-0.5,0-1.1,0-1.7
			s-0.1-1.1-0.1-1.7c0.3,0.1,0.6,0.1,0.8,0.1s0.5,0,0.8-0.1c-0.1,0.5-0.1,1.1-0.1,1.7c0,0.6,0,1.2,0,1.7v1.9c0,0.5,0,1.1,0,1.7
			s0.1,1.1,0.1,1.6c-0.3,0-0.6,0-0.8,0s-0.5,0-0.8,0c0.1-0.5,0.1-1,0.1-1.6c0-0.6,0-1.2,0-1.7V59.4z"/>
		<path class="st1" d="M189.7,62.4c0.6-0.7,1.1-1.4,1.6-2.1s1-1.3,1.4-1.9s0.8-1.1,1.2-1.6c-0.1,0-0.3,0-0.7,0c-0.4,0-0.8,0-1.3,0.1
			s-1,0.1-1.5,0.1c-0.5,0-0.9,0.1-1.3,0.1c0-0.2,0.1-0.3,0.1-0.5s0-0.3-0.1-0.5c0.4,0,0.9,0.1,1.7,0.1c0.7,0,1.7,0,2.8,0
			c0.2,0,0.5,0,0.7,0c0.2,0,0.4,0,0.6,0c0.2,0,0.4,0,0.5,0c0.2,0,0.4,0,0.6,0v0.3c-0.5,0.6-1,1.3-1.6,2.1s-1.1,1.5-1.7,2.2
			c-0.5,0.7-1,1.4-1.5,2c-0.4,0.6-0.8,1.1-1,1.4c0.5,0,0.9,0,1.4,0s0.8,0,1.2,0c0.4,0,0.9,0,1.4-0.1c0.5,0,1-0.1,1.7-0.1
			c-0.1,0.1-0.1,0.3-0.1,0.5c0,0.2,0,0.3,0.1,0.4c-0.8,0-1.5,0-2.2,0s-1.5,0-2.2,0c-0.5,0-1.1,0-1.6,0c-0.5,0-1.1,0-1.6,0v-0.2
			C188.6,63.7,189.2,63.1,189.7,62.4z"/>
		<path class="st1" d="M201.7,52.9c0-0.2,0.1-0.5,0.3-0.6c0.2-0.2,0.4-0.3,0.6-0.3s0.5,0.1,0.6,0.3c0.2,0.2,0.3,0.4,0.3,0.6
			s-0.1,0.5-0.3,0.6c-0.2,0.2-0.4,0.3-0.6,0.3s-0.5-0.1-0.6-0.3C201.8,53.3,201.7,53.1,201.7,52.9z M202,59.4c0-0.5,0-1.1,0-1.7
			s-0.1-1.1-0.1-1.7c0.3,0.1,0.6,0.1,0.8,0.1s0.5,0,0.8-0.1c-0.1,0.5-0.1,1.1-0.1,1.7c0,0.6,0,1.2,0,1.7v1.9c0,0.5,0,1.1,0,1.7
			s0.1,1.1,0.1,1.6c-0.3,0-0.6,0-0.8,0s-0.5,0-0.8,0c0.1-0.5,0.1-1,0.1-1.6c0-0.6,0-1.2,0-1.7V59.4z"/>
		<path class="st1" d="M210.1,57.7c0-0.6-0.1-1.1-0.1-1.7c0.3,0.1,0.6,0.1,0.8,0.1c0.1,0,0.2,0,0.3,0s0.2,0,0.4-0.1
			c0,0.5-0.1,1-0.1,1.4h0c0.6-1.1,1.5-1.6,2.7-1.6c0.3,0,0.6,0,0.9,0.1c0.3,0.1,0.6,0.2,0.8,0.4c0.2,0.2,0.4,0.4,0.6,0.6
			c0.2,0.2,0.3,0.5,0.3,0.7h0c0.3-0.6,0.7-1,1.2-1.3c0.5-0.3,1.1-0.5,1.7-0.5c0.4,0,0.8,0.1,1.1,0.2c0.3,0.1,0.6,0.3,0.9,0.5
			c0.2,0.2,0.4,0.5,0.6,0.9s0.2,0.8,0.2,1.3c0,0.2,0,0.4,0,0.7c0,0.2,0,0.5,0,0.8c0,0.3,0,0.7,0,1.1c0,0.4,0,0.9,0,1.4
			c0,0.3,0,0.6,0,0.9s0,0.6,0,1c-0.1,0-0.3,0-0.4,0s-0.3,0-0.4,0c-0.1,0-0.3,0-0.4,0c-0.1,0-0.3,0-0.4,0c0-0.3,0.1-0.9,0.1-1.8
			s0.1-2.2,0.1-3.8c0-0.3,0-0.6-0.1-0.9c-0.1-0.3-0.2-0.5-0.3-0.7c-0.1-0.2-0.3-0.3-0.6-0.5c-0.2-0.1-0.5-0.2-0.9-0.2
			c-0.4,0-0.8,0.1-1.1,0.2s-0.5,0.4-0.7,0.6c-0.1,0.1-0.2,0.3-0.2,0.4c-0.1,0.1-0.1,0.3-0.1,0.6s-0.1,0.6-0.1,1.1c0,0.5,0,1.2,0,2
			c0,0.5,0,1,0,1.4c0,0.4,0,0.9,0.1,1.4c-0.3,0-0.5,0-0.8,0s-0.5,0-0.8,0c0.1-0.7,0.1-1.3,0.1-2c0-0.7,0-1.4,0-2c0-0.6,0-1,0-1.3
			s0-0.6,0-0.8c0-0.2-0.1-0.3-0.1-0.5s-0.1-0.2-0.2-0.4c-0.1-0.2-0.3-0.4-0.6-0.6s-0.6-0.2-0.9-0.2c-0.8,0-1.4,0.3-1.8,0.8
			c-0.4,0.5-0.6,1.2-0.6,2.2v1.5c0,0.5,0,1.1,0,1.7s0.1,1.1,0.1,1.6c-0.3,0-0.6,0-0.8,0s-0.5,0-0.8,0c0.1-0.5,0.1-1,0.1-1.6
			s0-1.2,0-1.7v-1.9C210.1,58.8,210.1,58.3,210.1,57.7z"/>
		<path class="st1" d="M228.9,52.9c0-0.2,0.1-0.5,0.3-0.6c0.2-0.2,0.4-0.3,0.6-0.3s0.5,0.1,0.6,0.3c0.2,0.2,0.3,0.4,0.3,0.6
			s-0.1,0.5-0.3,0.6c-0.2,0.2-0.4,0.3-0.6,0.3s-0.5-0.1-0.6-0.3C229,53.3,228.9,53.1,228.9,52.9z M229.1,59.4c0-0.5,0-1.1,0-1.7
			s-0.1-1.1-0.1-1.7c0.3,0.1,0.6,0.1,0.8,0.1s0.5,0,0.8-0.1c-0.1,0.5-0.1,1.1-0.1,1.7c0,0.6,0,1.2,0,1.7v1.9c0,0.5,0,1.1,0,1.7
			s0.1,1.1,0.1,1.6c-0.3,0-0.6,0-0.8,0s-0.5,0-0.8,0c0.1-0.5,0.1-1,0.1-1.6c0-0.6,0-1.2,0-1.7V59.4z"/>
	</g>
</g>
</svg>
