<?xml version="1.0" encoding="utf-8"?>
<!-- Generator: Adobe Illustrator 24.0.1, SVG Export Plug-In . SVG Version: 6.00 Build 0)  -->
<svg version="1.1" id="Слой_1" xmlns="http://www.w3.org/2000/svg" xmlns:xlink="http://www.w3.org/1999/xlink" x="0px" y="0px"
	 viewBox="0 0 313.4 243.5" style="enable-background:new 0 0 313.4 243.5;" xml:space="preserve">
<style type="text/css">
	.st0{fill-rule:evenodd;clip-rule:evenodd;fill:#066638;}
	.st1{fill:#066638;}
</style>
<g>
	<g>
		<ellipse class="st0" cx="156.7" cy="47.8" rx="12.9" ry="12.9"/>
		<path class="st0" d="M110.5,146.8c16.1-22.3,36.5-40.6,59.7-54.2c14.2-8.3,29.5-14.8,45.5-19.3c-18.3,2-36.2,6.5-53.1,13.5
			c-25,10.3-47.9,25.9-66.8,46.1C100.1,138.2,105,142.9,110.5,146.8L110.5,146.8z M218.6,117.7c4.6-8.9,10-17.4,16.2-25.3
			c-2.3,19.9-12,37.6-26.3,50.1C211.1,133.9,214.5,125.6,218.6,117.7L218.6,117.7z M200.2,119.7c8.6-11.1,18.4-21.4,29.2-30.4
			c-6.2,8.1-11.6,16.6-16.3,25.7c-5.5,10.7-9.8,22-12.9,33.7c-7.1,4.8-15.1,8.4-23.6,10.6C182.9,145.1,190.9,131.9,200.2,119.7
			L200.2,119.7z M186.4,108.7C199.6,96.7,214.9,87,231.5,80c-13.5,10.5-25.6,22.6-36,36.1c-10.5,13.7-19.3,28.7-26,44.8
			c-4.1,0.7-8.4,1-12.7,1c-3.1,0-6.1-0.2-9-0.5C157,141.1,170.2,123.2,186.4,108.7L186.4,108.7z M173.3,97.9
			c14.8-8.6,30.7-15.3,47.4-19.6c-14,6.9-26.8,15.6-38.3,25.9c-17.2,15.5-31.2,34.6-40.9,56.2c-9.3-1.8-18.1-5.3-25.9-10.2
			C131.1,128.7,150.8,111,173.3,97.9z"/>
		<path class="st0" d="M140.4,91.1c-13.4-7.5-27.7-13.5-42.7-17.7c17.9,1.9,35.3,6.3,51.8,13C146.4,87.8,143.4,89.4,140.4,91.1
			L140.4,91.1z M94.8,117.7c0.9,1.7,1.8,3.5,2.6,5.3c-1.7,1.7-3.5,3.4-5.2,5.2c-7.3-10.4-12.1-22.6-13.6-35.9
			C84.8,100.3,90.2,108.8,94.8,117.7L94.8,117.7z M102,118.6c2-1.8,4-3.6,6-5.3c-7.3-8.7-15.4-16.7-24.1-24
			c6.2,8.1,11.6,16.6,16.3,25.7C100.8,116.2,101.4,117.4,102,118.6L102,118.6z M112.7,109.5c2.7-2.1,5.4-4.2,8.1-6.1
			C109.1,93.9,96,85.9,81.9,80C93.2,88.7,103.5,98.6,112.7,109.5L112.7,109.5z M126,99.8c2.7-1.8,5.5-3.6,8.3-5.2
			c-13.1-7-27-12.5-41.6-16.3C104.7,84.1,115.8,91.4,126,99.8z"/>
		<path class="st0" d="M79.3,69.5C86.1,32,118.7,4.7,156.7,4.7c38.1,0,70.7,27.3,77.4,64.8c-9.8-34.6-41.4-58.6-77.4-58.6
			C120.7,10.9,89.1,34.8,79.3,69.5z"/>
		<path class="st0" d="M156.7,24.3L156.7,24.3c0.4,0,0.6,0.3,0.6,0.6v5.6c0,0.4-0.3,0.6-0.6,0.6l0,0c-0.4,0-0.6-0.3-0.6-0.6v-5.6
			C156.1,24.6,156.4,24.3,156.7,24.3z"/>
		<path class="st0" d="M162.8,25.1L162.8,25.1c0.3,0.1,0.6,0.4,0.5,0.8l-1.4,5.4c-0.1,0.3-0.4,0.6-0.8,0.5l0,0
			c-0.3-0.1-0.6-0.4-0.5-0.8l1.4-5.4C162.1,25.2,162.5,25,162.8,25.1z"/>
		<path class="st0" d="M168.5,27.4L168.5,27.4c0.3,0.2,0.4,0.6,0.2,0.9l-2.8,4.8c-0.2,0.3-0.6,0.4-0.9,0.2l0,0
			c-0.3-0.2-0.4-0.6-0.2-0.9l2.8-4.8C167.8,27.4,168.2,27.3,168.5,27.4z"/>
		<path class="st0" d="M173.3,31.2L173.3,31.2c0.3,0.3,0.3,0.7,0,0.9l-4,4c-0.3,0.3-0.7,0.3-0.9,0l0,0c-0.3-0.3-0.3-0.7,0-0.9l4-4
			C172.7,30.9,173.1,30.9,173.3,31.2z"/>
		<path class="st0" d="M177.1,36L177.1,36c0.2,0.3,0.1,0.7-0.2,0.9l-4.8,2.8c-0.3,0.2-0.7,0.1-0.9-0.2l0,0c-0.2-0.3-0.1-0.7,0.2-0.9
			l4.8-2.8C176.5,35.6,176.9,35.7,177.1,36z"/>
		<path class="st0" d="M179.4,41.7L179.4,41.7c0.1,0.3-0.1,0.7-0.5,0.8l-5.4,1.4c-0.3,0.1-0.7-0.1-0.8-0.5l0,0
			c-0.1-0.3,0.1-0.7,0.5-0.8l5.4-1.4C179,41.1,179.3,41.3,179.4,41.7z"/>
		<path class="st0" d="M180.2,47.8L180.2,47.8c0,0.4-0.3,0.6-0.6,0.6H174c-0.4,0-0.6-0.3-0.6-0.6l0,0c0-0.4,0.3-0.6,0.6-0.6h5.6
			C179.9,47.1,180.2,47.4,180.2,47.8z"/>
		<path class="st0" d="M179.4,53.8L179.4,53.8c-0.1,0.3-0.4,0.6-0.8,0.5l-5.4-1.5c-0.3-0.1-0.6-0.4-0.5-0.8l0,0
			c0.1-0.3,0.4-0.6,0.8-0.5l5.4,1.4C179.3,53.1,179.5,53.5,179.4,53.8z"/>
		<path class="st0" d="M177.1,59.5L177.1,59.5c-0.2,0.3-0.6,0.4-0.9,0.2l-4.8-2.8c-0.3-0.2-0.4-0.6-0.2-0.9l0,0
			c0.2-0.3,0.6-0.4,0.9-0.2l4.8,2.8C177.1,58.8,177.2,59.2,177.1,59.5z"/>
		<path class="st0" d="M173.3,64.3L173.3,64.3c-0.3,0.3-0.7,0.3-0.9,0l-4-4c-0.3-0.3-0.3-0.7,0-0.9l0,0c0.3-0.3,0.7-0.3,0.9,0l4,4
			C173.6,63.7,173.6,64.1,173.3,64.3z"/>
		<path class="st0" d="M168.5,68.1L168.5,68.1c-0.3,0.2-0.7,0.1-0.9-0.2l-2.8-4.8c-0.2-0.3-0.1-0.7,0.2-0.9l0,0
			c0.3-0.2,0.7-0.1,0.9,0.2l2.8,4.8C168.9,67.5,168.8,67.9,168.5,68.1z"/>
		<path class="st0" d="M162.8,70.4L162.8,70.4c-0.3,0.1-0.7-0.1-0.8-0.5l-1.4-5.4c-0.1-0.3,0.1-0.7,0.5-0.8l0,0
			c0.3-0.1,0.7,0.1,0.8,0.5l1.4,5.4C163.4,70,163.2,70.3,162.8,70.4z"/>
		<path class="st0" d="M156.7,71.2L156.7,71.2c-0.4,0-0.6-0.3-0.6-0.6V65c0-0.4,0.3-0.6,0.6-0.6l0,0c0.4,0,0.6,0.3,0.6,0.6v5.6
			C157.4,70.9,157.1,71.2,156.7,71.2z"/>
		<path class="st0" d="M150.7,70.4L150.7,70.4c-0.3-0.1-0.6-0.4-0.5-0.8l1.5-5.4c0.1-0.3,0.4-0.6,0.8-0.5l0,0
			c0.3,0.1,0.6,0.4,0.5,0.8l-1.4,5.4C151.4,70.3,151,70.5,150.7,70.4z"/>
		<path class="st0" d="M145,68.1L145,68.1c-0.3-0.2-0.4-0.6-0.2-0.9l2.8-4.8c0.2-0.3,0.6-0.4,0.9-0.2l0,0c0.3,0.2,0.4,0.6,0.2,0.9
			l-2.8,4.8C145.7,68.1,145.3,68.3,145,68.1z"/>
		<path class="st0" d="M140.2,64.3L140.2,64.3c-0.3-0.3-0.3-0.7,0-0.9l4-4c0.3-0.3,0.7-0.3,0.9,0l0,0c0.3,0.3,0.3,0.7,0,0.9l-4,4
			C140.8,64.6,140.4,64.6,140.2,64.3z"/>
		<path class="st0" d="M136.4,59.5L136.4,59.5c-0.2-0.3-0.1-0.7,0.2-0.9l4.8-2.8c0.3-0.2,0.7-0.1,0.9,0.2l0,0
			c0.2,0.3,0.1,0.7-0.2,0.9l-4.8,2.8C137,59.9,136.6,59.8,136.4,59.5z"/>
		<path class="st0" d="M134.1,53.8L134.1,53.8c-0.1-0.3,0.1-0.7,0.5-0.8l5.4-1.4c0.3-0.1,0.7,0.1,0.8,0.5l0,0
			c0.1,0.3-0.1,0.7-0.5,0.8l-5.4,1.5C134.5,54.4,134.2,54.2,134.1,53.8z"/>
		<path class="st0" d="M133.3,47.8L133.3,47.8c0-0.4,0.3-0.6,0.6-0.6h5.6c0.4,0,0.6,0.3,0.6,0.6l0,0c0,0.4-0.3,0.6-0.6,0.6h-5.6
			C133.6,48.4,133.3,48.1,133.3,47.8z"/>
		<path class="st0" d="M134.1,41.7L134.1,41.7c0.1-0.3,0.4-0.6,0.8-0.5l5.4,1.4c0.3,0.1,0.6,0.4,0.5,0.8l0,0
			c-0.1,0.3-0.4,0.6-0.8,0.5l-5.4-1.4C134.2,42.4,134,42,134.1,41.7z"/>
		<path class="st0" d="M136.4,36L136.4,36c0.2-0.3,0.6-0.4,0.9-0.2l4.8,2.8c0.3,0.2,0.4,0.6,0.2,0.9l0,0c-0.2,0.3-0.6,0.4-0.9,0.2
			l-4.8-2.8C136.4,36.7,136.2,36.3,136.4,36z"/>
		<path class="st0" d="M140.2,31.2L140.2,31.2c0.3-0.3,0.7-0.3,0.9,0l4,4c0.3,0.3,0.3,0.7,0,0.9l0,0c-0.3,0.3-0.7,0.3-0.9,0l-4-4
			C139.9,31.8,139.9,31.4,140.2,31.2z"/>
		<path class="st0" d="M145,27.4L145,27.4c0.3-0.2,0.7-0.1,0.9,0.2l2.8,4.8c0.2,0.3,0.1,0.7-0.2,0.9l0,0c-0.3,0.2-0.7,0.1-0.9-0.2
			l-2.8-4.8C144.6,28,144.7,27.6,145,27.4z"/>
		<path class="st0" d="M150.7,25.1L150.7,25.1c0.3-0.1,0.7,0.1,0.8,0.5l1.4,5.4c0.1,0.3-0.1,0.7-0.5,0.8l0,0
			c-0.3,0.1-0.7-0.1-0.8-0.5l-1.5-5.4C150.1,25.5,150.3,25.2,150.7,25.1z"/>
	</g>
	<g>
		<rect x="8.4" y="232.3" class="st0" width="62.4" height="0.9"/>
		<rect x="242.6" y="232.3" class="st0" width="62.4" height="0.9"/>
		<g>
			<path class="st1" d="M25.4,181.9c-0.1-2.1-0.2-4.1-0.4-6.2c2,0,4,0.1,6,0.1c2,0.1,4,0.1,6,0.1c3.3,0,6.2,0,8.8-0.1
				c2.6,0,4.3-0.1,5.2-0.2c-0.2,0.5-0.3,1.2-0.3,2c0,0.5,0,0.9,0.1,1.2c0,0.3,0.1,0.6,0.2,1c-1.3-0.1-2.7-0.1-4.3-0.2
				c-1.5-0.1-3-0.1-4.5-0.2c-1.5-0.1-2.8-0.1-3.9-0.1c-1.2,0-2,0-2.5,0c-0.2,1.8-0.3,3.5-0.3,5.2c0,1.7,0,3.5,0,5.2
				c2.9,0,5.5-0.1,7.9-0.1c2.4-0.1,4.8-0.1,7.4-0.2c-0.1,0.5-0.2,1-0.3,1.2c0,0.3-0.1,0.6-0.1,0.9c0,0.3,0,0.5,0.1,0.8
				c0.1,0.3,0.1,0.7,0.2,1.2c-5.1-0.3-10.2-0.4-15.2-0.4c0,1,0,2,0,3.1c0,1,0,2,0,3.1c0,2.1,0.1,4.1,0.2,6c2.5,0,5.1,0,7.7-0.1
				c2.5-0.1,5.1-0.3,7.7-0.5c-0.1,0.3-0.2,0.7-0.2,1c0,0.3-0.1,0.7-0.1,1.2c0,0.5,0,0.9,0.1,1.2c0,0.3,0.1,0.5,0.2,0.7
				c-1.2,0-2.7-0.1-4.5-0.1c-1.8,0-4.2,0-7.3,0c-2.7,0-4.9,0-6.6,0c-1.7,0-3,0-4,0s-1.8,0-2.3,0c-0.5,0-0.9,0-1.3,0.1
				c0.2-2,0.3-4,0.4-6.1c0.1-2.1,0.1-4.4,0.1-7.1V189C25.5,186.3,25.5,184,25.4,181.9z"/>
			<path class="st1" d="M80,195.4v5.3H63.2v-5.3H80z"/>
			<path class="st1" d="M95.6,181.9c-0.1-2.1-0.2-4.1-0.4-6.2c0.8,0.1,1.6,0.1,2.5,0.2c0.9,0,1.9,0.1,3,0.1c1.1,0,2.1,0,3-0.1
				c0.9,0,1.7-0.1,2.5-0.2c-0.2,2.1-0.3,4.1-0.4,6.2c-0.1,2.1-0.1,4.4-0.1,7.1v6.5c0,2.6,0,5,0.1,7.1c0.1,2.1,0.2,4.1,0.4,6.1
				c-0.8-0.1-1.6-0.1-2.5-0.1c-0.9,0-1.9,0-3,0c-1.1,0-2.1,0-3,0c-0.9,0-1.7,0-2.5,0.1c0.2-2,0.3-4,0.4-6.1c0.1-2.1,0.1-4.4,0.1-7.1
				V189C95.7,186.3,95.7,184,95.6,181.9z"/>
			<path class="st1" d="M121.4,213.2c0.6-0.3,1.1-0.6,1.5-1c0.4-0.4,0.7-0.9,0.9-1.4c0.2-0.6,0.3-1.3,0.4-2.2c0.2-2,0.3-4,0.4-6.1
				c0.1-2.1,0.1-4.4,0.1-7.1V189c0-2.6,0-5-0.1-7.1c-0.1-2.1-0.2-4.1-0.4-6.2c0.8,0.1,1.6,0.1,2.5,0.2c0.9,0,1.9,0.1,3,0.1
				c1.1,0,2.1,0,3-0.1c0.9,0,1.7-0.1,2.5-0.2c-0.2,2.1-0.3,4.1-0.4,6.2c-0.1,2.1-0.1,4.4-0.1,7.1v6.5c0,1.3,0,2.7,0.1,4.2
				c0,1.5,0.1,3,0.1,4.5c0,3.7-1.2,6.5-3.7,8.4c-2.5,1.9-6.2,3.1-11.1,3.7l-1-2.2C120,213.8,120.7,213.5,121.4,213.2z"/>
			<path class="st1" d="M190.3,208.6c-1.1-0.1-2.1-0.1-3.1-0.1c-1,0-1.9,0-2.8,0s-1.9,0-2.8,0c-1,0-1.9,0-2.8,0.1
				c-0.7-1.6-1.5-3.2-2.2-4.8c-0.8-1.6-1.6-3.3-2.4-4.9c-1.4,0-2.9-0.1-4.3-0.1c-1.4,0-2.9,0-4.3,0c-1.2,0-2.3,0-3.5,0
				c-1.2,0-2.3,0-3.5,0.1c-0.9,1.6-1.7,3.3-2.5,4.9c-0.8,1.6-1.5,3.2-2.1,4.8c-0.5-0.1-1.1-0.1-1.6-0.1s-1,0-1.6,0s-1.1,0-1.6,0
				c-0.5,0-1.1,0-1.7,0.1c0.5-0.8,1.2-2,2.2-3.4c0.9-1.5,1.9-3.1,3-5c1.1-1.9,2.2-3.8,3.5-6c1.2-2.1,2.5-4.3,3.7-6.4
				s2.4-4.3,3.6-6.4s2.3-4.1,3.3-5.9c0.4,0.1,0.9,0.1,1.3,0.2c0.4,0,0.8,0.1,1.3,0.1c0.4,0,0.9,0,1.3-0.1c0.4,0,0.8-0.1,1.3-0.2
				c1.4,2.7,3,5.6,4.6,8.7c1.6,3.1,3.3,6.1,4.9,9.1c1.7,3,3.3,5.8,4.8,8.5C187.5,204.5,189,206.7,190.3,208.6z M166.5,184.7
				c-1.2,1.9-2.3,3.8-3.3,5.7c-1,1.9-2,3.8-3,5.7h12.3c-1-1.9-2-3.9-2.9-5.7C168.6,188.5,167.6,186.6,166.5,184.7z"/>
			<path class="st1" d="M213.8,193.5v2c0,2.6,0,5,0.1,7.1c0.1,2.1,0.2,4.1,0.4,6.1c-0.8-0.1-1.6-0.1-2.5-0.1s-1.9,0-3,0s-2.1,0-3,0
				c-0.9,0-1.7,0-2.5,0.1c0.2-2,0.3-4,0.4-6.1c0.1-2.1,0.1-4.4,0.1-7.1V189c0-2.6,0-5-0.1-7.1c-0.1-2.1-0.2-4.1-0.4-6.2
				c0.8,0.1,1.6,0.1,2.5,0.2c0.9,0,1.9,0.1,3,0.1c1.2,0,2.6,0,4.1-0.1c1.5-0.1,3.5-0.1,5.7-0.1c1.7,0,3.2,0,4.4,0.1
				c1.2,0.1,2.2,0.2,3.1,0.3s1.6,0.3,2.3,0.5c0.6,0.2,1.3,0.5,1.9,0.7c1.3,0.7,2.4,1.6,3.2,2.6c0.8,1,1.2,2.3,1.2,3.7
				c0,2.3-0.9,4.2-2.7,5.7c-1.8,1.5-4.4,2.5-7.7,3.1c2.2,2.7,4.5,5.4,6.9,8.1s4.9,5.4,7.4,8c-1-0.1-2-0.1-3-0.1c-1,0-2,0-3,0
				c-1,0-2,0-3.1,0c-1,0-2,0-3.1,0.1l-12-15.1L213.8,193.5L213.8,193.5z M224.4,184.7c0-1.4-0.2-2.5-0.6-3.4c-0.4-0.8-1-1.5-1.9-1.9
				c-0.8-0.4-1.9-0.7-3.2-0.8c-1.3-0.1-2.9-0.2-4.7-0.2c-0.1,4.3-0.2,8.7-0.2,13c0.3,0,0.5,0.1,0.8,0.1c0.2,0,0.5,0,0.7,0
				c3,0,5.2-0.6,6.8-1.7C223.6,188.7,224.4,187,224.4,184.7z"/>
			<path class="st1" d="M289.5,208.6c-1.1-0.1-2.1-0.1-3.1-0.1s-1.9,0-2.8,0c-0.9,0-1.9,0-2.8,0c-1,0-1.9,0-2.8,0.1
				c-0.7-1.6-1.5-3.2-2.2-4.8c-0.8-1.6-1.6-3.3-2.4-4.9c-1.4,0-2.9-0.1-4.3-0.1c-1.4,0-2.9,0-4.3,0c-1.2,0-2.3,0-3.5,0
				s-2.3,0-3.5,0.1c-0.9,1.6-1.7,3.3-2.5,4.9c-0.8,1.6-1.5,3.2-2.1,4.8c-0.5-0.1-1.1-0.1-1.6-0.1c-0.5,0-1,0-1.6,0s-1.1,0-1.6,0
				c-0.5,0-1.1,0-1.7,0.1c0.5-0.8,1.2-2,2.2-3.4c0.9-1.5,1.9-3.1,3-5c1.1-1.9,2.2-3.8,3.5-6c1.2-2.1,2.5-4.3,3.7-6.4
				s2.4-4.3,3.6-6.4s2.3-4.1,3.3-5.9c0.4,0.1,0.9,0.1,1.3,0.2s0.8,0.1,1.3,0.1c0.4,0,0.9,0,1.3-0.1c0.4,0,0.8-0.1,1.3-0.2
				c1.4,2.7,3,5.6,4.6,8.7c1.6,3.1,3.3,6.1,4.9,9.1c1.7,3,3.3,5.8,4.8,8.5C286.7,204.5,288.2,206.7,289.5,208.6z M265.7,184.7
				c-1.2,1.9-2.3,3.8-3.3,5.7c-1,1.9-2,3.8-3,5.7h12.3c-1-1.9-2-3.9-2.9-5.7C267.8,188.5,266.8,186.6,265.7,184.7z"/>
		</g>
		<g>
			<path class="st1" d="M81.4,229.3c0.5-0.4,1-0.7,1.4-0.8c0.4-0.1,0.9-0.2,1.4-0.2c0.4,0,0.8,0.1,1.2,0.2c0.3,0.1,0.6,0.3,0.9,0.5
				c0.2,0.2,0.4,0.5,0.6,0.8c0.1,0.3,0.2,0.7,0.2,1.1c0,0.7,0,1.3,0,2c0,0.7,0,1.4,0,2.1c0,0.1,0,0.3,0,0.4c0,0.2,0,0.3,0.1,0.4
				s0.1,0.2,0.2,0.3s0.2,0.1,0.4,0.1c0.1,0,0.1,0,0.2,0c0.1,0,0.1,0,0.2-0.1v0.4c-0.1,0.1-0.3,0.1-0.5,0.1c-0.2,0-0.4,0-0.6,0
				c-0.4,0-0.7-0.1-0.9-0.3c-0.2-0.2-0.3-0.4-0.3-0.7c-0.4,0.4-0.8,0.7-1.2,0.9c-0.4,0.2-0.9,0.3-1.5,0.3c-0.3,0-0.6,0-0.9-0.1
				c-0.3-0.1-0.5-0.2-0.7-0.4c-0.2-0.2-0.4-0.4-0.5-0.7c-0.1-0.3-0.2-0.6-0.2-0.9c0-0.7,0.2-1.2,0.7-1.6c0.4-0.4,1-0.6,1.8-0.8
				c0.6-0.1,1.1-0.2,1.5-0.3c0.4-0.1,0.6-0.2,0.8-0.2s0.3-0.2,0.3-0.3c0-0.1,0-0.3,0-0.4c0-0.3,0-0.6-0.1-0.8
				c-0.1-0.3-0.2-0.5-0.3-0.7c-0.2-0.2-0.3-0.4-0.6-0.5c-0.2-0.1-0.5-0.2-0.9-0.2c-0.5,0-0.9,0.1-1.3,0.3c-0.4,0.2-0.7,0.5-0.9,0.9
				h-0.2L81.4,229.3L81.4,229.3z M85.8,232.4c-0.2,0.1-0.4,0.1-0.7,0.2s-0.5,0.1-0.8,0.1c-0.3,0-0.5,0.1-0.8,0.2
				c-0.3,0.1-0.5,0.2-0.7,0.3c-0.2,0.1-0.4,0.3-0.5,0.5c-0.1,0.2-0.2,0.5-0.2,0.8c0,0.5,0.2,1,0.5,1.2c0.3,0.3,0.7,0.4,1,0.4
				c0.4,0,0.8-0.1,1.2-0.4c0.4-0.2,0.6-0.5,0.8-0.9L85.8,232.4z"/>
			<path class="st1" d="M96.7,231.7c0.4-0.6,0.8-1.1,1.2-1.6c0.4-0.5,0.8-1.1,1.2-1.6c0.1,0,0.2,0,0.3,0.1s0.2,0,0.3,0
				c0.1,0,0.3,0,0.6-0.1c-0.6,0.6-1.1,1.3-1.6,1.9c-0.5,0.6-1.1,1.2-1.6,1.9c0.5,0.8,1.1,1.5,1.6,2.3c0.6,0.7,1.1,1.5,1.7,2.2
				c-0.2,0-0.3,0-0.5,0c-0.2,0-0.3,0-0.4,0s-0.3,0-0.4,0c-0.2,0-0.3,0-0.5,0c-0.4-0.6-0.8-1.1-1.2-1.7c-0.4-0.6-0.8-1.2-1.2-1.8
				c-0.4,0.6-0.9,1.2-1.3,1.8c-0.4,0.6-0.8,1.2-1.2,1.7c-0.2,0-0.4,0-0.6,0c-0.2,0-0.4,0-0.6,0c0.6-0.6,1.1-1.3,1.6-2
				s1.1-1.4,1.6-2.1c-0.5-0.7-1-1.4-1.6-2.1s-1.1-1.4-1.6-2.1c0.2,0,0.3,0,0.5,0.1c0.1,0,0.3,0,0.5,0s0.3,0,0.5,0s0.3,0,0.5-0.1
				c0.3,0.6,0.7,1.1,1.1,1.6S96.3,231.2,96.7,231.7z"/>
			<path class="st1" d="M113.3,232.4c0,0.7-0.1,1.3-0.3,1.9c-0.2,0.6-0.5,1-0.8,1.4c-0.4,0.4-0.8,0.7-1.3,0.9s-1,0.3-1.6,0.3
				c-0.6,0-1.1-0.1-1.5-0.4c-0.4-0.2-0.8-0.5-1-0.9c-0.4,0.3-0.8,0.7-1.2,1h-0.3c0-0.3,0-0.6,0.1-1c0-0.4,0-0.8,0-1.3
				c0-0.4,0-0.9,0-1.4c0-0.5,0-0.9,0-1.3v-3.2c0-0.4,0-0.8,0-1.3c0-0.5,0-0.9,0-1.4c0-0.5,0-0.9,0-1.3c0-0.4,0-0.8-0.1-1.1
				c0.3,0.1,0.6,0.1,0.8,0.1c0.1,0,0.3,0,0.4,0s0.3,0,0.5-0.1c0,0.2-0.1,0.6-0.1,1.1c0,0.5,0,1.1,0,1.7c0,0.6,0,1.3,0,1.9
				c0,0.7,0,1.2,0,1.8h0c0.4-0.6,0.8-1.1,1.3-1.4c0.5-0.3,1-0.4,1.7-0.4c0.6,0,1.1,0.1,1.6,0.3s0.8,0.5,1.1,0.9
				c0.3,0.4,0.5,0.8,0.7,1.3C113.2,231.3,113.3,231.8,113.3,232.4z M111.8,232.3c0-0.5-0.1-1-0.2-1.4c-0.1-0.4-0.3-0.8-0.5-1
				s-0.5-0.5-0.7-0.6c-0.3-0.1-0.6-0.2-0.9-0.2c-0.4,0-0.7,0.1-1,0.2c-0.3,0.1-0.6,0.4-0.9,0.7c-0.2,0.3-0.4,0.7-0.6,1.2
				s-0.2,1.1-0.2,1.8c0,2.3,0.9,3.5,2.5,3.5c0.4,0,0.7-0.1,1-0.3c0.3-0.2,0.6-0.5,0.8-0.8c0.2-0.4,0.4-0.8,0.5-1.3
				C111.7,233.5,111.8,232.9,111.8,232.3z"/>
			<path class="st1" d="M118.1,232.6c0-0.8,0.1-1.5,0.4-2c0.3-0.6,0.6-1,1-1.3c0.4-0.3,0.9-0.6,1.4-0.7c0.5-0.2,1-0.2,1.5-0.2
				c0.5,0,1,0.1,1.5,0.2c0.5,0.2,0.9,0.4,1.4,0.7c0.4,0.3,0.7,0.8,1,1.3c0.3,0.6,0.4,1.2,0.4,2c0,0.8-0.1,1.5-0.4,2
				c-0.3,0.6-0.6,1-1,1.3c-0.4,0.3-0.9,0.6-1.4,0.7c-0.5,0.1-1,0.2-1.5,0.2c-0.5,0-1-0.1-1.5-0.2c-0.5-0.1-1-0.4-1.4-0.7
				c-0.4-0.3-0.7-0.8-1-1.3C118.3,234.1,118.1,233.4,118.1,232.6z M119.7,232.6c0,0.5,0,1,0.1,1.4c0.1,0.5,0.2,0.9,0.4,1.2
				c0.2,0.4,0.5,0.6,0.8,0.8c0.3,0.2,0.8,0.3,1.3,0.3c0.5,0,0.9-0.1,1.3-0.3c0.3-0.2,0.6-0.5,0.8-0.8c0.2-0.3,0.4-0.8,0.4-1.2
				c0.1-0.5,0.1-0.9,0.1-1.4s0-1-0.1-1.4c-0.1-0.5-0.2-0.9-0.4-1.2s-0.5-0.6-0.8-0.8c-0.3-0.2-0.8-0.3-1.3-0.3
				c-0.5,0-0.9,0.1-1.3,0.3c-0.3,0.2-0.6,0.5-0.8,0.8c-0.2,0.4-0.4,0.8-0.4,1.2C119.7,231.7,119.7,232.1,119.7,232.6z"/>
			<path class="st1" d="M135.7,229.7c-0.2-0.1-0.3-0.1-0.5-0.1c-0.3,0-0.5,0.1-0.7,0.2c-0.2,0.1-0.4,0.3-0.6,0.5
				c-0.2,0.2-0.3,0.5-0.3,0.8c-0.1,0.3-0.1,0.6-0.1,0.9v1.9c0,0.8,0,1.4,0,1.8c0,0.4,0,0.7,0.1,1c-0.2,0-0.5,0-0.7,0
				c-0.3,0-0.5,0-0.7,0c0-0.4,0.1-0.9,0.1-1.6s0-1.5,0-2.5v-0.6c0-0.5,0-1,0-1.6c0-0.6,0-1.3-0.1-2c0.1,0,0.3,0,0.4,0.1
				c0.1,0,0.2,0,0.4,0c0.1,0,0.2,0,0.3,0c0.1,0,0.2,0,0.4-0.1c0,0.4-0.1,0.7-0.1,1s0,0.5,0,0.7l0,0c0.7-1.3,1.5-1.9,2.3-1.9
				c0.1,0,0.2,0,0.3,0c0.1,0,0.2,0,0.3,0.1c-0.1,0.1-0.1,0.3-0.1,0.6c0,0.3,0,0.5,0,0.8l-0.1,0.1C136,229.8,135.9,229.7,135.7,229.7
				z"/>
			<path class="st1" d="M140.6,232.6c0-0.8,0.1-1.5,0.4-2c0.3-0.6,0.6-1,1-1.3c0.4-0.3,0.9-0.6,1.4-0.7c0.5-0.2,1-0.2,1.5-0.2
				c0.5,0,1,0.1,1.5,0.2c0.5,0.2,0.9,0.4,1.4,0.7c0.4,0.3,0.7,0.8,1,1.3c0.3,0.6,0.4,1.2,0.4,2c0,0.8-0.1,1.5-0.4,2
				c-0.3,0.6-0.6,1-1,1.3c-0.4,0.3-0.9,0.6-1.4,0.7c-0.5,0.1-1,0.2-1.5,0.2c-0.5,0-1-0.1-1.5-0.2c-0.5-0.1-1-0.4-1.4-0.7
				c-0.4-0.3-0.7-0.8-1-1.3C140.8,234.1,140.6,233.4,140.6,232.6z M142.2,232.6c0,0.5,0,1,0.1,1.4c0.1,0.5,0.2,0.9,0.4,1.2
				c0.2,0.4,0.5,0.6,0.8,0.8c0.3,0.2,0.8,0.3,1.3,0.3c0.5,0,0.9-0.1,1.3-0.3c0.3-0.2,0.6-0.5,0.8-0.8c0.2-0.3,0.4-0.8,0.4-1.2
				c0.1-0.5,0.1-0.9,0.1-1.4s0-1-0.1-1.4c-0.1-0.5-0.2-0.9-0.4-1.2s-0.5-0.6-0.8-0.8c-0.3-0.2-0.8-0.3-1.3-0.3
				c-0.5,0-0.9,0.1-1.3,0.3c-0.3,0.2-0.6,0.5-0.8,0.8c-0.2,0.4-0.4,0.8-0.4,1.2C142.2,231.7,142.2,232.1,142.2,232.6z"/>
			<path class="st1" d="M156.1,226.1c0,0.4-0.1,0.9-0.1,1.3c0,0.4,0,0.9-0.1,1.3c0.1,0,0.4,0,0.7,0c0.3,0,0.7,0,1.1,0
				c0,0,0,0.1,0,0.2v0.2v0.2c0,0.1,0,0.1,0,0.2c-0.2,0-0.3,0-0.5,0c-0.2,0-0.3,0-0.5,0H156c0,0,0,0.2,0,0.6c0,0.3,0,0.7,0,1.2
				c0,0.4,0,0.9,0,1.4c0,0.5,0,0.9,0,1.3c0,0.3,0,0.6,0,1c0,0.3,0.1,0.6,0.2,0.8c0.1,0.3,0.2,0.4,0.4,0.6c0.2,0.2,0.5,0.2,0.8,0.2
				c0.1,0,0.2,0,0.4,0c0.2,0,0.3,0,0.4-0.1v0.4c-0.2,0-0.4,0.1-0.6,0.1c-0.2,0-0.5,0.1-0.7,0.1c-0.7,0-1.3-0.2-1.6-0.5
				s-0.5-0.9-0.5-1.6c0-0.3,0-0.6,0-1c0-0.4,0-0.8,0-1.2c0-0.4,0-0.9,0-1.4s0-1.1,0-1.8h-0.6c-0.1,0-0.2,0-0.3,0c-0.1,0-0.2,0-0.3,0
				c0-0.1,0-0.1,0-0.2c0-0.1,0-0.1,0-0.2c0-0.1,0-0.1,0-0.2c0-0.1,0-0.1,0-0.2c0.5,0,0.9,0,1.2,0c0-0.2,0-0.5,0-0.9
				c0-0.3,0-0.7,0-1.1L156.1,226.1L156.1,226.1L156.1,226.1z"/>
			<path class="st1" d="M172.8,226.1c0,0.4-0.1,0.9-0.1,1.3s0,0.9-0.1,1.3c0.1,0,0.4,0,0.7,0s0.7,0,1.1,0c0,0,0,0.1,0,0.2v0.2v0.2
				c0,0.1,0,0.1,0,0.2c-0.2,0-0.3,0-0.5,0c-0.2,0-0.3,0-0.5,0h-0.9c0,0,0,0.2,0,0.6c0,0.3,0,0.7,0,1.2c0,0.4,0,0.9,0,1.4
				c0,0.5,0,0.9,0,1.3c0,0.3,0,0.6,0,1s0.1,0.6,0.2,0.8c0.1,0.3,0.2,0.4,0.4,0.6c0.2,0.2,0.5,0.2,0.8,0.2c0.1,0,0.2,0,0.4,0
				c0.2,0,0.3,0,0.4-0.1v0.4c-0.2,0-0.4,0.1-0.6,0.1c-0.2,0-0.5,0.1-0.7,0.1c-0.7,0-1.3-0.2-1.6-0.5c-0.3-0.4-0.5-0.9-0.5-1.6
				c0-0.3,0-0.6,0-1c0-0.4,0-0.8,0-1.2c0-0.4,0-0.9,0-1.4c0-0.5,0-1.1,0-1.8h-0.6c-0.1,0-0.2,0-0.3,0c-0.1,0-0.2,0-0.3,0
				c0-0.1,0-0.1,0-0.2c0-0.1,0-0.1,0-0.2c0-0.1,0-0.1,0-0.2c0-0.1,0-0.1,0-0.2c0.5,0,0.9,0,1.2,0c0-0.2,0-0.5,0-0.9
				c0-0.3,0-0.7,0-1.1L172.8,226.1L172.8,226.1L172.8,226.1z"/>
			<path class="st1" d="M179.7,225.4c0-0.2,0.1-0.5,0.3-0.6c0.2-0.2,0.4-0.3,0.6-0.3s0.5,0.1,0.6,0.3c0.2,0.2,0.3,0.4,0.3,0.6
				c0,0.2-0.1,0.5-0.3,0.6c-0.2,0.2-0.4,0.3-0.6,0.3s-0.5-0.1-0.6-0.3C179.8,225.9,179.7,225.7,179.7,225.4z M180,231.7
				c0-0.5,0-1.1,0-1.6s-0.1-1.1-0.1-1.6c0.3,0.1,0.6,0.1,0.8,0.1c0.2,0,0.5,0,0.8-0.1c-0.1,0.5-0.1,1-0.1,1.6c0,0.6,0,1.1,0,1.6v1.8
				c0,0.5,0,1.1,0,1.6s0.1,1.1,0.1,1.6c-0.3,0-0.5,0-0.8,0c-0.3,0-0.5,0-0.8,0c0.1-0.5,0.1-1,0.1-1.6c0-0.6,0-1.1,0-1.6V231.7z"/>
			<path class="st1" d="M188.7,234.6c0.5-0.7,1-1.4,1.5-2c0.5-0.7,1-1.3,1.4-1.9c0.4-0.6,0.8-1.1,1.1-1.5c-0.1,0-0.3,0-0.7,0
				c-0.4,0-0.8,0-1.3,0.1c-0.5,0-1,0.1-1.5,0.1c-0.5,0-0.9,0.1-1.2,0.1c0-0.2,0-0.3,0-0.5s0-0.3,0-0.5c0.4,0,0.9,0.1,1.6,0.1
				c0.7,0,1.6,0,2.7,0c0.2,0,0.5,0,0.7,0c0.2,0,0.4,0,0.6,0c0.2,0,0.3,0,0.5,0c0.2,0,0.3,0,0.5,0v0.3c-0.5,0.6-1,1.3-1.5,2
				c-0.6,0.7-1.1,1.4-1.6,2.1c-0.5,0.7-1,1.3-1.4,1.9c-0.4,0.6-0.8,1-1,1.3c0.5,0,0.9,0,1.3,0c0.4,0,0.8,0,1.2,0s0.8,0,1.3-0.1
				c0.5,0,1-0.1,1.6-0.1c0,0.1-0.1,0.3-0.1,0.5s0,0.3,0.1,0.4c-0.7,0-1.5,0-2.2,0c-0.7,0-1.4,0-2.2,0c-0.5,0-1,0-1.5,0
				c-0.5,0-1,0-1.5,0v-0.2C187.6,235.9,188.2,235.3,188.7,234.6z"/>
			<path class="st1" d="M200.3,225.4c0-0.2,0.1-0.5,0.3-0.6s0.4-0.3,0.6-0.3c0.2,0,0.5,0.1,0.6,0.3c0.2,0.2,0.3,0.4,0.3,0.6
				c0,0.2-0.1,0.5-0.3,0.6c-0.2,0.2-0.4,0.3-0.6,0.3c-0.2,0-0.5-0.1-0.6-0.3S200.3,225.7,200.3,225.4z M200.5,231.7
				c0-0.5,0-1.1,0-1.6s-0.1-1.1-0.1-1.6c0.3,0.1,0.6,0.1,0.8,0.1c0.2,0,0.5,0,0.8-0.1c-0.1,0.5-0.1,1-0.1,1.6c0,0.6,0,1.1,0,1.6v1.8
				c0,0.5,0,1.1,0,1.6s0.1,1.1,0.1,1.6c-0.3,0-0.5,0-0.8,0c-0.3,0-0.5,0-0.8,0c0.1-0.5,0.1-1,0.1-1.6c0-0.6,0-1.1,0-1.6V231.7z"/>
			<path class="st1" d="M208.4,230.1c0-0.6-0.1-1.1-0.1-1.6c0.3,0.1,0.6,0.1,0.8,0.1c0.1,0,0.2,0,0.3,0c0.1,0,0.2,0,0.4-0.1
				c0,0.5,0,0.9,0,1.4h0c0.6-1,1.5-1.6,2.6-1.6c0.3,0,0.6,0,0.9,0.1c0.3,0.1,0.5,0.2,0.8,0.4c0.2,0.2,0.4,0.3,0.6,0.6
				c0.2,0.2,0.3,0.4,0.3,0.7h0c0.3-0.6,0.7-1,1.1-1.3c0.5-0.3,1-0.4,1.7-0.4c0.4,0,0.7,0,1.1,0.2c0.3,0.1,0.6,0.3,0.8,0.5
				c0.2,0.2,0.4,0.5,0.6,0.9c0.1,0.3,0.2,0.8,0.2,1.3c0,0.2,0,0.4,0,0.6c0,0.2,0,0.5,0,0.8c0,0.3,0,0.7,0,1c0,0.4,0,0.8,0,1.3
				c0,0.3,0,0.6,0,0.9c0,0.3,0,0.6,0,0.9c-0.1,0-0.3,0-0.4,0c-0.1,0-0.3,0-0.4,0c-0.1,0-0.3,0-0.4,0c-0.1,0-0.3,0-0.4,0
				c0-0.3,0.1-0.9,0.1-1.8s0.1-2.1,0.1-3.7c0-0.3,0-0.6-0.1-0.8c-0.1-0.3-0.2-0.5-0.3-0.7c-0.1-0.2-0.3-0.3-0.6-0.4
				c-0.2-0.1-0.5-0.2-0.9-0.2c-0.4,0-0.8,0.1-1.1,0.2c-0.3,0.2-0.5,0.4-0.7,0.6c-0.1,0.1-0.2,0.3-0.2,0.4c0,0.1-0.1,0.3-0.1,0.6
				c0,0.3,0,0.6-0.1,1.1c0,0.5,0,1.1,0,1.9c0,0.5,0,1,0,1.4c0,0.4,0,0.9,0.1,1.4c-0.3,0-0.5,0-0.8,0c-0.2,0-0.5,0-0.8,0
				c0.1-0.6,0.1-1.3,0.1-2c0-0.7,0-1.3,0-2c0-0.5,0-1,0-1.3c0-0.3,0-0.6,0-0.7c0-0.2-0.1-0.3-0.1-0.4s-0.1-0.2-0.2-0.4
				c-0.1-0.2-0.3-0.4-0.6-0.6c-0.3-0.2-0.6-0.2-0.8-0.2c-0.8,0-1.3,0.3-1.7,0.7c-0.4,0.5-0.5,1.2-0.5,2.1v1.5c0,0.5,0,1.1,0,1.6
				c0,0.6,0.1,1.1,0.1,1.6c-0.3,0-0.5,0-0.8,0s-0.5,0-0.8,0c0.1-0.5,0.1-1,0.1-1.6c0-0.6,0-1.1,0-1.6v-1.8
				C208.5,231.2,208.4,230.6,208.4,230.1z"/>
			<path class="st1" d="M226.6,225.4c0-0.2,0.1-0.5,0.3-0.6s0.4-0.3,0.6-0.3c0.2,0,0.5,0.1,0.6,0.3c0.2,0.2,0.3,0.4,0.3,0.6
				c0,0.2-0.1,0.5-0.3,0.6c-0.2,0.2-0.4,0.3-0.6,0.3c-0.2,0-0.5-0.1-0.6-0.3S226.6,225.7,226.6,225.4z M226.9,231.7
				c0-0.5,0-1.1,0-1.6c0-0.6-0.1-1.1-0.1-1.6c0.3,0.1,0.6,0.1,0.8,0.1s0.5,0,0.8-0.1c-0.1,0.5-0.1,1-0.1,1.6c0,0.6,0,1.1,0,1.6v1.8
				c0,0.5,0,1.1,0,1.6s0.1,1.1,0.1,1.6c-0.3,0-0.5,0-0.8,0s-0.5,0-0.8,0c0.1-0.5,0.1-1,0.1-1.6c0-0.6,0-1.1,0-1.6V231.7z"/>
		</g>
	</g>
</g>
</svg>
