<?xml version="1.0" encoding="utf-8"?>
<!-- Generator: Adobe Illustrator 23.0.3, SVG Export Plug-In . SVG Version: 6.00 Build 0)  -->
<svg version="1.1" id="Слой_1" xmlns="http://www.w3.org/2000/svg" xmlns:xlink="http://www.w3.org/1999/xlink" x="0px" y="0px"
	 viewBox="0 0 74.07 43.67" style="enable-background:new 0 0 74.07 43.67;" xml:space="preserve">
<style type="text/css">
	.st0{fill-rule:evenodd;clip-rule:evenodd;fill:#3D4671;}
	.st1{fill:#3D4671;}
</style>
<g>
	<path class="st0" d="M69.26,11.18l0,1l0,0.41l0,0.32l0,0.27l0,0.24l0,0.21l0,0.2l0,0.18l0,0.17l0,0.16l-0.01,0.15l-0.01,0.15
		l-0.01,0.14l-0.01,0.14l-0.01,0.13l-0.01,0.13l-0.01,0.12l-0.01,0.12l-0.01,0.11l-0.01,0.11l-0.01,0.11l-0.01,0.11l-0.01,0.1
		l-0.01,0.1l-0.01,0.1l-0.01,0.1l-0.01,0.09l-0.01,0.09l-0.01,0.09l-0.01,0.09l-0.02,0.09L69,16.79l-0.02,0.08l-0.02,0.08
		l-0.02,0.08l-0.02,0.08l-0.02,0.08l-0.02,0.08l-0.02,0.08l-0.02,0.07l-0.02,0.07l-0.02,0.07l-0.02,0.07l-0.02,0.07l-0.02,0.07
		l-0.02,0.07l-0.02,0.07l-0.02,0.07l-0.03,0.06l-0.03,0.06l-0.03,0.06l-0.03,0.06l-0.03,0.06l-0.03,0.06l-0.03,0.06l-0.03,0.06
		l-0.03,0.06l-0.03,0.06l-0.03,0.06l-0.03,0.06l-0.03,0.05l-0.03,0.05l-0.03,0.05l-0.03,0.05l-0.03,0.05l-0.03,0.05l-0.04,0.05
		l-0.04,0.05l-0.04,0.05l-0.04,0.05l-0.04,0.05L67.9,19.3l-0.04,0.05l-0.04,0.05l-0.04,0.04l-0.04,0.04l-0.04,0.04l-0.04,0.04
		l-0.04,0.04l-0.04,0.04l-0.04,0.04l-0.04,0.04l-0.05,0.04l-0.05,0.04l-0.05,0.04l-0.05,0.04l-0.05,0.04l-0.05,0.04l-0.05,0.04
		l-0.05,0.04l-0.05,0.03L67,20.1l-0.05,0.03l-0.05,0.03l-0.05,0.03l-0.05,0.03l-0.06,0.03l-0.06,0.03l-0.06,0.03l-0.06,0.03
		l-0.06,0.03l-0.06,0.03l-0.06,0.03l-0.06,0.03l-0.06,0.03l-0.06,0.03l-0.06,0.03l-0.06,0.03l-0.07,0.02l-0.07,0.02l-0.07,0.02
		l-0.07,0.02l-0.07,0.02l-0.07,0.02l-0.07,0.02l-0.07,0.02l-0.07,0.02l-0.08,0.02l-0.08,0.02l-0.08,0.02l-0.08,0.02l-0.08,0.02
		l-0.08,0.02l-0.08,0.02l-0.09,0.02l-0.09,0.02l-0.09,0.02l-0.09,0.01l-0.09,0.01l-0.09,0.01l-0.1,0.01l-0.1,0.01l-0.1,0.01
		l-0.1,0.01l-0.1,0.01l-0.11,0.01l-0.11,0.01l-0.11,0.01l-0.12,0.01l-0.12,0.01l-0.12,0.01L63,21.12l-0.13,0.01l-0.14,0.01
		l-0.14,0.01l-0.15,0.01l-0.16,0.01l-0.16,0l-0.17,0l-0.19,0l-0.2,0l-0.22,0l-0.24,0l-0.27,0l-0.32,0l-0.41,0l-5.8,0l-1.27,0
		l-0.44,0l-0.33,0l-0.28,0l-0.24,0l-0.22,0l-0.2,0l-0.19,0l-0.18,0l-0.17,0l-0.16-0.01l-0.15-0.01l-0.14-0.01l-0.14-0.01l-0.13-0.01
		l-0.13-0.01l-0.12-0.01l-0.12-0.01l-0.12-0.01l-0.11-0.01l-0.11-0.01l-0.11-0.01l-0.11-0.01l-0.1-0.01l-0.1-0.01l-0.1-0.01
		L48.73,21l-0.09-0.01l-0.09-0.01l-0.09-0.01l-0.09-0.02l-0.09-0.02l-0.09-0.02l-0.08-0.02l-0.08-0.02l-0.08-0.02l-0.08-0.02
		l-0.08-0.02l-0.08-0.02l-0.08-0.02l-0.07-0.02l-0.07-0.02l-0.07-0.02l-0.07-0.02l-0.07-0.02l-0.07-0.02l-0.07-0.02l-0.07-0.02
		L47,20.57l-0.07-0.03l-0.06-0.03L46.8,20.5l-0.06-0.03l-0.06-0.03l-0.06-0.03l-0.06-0.03l-0.06-0.03l-0.06-0.03l-0.06-0.03
		l-0.06-0.03l-0.06-0.03l-0.06-0.03l-0.05-0.03l-0.05-0.03l-0.05-0.03L46,20.07l-0.05-0.03L45.9,20l-0.05-0.04l-0.05-0.04
		l-0.05-0.04l-0.05-0.04l-0.05-0.04l-0.05-0.04l-0.05-0.04l-0.05-0.04l-0.04-0.04l-0.04-0.04l-0.04-0.04l-0.04-0.04l-0.04-0.04
		l-0.04-0.04l-0.04-0.04l-0.04-0.05l-0.04-0.05l-0.04-0.05l-0.04-0.05l-0.04-0.05L45,19.12l-0.04-0.05l-0.04-0.05l-0.04-0.05
		l-0.03-0.05l-0.03-0.05l-0.03-0.05l-0.03-0.05l-0.03-0.05l-0.03-0.06l-0.03-0.06l-0.03-0.06l-0.03-0.06l-0.03-0.06l-0.03-0.06
		l-0.03-0.06l-0.03-0.06l-0.03-0.06l-0.03-0.06l-0.03-0.06l-0.03-0.06l-0.02-0.07l-0.02-0.07l-0.02-0.07l-0.02-0.07l-0.02-0.07
		l-0.02-0.07l-0.02-0.07l-0.02-0.07l-0.02-0.07l-0.02-0.08l-0.02-0.08l-0.02-0.08l-0.02-0.08l-0.02-0.08l-0.02-0.08l-0.02-0.08
		l-0.02-0.09l-0.02-0.09L44,16.54l-0.01-0.09l-0.01-0.09l-0.01-0.09l-0.01-0.1l-0.01-0.1l-0.01-0.1l-0.01-0.1l-0.01-0.11l-0.01-0.11
		l-0.01-0.11l-0.01-0.11l-0.01-0.12l-0.01-0.12l-0.01-0.12l-0.01-0.13l-0.01-0.13l-0.01-0.14l-0.01-0.15l-0.01-0.15l0-0.16l0-0.17
		l0-0.18l0-0.19l0-0.21l0-0.23l0-0.26l0-0.31l0-0.39l0-0.68l0-1.32l0-0.44l0-0.33l0-0.27l0-0.24l0-0.22l0-0.2l0-0.18l0-0.17l0-0.16
		l0.01-0.15l0.01-0.15l0.01-0.14l0.01-0.14l0.01-0.13l0.01-0.13l0.01-0.12l0.01-0.12l0.01-0.12l0.01-0.11l0.01-0.11l0.01-0.11
		l0.01-0.1l0.01-0.1l0.01-0.1l0.01-0.1l0.01-0.09l0.01-0.09l0.01-0.09l0.02-0.09l0.02-0.09l0.02-0.09l0.02-0.08l0.02-0.08l0.02-0.08
		l0.02-0.08l0.02-0.08l0.02-0.08l0.02-0.08l0.02-0.07l0.02-0.07l0.02-0.07l0.02-0.07l0.02-0.07L44.3,4.6l0.02-0.07l0.02-0.07
		l0.02-0.07l0.03-0.06l0.03-0.06l0.03-0.06l0.03-0.06l0.03-0.06l0.03-0.06l0.03-0.06l0.03-0.06l0.03-0.06l0.03-0.06l0.03-0.06
		l0.03-0.06l0.03-0.05l0.03-0.05l0.03-0.05l0.03-0.05l0.03-0.05l0.03-0.05l0.04-0.05l0.04-0.05l0.04-0.05l0.04-0.05l0.04-0.05
		l0.04-0.05l0.04-0.05l0.04-0.05l0.04-0.04l0.04-0.04l0.04-0.04l0.04-0.04l0.04-0.04l0.04-0.04l0.04-0.04l0.04-0.04l0.05-0.04
		l0.05-0.04l0.05-0.04l0.05-0.04l0.05-0.04l0.05-0.04l0.05-0.04l0.05-0.04l0.05-0.03l0.05-0.03l0.05-0.03l0.05-0.03l0.05-0.03
		l0.05-0.03l0.06-0.03l0.06-0.03l0.06-0.03l0.06-0.03l0.06-0.03l0.06-0.03l0.06-0.03l0.06-0.03l0.06-0.03l0.06-0.03l0.06-0.03
		l0.07-0.03l0.07-0.02l0.07-0.02l0.07-0.02l0.07-0.02l0.07-0.02l0.07-0.02l0.07-0.02l0.07-0.02l0.07-0.02l0.08-0.02l0.08-0.02
		l0.08-0.02l0.08-0.02L48,1.5l0.08-0.02l0.08-0.02l0.09-0.02l0.09-0.02l0.09-0.02l0.09-0.01l0.09-0.01l0.09-0.01l0.1-0.01l0.1-0.01
		L49,1.34l0.1-0.01l0.1-0.01l0.11-0.01l0.11-0.01l0.11-0.01l0.12-0.01l0.12-0.01l0.12-0.01l0.13-0.01l0.13-0.01l0.14-0.01l0.14-0.01
		l0.15-0.01l0.16-0.01l0.16,0l0.17,0l0.18,0l0.2,0l0.21,0l0.24,0l0.26,0l0.31,0l0.39,0l0.64,0l6.42,0l0.47,0l0.34,0l0.28,0l0.25,0
		l0.22,0l0.2,0l0.19,0l0.18,0l0.17,0l0.16,0.01l0.15,0.01l0.14,0.01l0.14,0.01l0.13,0.01l0.13,0.01l0.13,0.01l0.12,0.01l0.12,0.01
		l0.11,0.01l0.11,0.01l0.11,0.01l0.11,0.01L64,1.33l0.1,0.01l0.1,0.01l0.1,0.01l0.09,0.01l0.09,0.01l0.09,0.01l0.09,0.02l0.09,0.02
		l0.09,0.02l0.08,0.02L65,1.49l0.08,0.02l0.08,0.02l0.08,0.02l0.08,0.02l0.08,0.02l0.08,0.02l0.07,0.02l0.07,0.02l0.07,0.02
		l0.07,0.02l0.07,0.02l0.07,0.02l0.07,0.02l0.07,0.02l0.07,0.03l0.06,0.03l0.06,0.03l0.06,0.03l0.06,0.03l0.06,0.03l0.06,0.03
		l0.06,0.03l0.06,0.03l0.06,0.03l0.06,0.03l0.06,0.03l0.06,0.03l0.05,0.03l0.05,0.03l0.05,0.03l0.05,0.03l0.05,0.03l0.05,0.04
		l0.05,0.04l0.05,0.04l0.05,0.04l0.05,0.04l0.05,0.04l0.05,0.04l0.05,0.04l0.05,0.04l0.04,0.04l0.04,0.04l0.04,0.04l0.04,0.04
		l0.04,0.04l0.04,0.04l0.04,0.04l0.04,0.05l0.04,0.05l0.04,0.05l0.04,0.05L68,3.2l0.04,0.05l0.04,0.05l0.04,0.05l0.04,0.05
		l0.03,0.05l0.03,0.05l0.03,0.05l0.03,0.05l0.03,0.05l0.03,0.06l0.03,0.06l0.03,0.06l0.03,0.06l0.03,0.06L68.5,4l0.03,0.06
		l0.03,0.06l0.03,0.06l0.03,0.06l0.03,0.06l0.03,0.06l0.02,0.07l0.02,0.07l0.02,0.07l0.02,0.07l0.02,0.07l0.02,0.07l0.02,0.07
		l0.02,0.07L68.86,5l0.02,0.08l0.02,0.08l0.02,0.08l0.02,0.08l0.02,0.08l0.02,0.08l0.02,0.08l0.02,0.08l0.02,0.09l0.01,0.09
		l0.01,0.09l0.01,0.09l0.01,0.09l0.01,0.1l0.01,0.1l0.01,0.1l0.01,0.1l0.01,0.1l0.01,0.11l0.01,0.11l0.01,0.11l0.01,0.12l0.01,0.12
		l0.01,0.12l0.01,0.13l0.01,0.13l0.01,0.14l0.01,0.14l0.01,0.15l0.01,0.16l0,0.17l0,0.18l0,0.19l0,0.21l0,0.23l0,0.26l0,0.3l0,0.37
		l0,0.58V11.18z M54.27,16.68h4c3.79,0,6-2.36,6-5.53c0-3.2-2.18-5.46-5.94-5.46h-4.06V16.68z M52.27,16.68h-3V5.69h3V16.68z
		 M15.78,11.18c0,3.03-2.2,5.75-5.5,5.75c-3.3,0-5.47-2.68-5.47-5.75c0-3.03,2.2-5.75,5.5-5.75C13.61,5.44,15.78,8.12,15.78,11.18z
		 M5.65,11.18c0,2.75,1.96,5,4.66,5c2.7,0,4.63-2.22,4.63-5c0-2.75-1.96-5-4.66-5C7.58,6.18,5.65,8.41,5.65,11.18z M19.57,16.68
		H18.8V5.69h0.76l7.47,9.56V5.69h0.77v10.99h-0.6l-7.62-9.77V16.68z M38.78,16.68h-7.77V5.69h7.7v0.75h-6.89v4.32h6.2v0.75h-6.2
		v4.41h6.97V16.68z M58.87,14.75c0.29-0.01,0.63-0.05,0.97-0.13c0.04-0.01,0.08-0.02,0.13-0.03c0.26-0.07,0.55-0.18,0.84-0.36
		c0.07-0.04,0.14-0.09,0.21-0.14l0,0c0.21-0.15,0.42-0.34,0.63-0.59c0.09-0.1,0.23-0.31,0.32-0.48c-0.19-0.21-0.49-0.38-0.77-0.52
		l-0.03-0.02c-0.13-0.07-0.36-0.19-0.58-0.28c-0.02-0.01-0.05-0.02-0.07-0.03c-0.19-0.07-0.41-0.15-0.43-0.37
		c-0.02-0.17,0.07-0.28,0.17-0.41c0.02-0.03,0.05-0.06,0.08-0.1c0.3-0.4,0.59-0.96,0.54-1.7c-0.05-0.73-0.52-1.3-1.3-1.39
		c-0.09-0.01-0.18-0.01-0.27-0.01c-0.09,0-0.17,0-0.27,0.01c-0.78,0.09-1.25,0.66-1.3,1.39c-0.05,0.75,0.23,1.3,0.54,1.7
		c0.03,0.03,0.05,0.07,0.08,0.1c0.1,0.13,0.19,0.24,0.17,0.41c-0.02,0.22-0.24,0.3-0.43,0.37v0c-0.02,0.01-0.05,0.02-0.07,0.03
		c-0.22,0.08-0.45,0.21-0.58,0.28l-0.03,0.02c-0.41,0.22-0.86,0.49-0.96,0.85c-0.12,0.45-0.19,1-0.18,1.41h0.7c0.2,0,0.4,0,0.6,0h0
		C58,14.76,58.44,14.77,58.87,14.75z"/>
	<g>
		<path class="st1" d="M8.28,30.77v-2.64H7.87L7.1,30.77h-0.9l0.84-2.75c-0.14-0.05-0.26-0.13-0.36-0.23
			c-0.1-0.1-0.19-0.22-0.25-0.36c-0.06-0.13-0.11-0.29-0.13-0.47c-0.02-0.18-0.03-0.36-0.03-0.56c0-1.21,0.52-1.81,1.56-1.81h1.35
			v6.18H8.28z M7.89,25.43c-0.31,0-0.52,0.08-0.61,0.25c-0.1,0.17-0.14,0.4-0.14,0.72c0,0.16,0.01,0.29,0.03,0.41
			c0.02,0.12,0.05,0.22,0.1,0.3c0.05,0.08,0.12,0.14,0.22,0.19c0.09,0.04,0.22,0.07,0.37,0.07h0.43v-1.93H7.89z"/>
		<path class="st1" d="M9.94,30.77v-4.4h2.1v0.78h-1.21v3.62H9.94z"/>
		<path class="st1" d="M12.24,27.85c0-0.18,0.01-0.34,0.03-0.49s0.07-0.28,0.13-0.4c0.1-0.19,0.25-0.34,0.45-0.46
			c0.19-0.12,0.43-0.17,0.71-0.17c0.28,0,0.51,0.06,0.71,0.17c0.19,0.12,0.34,0.27,0.45,0.46c0.06,0.12,0.11,0.25,0.13,0.4
			c0.02,0.15,0.03,0.32,0.03,0.49v1.45c0,0.18-0.01,0.34-0.03,0.49c-0.02,0.15-0.07,0.28-0.13,0.4c-0.1,0.19-0.25,0.34-0.45,0.46
			c-0.19,0.12-0.43,0.17-0.71,0.17c-0.28,0-0.51-0.06-0.71-0.17c-0.19-0.12-0.34-0.27-0.45-0.46c-0.06-0.12-0.11-0.25-0.13-0.4
			s-0.03-0.32-0.03-0.49V27.85z M13.13,29.44c0,0.17,0.04,0.29,0.12,0.38c0.08,0.08,0.18,0.13,0.32,0.13c0.13,0,0.24-0.04,0.32-0.13
			c0.08-0.08,0.12-0.21,0.12-0.38v-1.73c0-0.17-0.04-0.29-0.12-0.38c-0.08-0.08-0.18-0.13-0.32-0.13c-0.13,0-0.24,0.04-0.32,0.13
			c-0.08,0.08-0.12,0.21-0.12,0.38V29.44z"/>
		<path class="st1" d="M15.53,30.77v-4.4h0.89v1.8h0.89v-1.8h0.89v4.4h-0.89v-1.87h-0.89v1.87H15.53z"/>
		<path class="st1" d="M20.6,30.77v-0.45h-0.02c-0.12,0.16-0.23,0.29-0.35,0.37c-0.12,0.09-0.29,0.13-0.5,0.13
			c-0.1,0-0.21-0.02-0.32-0.05c-0.11-0.03-0.21-0.09-0.31-0.18c-0.1-0.08-0.18-0.2-0.24-0.35c-0.06-0.15-0.09-0.35-0.09-0.59
			c0-0.25,0.02-0.47,0.06-0.66c0.04-0.19,0.12-0.35,0.23-0.47c0.1-0.12,0.25-0.21,0.43-0.27c0.18-0.06,0.41-0.09,0.69-0.09
			c0.03,0,0.06,0,0.1,0s0.07,0,0.1,0.01c0.03,0.01,0.06,0.01,0.1,0.01s0.08,0,0.13,0.01v-0.46c0-0.15-0.03-0.27-0.1-0.37
			c-0.06-0.1-0.18-0.15-0.35-0.15c-0.12,0-0.22,0.04-0.32,0.11c-0.1,0.08-0.16,0.19-0.19,0.33H18.8c0.02-0.39,0.16-0.71,0.4-0.95
			c0.12-0.12,0.25-0.21,0.42-0.27c0.16-0.07,0.34-0.1,0.55-0.1c0.19,0,0.36,0.03,0.52,0.09c0.16,0.06,0.3,0.14,0.43,0.26
			c0.12,0.12,0.21,0.26,0.28,0.43c0.07,0.17,0.1,0.38,0.1,0.61v3.06H20.6z M20.6,28.88c-0.1-0.02-0.18-0.03-0.24-0.03
			c-0.19,0-0.35,0.05-0.49,0.13c-0.14,0.09-0.2,0.25-0.2,0.49c0,0.17,0.04,0.3,0.12,0.41c0.08,0.1,0.19,0.16,0.34,0.16
			c0.15,0,0.27-0.05,0.35-0.15c0.08-0.1,0.13-0.24,0.13-0.42V28.88z"/>
		<path class="st1" d="M25.65,30.77v-2.79h-0.02l-0.98,2.79h-0.9v-4.4h0.83v2.79h0.02l0.97-2.79h0.91v4.4H25.65z"/>
		<path class="st1" d="M27.61,30.77v0.87h-0.75v-1.61h0.4c0.06-0.12,0.12-0.28,0.17-0.49c0.05-0.2,0.09-0.42,0.12-0.64
			c0.02-0.18,0.04-0.38,0.04-0.57c0.01-0.2,0.01-0.38,0.01-0.54v-1.42h2.43v3.66h0.42v1.61h-0.75v-0.87H27.61z M28.44,27.11v0.66
			c0,0.08,0,0.17-0.01,0.27c-0.01,0.11-0.01,0.22-0.02,0.33c-0.01,0.11-0.02,0.22-0.03,0.33c-0.01,0.11-0.02,0.2-0.03,0.27
			c-0.02,0.15-0.06,0.33-0.11,0.53c-0.05,0.21-0.11,0.38-0.17,0.52h1.08v-2.92H28.44z"/>
		<path class="st1" d="M33.41,28.91h-1.75v0.6c0,0.14,0.04,0.25,0.12,0.32c0.08,0.08,0.18,0.11,0.32,0.11
			c0.17,0,0.28-0.05,0.33-0.15c0.05-0.1,0.09-0.2,0.1-0.3h0.89c0,0.39-0.12,0.7-0.36,0.94c-0.12,0.12-0.25,0.22-0.42,0.29
			c-0.16,0.07-0.34,0.1-0.55,0.1c-0.28,0-0.51-0.06-0.71-0.17c-0.19-0.12-0.34-0.27-0.45-0.46c-0.06-0.12-0.11-0.25-0.13-0.4
			c-0.02-0.15-0.03-0.32-0.03-0.49v-1.45c0-0.18,0.01-0.34,0.03-0.49c0.02-0.15,0.07-0.28,0.13-0.4c0.1-0.19,0.25-0.34,0.45-0.46
			c0.19-0.12,0.43-0.17,0.71-0.17c0.2,0,0.39,0.03,0.55,0.1c0.16,0.07,0.31,0.16,0.42,0.29c0.23,0.26,0.35,0.59,0.35,0.98V28.91z
			 M31.66,28.21h0.87v-0.5c0-0.17-0.04-0.29-0.12-0.38c-0.08-0.08-0.18-0.13-0.32-0.13c-0.13,0-0.24,0.04-0.32,0.13
			c-0.08,0.08-0.12,0.21-0.12,0.38V28.21z"/>
		<path class="st1" d="M34.06,30.77v-4.4h0.89v1.8h0.89v-1.8h0.89v4.4h-0.89v-1.87h-0.89v1.87H34.06z"/>
		<path class="st1" d="M37.96,30.77v-3.62h-0.87v-0.78h2.62v0.78h-0.87v3.62H37.96z"/>
		<path class="st1" d="M41.98,30.77v-2.79h-0.02l-0.98,2.79h-0.9v-4.4h0.83v2.79h0.02l0.97-2.79h0.91v4.4H41.98z"/>
		<path class="st1" d="M45.99,26.72c0.02-0.02,0.05-0.06,0.08-0.1c0.04-0.04,0.09-0.09,0.14-0.13c0.06-0.04,0.13-0.08,0.21-0.11
			c0.08-0.03,0.17-0.04,0.27-0.04c0.17,0,0.31,0.03,0.42,0.1c0.12,0.06,0.21,0.16,0.3,0.3c0.06,0.1,0.12,0.24,0.16,0.41
			c0.04,0.18,0.06,0.39,0.06,0.63v1.59c0,0.16-0.01,0.32-0.03,0.49c-0.02,0.17-0.06,0.32-0.12,0.44c-0.08,0.16-0.18,0.28-0.32,0.37
			c-0.14,0.09-0.29,0.14-0.46,0.14c-0.17,0-0.31-0.03-0.42-0.1c-0.11-0.06-0.2-0.14-0.27-0.22h-0.02v2.06H45.1V30.5h-0.02
			c-0.08,0.08-0.17,0.15-0.27,0.22c-0.11,0.06-0.25,0.1-0.42,0.1c-0.17,0-0.33-0.05-0.46-0.14c-0.14-0.09-0.24-0.22-0.32-0.37
			c-0.06-0.12-0.1-0.27-0.12-0.44c-0.02-0.17-0.03-0.34-0.03-0.49v-1.59c0-0.24,0.02-0.45,0.06-0.63c0.04-0.18,0.09-0.31,0.16-0.41
			c0.16-0.26,0.4-0.39,0.72-0.39c0.1,0,0.19,0.01,0.27,0.04c0.08,0.03,0.15,0.07,0.21,0.11c0.06,0.04,0.11,0.09,0.14,0.13
			c0.04,0.04,0.06,0.08,0.08,0.1v-2.13h0.89V26.72z M44.35,29.42c0,0.14,0.02,0.26,0.07,0.36c0.05,0.1,0.15,0.16,0.32,0.16
			c0.12,0,0.21-0.04,0.28-0.12s0.1-0.15,0.1-0.22v-2.05c0-0.08-0.04-0.15-0.11-0.23c-0.08-0.08-0.17-0.12-0.29-0.12
			c-0.15,0-0.25,0.06-0.3,0.16c-0.05,0.11-0.07,0.25-0.07,0.43V29.42z M46.74,27.81c0-0.18-0.02-0.32-0.07-0.43
			c-0.05-0.11-0.15-0.16-0.3-0.16c-0.12,0-0.21,0.04-0.29,0.12c-0.08,0.08-0.11,0.16-0.11,0.23v2.05c0,0.06,0.03,0.14,0.1,0.22
			s0.16,0.12,0.28,0.12c0.17,0,0.27-0.05,0.32-0.16c0.05-0.1,0.07-0.23,0.07-0.36V27.81z"/>
		<path class="st1" d="M50.18,30.77v-2.79h-0.02l-0.98,2.79h-0.9v-4.4h0.83v2.79h0.02l0.97-2.79h0.91v4.4H50.18z"/>
		<path class="st1" d="M51.74,30.77v-4.4h0.89v1.8h0.34c0.13,0,0.22-0.05,0.27-0.14c0.05-0.09,0.08-0.21,0.11-0.35l0.1-0.5
			c0.03-0.13,0.08-0.25,0.13-0.36c0.06-0.11,0.13-0.19,0.22-0.26c0.1-0.07,0.21-0.12,0.34-0.15c0.13-0.03,0.28-0.04,0.45-0.04h0.02
			v0.78h-0.03c-0.1,0-0.19,0.02-0.26,0.06c-0.07,0.04-0.12,0.12-0.15,0.26l-0.09,0.49c-0.01,0.02-0.01,0.05-0.02,0.1
			c-0.01,0.05-0.02,0.11-0.05,0.17c-0.02,0.06-0.05,0.12-0.09,0.18c-0.04,0.06-0.09,0.1-0.14,0.13l0.89,2.24h-0.9l-0.7-1.87h-0.43
			v1.87H51.74z"/>
		<path class="st1" d="M56.73,30.77v-0.45h-0.02c-0.12,0.16-0.23,0.29-0.35,0.37c-0.12,0.09-0.29,0.13-0.5,0.13
			c-0.1,0-0.21-0.02-0.32-0.05c-0.11-0.03-0.21-0.09-0.31-0.18c-0.1-0.08-0.18-0.2-0.24-0.35c-0.06-0.15-0.09-0.35-0.09-0.59
			c0-0.25,0.02-0.47,0.06-0.66c0.04-0.19,0.12-0.35,0.23-0.47c0.1-0.12,0.25-0.21,0.43-0.27c0.18-0.06,0.41-0.09,0.69-0.09
			c0.03,0,0.06,0,0.1,0c0.03,0,0.07,0,0.1,0.01c0.03,0.01,0.06,0.01,0.1,0.01c0.04,0,0.08,0,0.13,0.01v-0.46
			c0-0.15-0.03-0.27-0.1-0.37c-0.06-0.1-0.18-0.15-0.35-0.15c-0.12,0-0.22,0.04-0.32,0.11c-0.1,0.08-0.16,0.19-0.19,0.33h-0.86
			c0.02-0.39,0.16-0.71,0.4-0.95c0.12-0.12,0.25-0.21,0.42-0.27c0.16-0.07,0.34-0.1,0.55-0.1c0.18,0,0.36,0.03,0.52,0.09
			c0.16,0.06,0.3,0.14,0.43,0.26c0.12,0.12,0.21,0.26,0.28,0.43c0.07,0.17,0.1,0.38,0.1,0.61v3.06H56.73z M56.73,28.88
			c-0.1-0.02-0.18-0.03-0.24-0.03c-0.19,0-0.35,0.05-0.49,0.13c-0.14,0.09-0.2,0.25-0.2,0.49c0,0.17,0.04,0.3,0.12,0.41
			c0.08,0.1,0.19,0.16,0.34,0.16c0.15,0,0.27-0.05,0.35-0.15c0.08-0.1,0.13-0.24,0.13-0.42V28.88z"/>
		<path class="st1" d="M58.27,30.77v-4.4h0.89v3.66h0.88v-3.66h0.89v3.66h0.47v1.61h-0.75v-0.87H58.27z"/>
		<path class="st1" d="M63.68,30.77v-2.79h-0.02l-0.98,2.79h-0.9v-4.4h0.83v2.79h0.02l0.97-2.79h0.91v4.4H63.68z"/>
		<path class="st1" d="M66.87,30.77v-1.75h-0.38l-0.56,1.75h-0.9l0.66-1.88c-0.13-0.06-0.24-0.14-0.32-0.24
			c-0.08-0.1-0.14-0.21-0.17-0.33c-0.04-0.12-0.06-0.23-0.07-0.34c-0.01-0.11-0.01-0.2-0.01-0.26c0-0.19,0.03-0.38,0.1-0.58
			c0.06-0.2,0.17-0.36,0.32-0.49c0.15-0.13,0.31-0.21,0.48-0.23c0.17-0.03,0.34-0.04,0.52-0.04h1.22v4.4H66.87z M66.87,27.11h-0.43
			c-0.17,0-0.29,0.06-0.35,0.19C66.03,27.43,66,27.58,66,27.75c0,0.38,0.16,0.56,0.49,0.56h0.38V27.11z"/>
		<path class="st1" d="M27.64,41.19v-3.62h-0.87v-0.78h2.62v0.78h-0.87v3.62H27.64z"/>
		<path class="st1" d="M31.66,41.19v-2.79h-0.02l-0.98,2.79h-0.9v-4.4h0.83v2.79h0.02l0.97-2.79h0.91v4.4H31.66z"/>
		<path class="st1" d="M33.02,38.02c0.01-0.17,0.05-0.34,0.12-0.49c0.07-0.15,0.16-0.29,0.27-0.41c0.11-0.12,0.25-0.21,0.4-0.28
			c0.16-0.07,0.33-0.1,0.51-0.1c0.19,0,0.36,0.03,0.53,0.09c0.17,0.06,0.32,0.15,0.44,0.26c0.12,0.11,0.21,0.24,0.27,0.39
			c0.07,0.15,0.1,0.33,0.1,0.52c0,0.06-0.01,0.14-0.02,0.22s-0.04,0.17-0.07,0.26c-0.04,0.09-0.09,0.17-0.17,0.26
			c-0.07,0.08-0.17,0.15-0.29,0.21c0.13,0.05,0.23,0.1,0.32,0.17c0.08,0.07,0.15,0.15,0.19,0.23c0.04,0.09,0.07,0.18,0.09,0.27
			c0.02,0.1,0.03,0.19,0.03,0.28c0,0.18-0.03,0.34-0.09,0.49c-0.06,0.14-0.14,0.28-0.26,0.41c-0.13,0.14-0.28,0.25-0.46,0.32
			c-0.18,0.08-0.38,0.11-0.59,0.11c-0.41,0-0.74-0.14-1-0.41c-0.23-0.24-0.35-0.55-0.36-0.92h0.83c0.01,0.16,0.06,0.28,0.14,0.36
			c0.08,0.09,0.21,0.13,0.38,0.13c0.15,0,0.27-0.04,0.36-0.13c0.09-0.09,0.13-0.22,0.13-0.39c0-0.17-0.04-0.3-0.11-0.4
			c-0.07-0.1-0.2-0.15-0.39-0.15h-0.28v-0.74h0.24c0.17,0,0.3-0.04,0.38-0.13c0.08-0.09,0.12-0.23,0.12-0.43
			c0-0.13-0.04-0.24-0.12-0.33c-0.08-0.09-0.19-0.13-0.34-0.13c-0.12,0-0.22,0.03-0.31,0.1c-0.09,0.07-0.14,0.18-0.16,0.35H33.02z"
			/>
		<path class="st1" d="M38.3,41.19v-2.79h-0.02l-0.98,2.79h-0.9v-4.4h0.83v2.79h0.02l0.97-2.79h0.91v4.4H38.3z"/>
		<path class="st1" d="M39.86,41.19v-4.4h0.9l0.89,2.36h0.02l0.89-2.36h0.9v4.4h-0.85v-2.66H42.6l-0.71,1.94h-0.45l-0.71-1.94h-0.02
			v2.66H39.86z"/>
		<path class="st1" d="M46.1,41.19v-2.79h-0.02l-0.98,2.79h-0.9v-4.4h0.83v2.79h0.02l0.97-2.79h0.91v4.4H46.1z"/>
	</g>
</g>
</svg>
