<?xml version="1.0" encoding="utf-8"?>
<!-- Generator: Adobe Illustrator 23.0.3, SVG Export Plug-In . SVG Version: 6.00 Build 0)  -->
<svg version="1.1" id="Слой_1" xmlns="http://www.w3.org/2000/svg" xmlns:xlink="http://www.w3.org/1999/xlink" x="0px" y="0px"
	 viewBox="0 0 313.39 243.52" style="enable-background:new 0 0 313.39 243.52;" xml:space="preserve">
<style type="text/css">
	.st0{fill-rule:evenodd;clip-rule:evenodd;fill:#FFFFFF;}
	.st1{fill:#FFFFFF;}
</style>
<g>
	
		<ellipse transform="matrix(0.8112 -0.5847 0.5847 0.8112 3.0377 100.2204)" class="st0" cx="156.74" cy="45.41" rx="13.3" ry="13.3"/>
	<path class="st0" d="M109.05,147.68c16.59-22.99,37.65-41.94,61.6-55.93c14.68-8.57,30.45-15.29,46.95-19.93
		c-18.92,2.02-37.36,6.74-54.78,13.93c-25.81,10.66-49.39,26.76-68.95,47.57C98.29,138.74,103.39,143.57,109.05,147.68
		L109.05,147.68z M220.56,117.59c4.72-9.2,10.3-17.96,16.67-26.16c-2.36,20.55-12.41,38.77-27.19,51.7
		C212.84,134.32,216.36,125.78,220.56,117.59L220.56,117.59z M201.64,119.68c8.86-11.5,18.97-22.04,30.18-31.41
		c-6.4,8.32-12.01,17.18-16.78,26.49c-5.66,11.04-10.14,22.69-13.32,34.75c-7.37,4.93-15.59,8.68-24.4,10.99
		C183.79,145.93,191.97,132.23,201.64,119.68L201.64,119.68z M187.37,108.26c13.66-12.3,29.35-22.34,46.5-29.62
		c-13.98,10.82-26.45,23.35-37.15,37.24c-10.88,14.12-19.92,29.64-26.87,46.21c-4.28,0.7-8.68,1.06-13.15,1.06
		c-3.15,0-6.26-0.18-9.32-0.53C156.96,141.76,170.64,123.32,187.37,108.26L187.37,108.26z M173.79,97.14
		c15.26-8.91,31.72-15.75,48.95-20.26c-14.41,7.08-27.71,16.1-39.53,26.75c-17.77,16-32.23,35.69-42.21,58.01
		c-9.65-1.89-18.69-5.5-26.78-10.49C130.27,128.97,150.63,110.67,173.79,97.14z"/>
	<path class="st0" d="M139.86,90.1c-13.85-7.79-28.64-13.94-44.07-18.28c18.45,1.97,36.45,6.51,53.48,13.4
		C146.09,86.78,142.95,88.4,139.86,90.1L139.86,90.1z M92.83,117.59c0.93,1.8,1.82,3.63,2.68,5.46c-1.8,1.76-3.58,3.56-5.32,5.4
		c-7.5-10.73-12.46-23.36-14.03-37.02C82.53,99.63,88.11,108.39,92.83,117.59L92.83,117.59z M100.24,118.56
		c2.03-1.86,4.1-3.69,6.2-5.46c-7.53-8.96-15.85-17.27-24.88-24.82c6.4,8.32,12.01,17.18,16.78,26.49
		C99,116.02,99.63,117.29,100.24,118.56L100.24,118.56z M111.26,109.16c2.75-2.18,5.55-4.3,8.4-6.33
		c-12.1-9.84-25.6-18.01-40.14-24.18C91.2,87.69,101.83,97.93,111.26,109.16L111.26,109.16z M124.99,99.14
		c2.8-1.87,5.65-3.67,8.54-5.4c-13.52-7.27-27.91-12.94-42.89-16.86C102.99,82.94,114.51,90.43,124.99,99.14z"/>
	<path class="st0" d="M76.86,67.84C83.8,29.16,117.45,1,156.74,1c39.3,0,72.95,28.16,79.88,66.84
		C226.53,32.08,193.9,7.38,156.74,7.38C119.59,7.38,86.96,32.08,76.86,67.84z"/>
	<path class="st0" d="M156.74,21.19L156.74,21.19c0.37,0,0.67,0.3,0.67,0.67v5.78c0,0.37-0.3,0.67-0.67,0.67l0,0
		c-0.37,0-0.67-0.3-0.67-0.67v-5.78C156.08,21.49,156.38,21.19,156.74,21.19z"/>
	<path class="st0" d="M163.01,22.02L163.01,22.02c0.35,0.09,0.57,0.46,0.47,0.82l-1.49,5.58c-0.09,0.35-0.46,0.57-0.82,0.47l0,0
		c-0.35-0.09-0.57-0.46-0.47-0.82l1.49-5.58C162.29,22.13,162.66,21.92,163.01,22.02z"/>
	<path class="st0" d="M168.85,24.44L168.85,24.44c0.32,0.18,0.43,0.59,0.24,0.91l-2.89,5c-0.18,0.32-0.59,0.43-0.91,0.24l0,0
		c-0.32-0.18-0.43-0.59-0.24-0.91l2.89-5C168.12,24.36,168.53,24.25,168.85,24.44z"/>
	<path class="st0" d="M173.86,28.28L173.86,28.28c0.26,0.26,0.26,0.68,0,0.94l-4.08,4.08c-0.26,0.26-0.68,0.26-0.94,0l0,0
		c-0.26-0.26-0.26-0.68,0-0.94l4.08-4.08C173.18,28.02,173.61,28.02,173.86,28.28z"/>
	<path class="st0" d="M177.71,33.3L177.71,33.3c0.18,0.32,0.07,0.73-0.24,0.91l-5,2.89c-0.32,0.18-0.73,0.07-0.91-0.24l0,0
		c-0.18-0.32-0.07-0.73,0.24-0.91l5-2.89C177.12,32.87,177.53,32.98,177.71,33.3z"/>
	<path class="st0" d="M180.13,39.14L180.13,39.14c0.09,0.35-0.12,0.72-0.47,0.82l-5.58,1.49c-0.35,0.09-0.72-0.12-0.82-0.47l0,0
		c-0.09-0.35,0.12-0.72,0.47-0.82l5.58-1.49C179.67,38.57,180.04,38.78,180.13,39.14z"/>
	<path class="st0" d="M180.96,45.41L180.96,45.41c0,0.37-0.3,0.67-0.67,0.67h-5.78c-0.37,0-0.67-0.3-0.67-0.67l0,0
		c0-0.37,0.3-0.67,0.67-0.67h5.78C180.66,44.74,180.96,45.04,180.96,45.41z"/>
	<path class="st0" d="M180.13,51.67L180.13,51.67c-0.09,0.35-0.46,0.57-0.82,0.47l-5.58-1.5c-0.35-0.09-0.57-0.46-0.47-0.82l0,0
		c0.09-0.35,0.46-0.57,0.82-0.47l5.58,1.49C180.01,50.95,180.23,51.32,180.13,51.67z"/>
	<path class="st0" d="M177.71,57.51L177.71,57.51c-0.18,0.32-0.59,0.43-0.91,0.24l-5-2.89c-0.32-0.18-0.43-0.59-0.24-0.91l0,0
		c0.18-0.32,0.59-0.43,0.91-0.24l5,2.89C177.79,56.78,177.9,57.19,177.71,57.51z"/>
	<path class="st0" d="M173.86,62.53L173.86,62.53c-0.26,0.26-0.68,0.26-0.94,0l-4.08-4.08c-0.26-0.26-0.26-0.68,0-0.94l0,0
		c0.26-0.26,0.68-0.26,0.94,0l4.08,4.08C174.12,61.84,174.12,62.27,173.86,62.53z"/>
	<path class="st0" d="M168.85,66.37L168.85,66.37c-0.32,0.18-0.73,0.07-0.91-0.24l-2.89-5c-0.18-0.32-0.07-0.73,0.24-0.91l0,0
		c0.32-0.18,0.73-0.07,0.91,0.24l2.89,5C169.28,65.78,169.17,66.19,168.85,66.37z"/>
	<path class="st0" d="M163.01,68.79L163.01,68.79c-0.35,0.09-0.72-0.12-0.82-0.47l-1.49-5.58c-0.09-0.35,0.12-0.72,0.47-0.82l0,0
		c0.35-0.09,0.72,0.12,0.82,0.47l1.49,5.58C163.58,68.33,163.36,68.7,163.01,68.79z"/>
	<path class="st0" d="M156.74,69.62L156.74,69.62c-0.37,0-0.67-0.3-0.67-0.67v-5.78c0-0.37,0.3-0.67,0.67-0.67l0,0
		c0.37,0,0.67,0.3,0.67,0.67v5.78C157.41,69.32,157.11,69.62,156.74,69.62z"/>
	<path class="st0" d="M150.48,68.79L150.48,68.79c-0.35-0.09-0.57-0.46-0.47-0.82l1.5-5.58c0.09-0.35,0.46-0.57,0.82-0.47l0,0
		c0.35,0.09,0.57,0.46,0.47,0.82l-1.49,5.58C151.2,68.68,150.83,68.89,150.48,68.79z"/>
	<path class="st0" d="M144.64,66.37L144.64,66.37c-0.32-0.18-0.43-0.59-0.24-0.91l2.89-5c0.18-0.32,0.59-0.43,0.91-0.24l0,0
		c0.32,0.18,0.43,0.59,0.24,0.91l-2.89,5C145.36,66.45,144.95,66.56,144.64,66.37z"/>
	<path class="st0" d="M139.62,62.53L139.62,62.53c-0.26-0.26-0.26-0.68,0-0.94l4.08-4.08c0.26-0.26,0.68-0.26,0.94,0l0,0
		c0.26,0.26,0.26,0.68,0,0.94l-4.08,4.08C140.31,62.79,139.88,62.79,139.62,62.53z"/>
	<path class="st0" d="M135.77,57.51L135.77,57.51c-0.18-0.32-0.07-0.73,0.24-0.91l5-2.89c0.32-0.18,0.73-0.07,0.91,0.24l0,0
		c0.18,0.32,0.07,0.73-0.24,0.91l-5,2.89C136.37,57.94,135.96,57.83,135.77,57.51z"/>
	<path class="st0" d="M133.36,51.67L133.36,51.67c-0.09-0.35,0.12-0.72,0.47-0.82l5.58-1.49c0.35-0.09,0.72,0.12,0.82,0.47l0,0
		c0.09,0.35-0.12,0.72-0.47,0.82l-5.58,1.5C133.82,52.24,133.45,52.03,133.36,51.67z"/>
	<path class="st0" d="M132.53,45.41L132.53,45.41c0-0.37,0.3-0.67,0.67-0.67h5.78c0.37,0,0.67,0.3,0.67,0.67l0,0
		c0,0.37-0.3,0.67-0.67,0.67h-5.78C132.83,46.07,132.53,45.77,132.53,45.41z"/>
	<path class="st0" d="M133.36,39.14L133.36,39.14c0.09-0.35,0.46-0.57,0.82-0.47l5.58,1.49c0.35,0.09,0.57,0.46,0.47,0.82l0,0
		c-0.09,0.35-0.46,0.57-0.82,0.47l-5.58-1.49C133.47,39.86,133.26,39.49,133.36,39.14z"/>
	<path class="st0" d="M135.77,33.3L135.77,33.3c0.18-0.32,0.59-0.43,0.91-0.24l5,2.89c0.32,0.18,0.43,0.59,0.24,0.91l0,0
		c-0.18,0.32-0.59,0.43-0.91,0.24l-5-2.89C135.7,34.03,135.59,33.62,135.77,33.3z"/>
	<path class="st0" d="M139.62,28.28L139.62,28.28c0.26-0.26,0.68-0.26,0.94,0l4.08,4.08c0.26,0.26,0.26,0.68,0,0.94l0,0
		c-0.26,0.26-0.68,0.26-0.94,0l-4.08-4.08C139.36,28.97,139.36,28.54,139.62,28.28z"/>
	<path class="st0" d="M144.64,24.44L144.64,24.44c0.32-0.18,0.73-0.07,0.91,0.24l2.89,5c0.18,0.32,0.07,0.73-0.24,0.91l0,0
		c-0.32,0.18-0.73,0.07-0.91-0.24l-2.89-5C144.21,25.03,144.32,24.62,144.64,24.44z"/>
	<path class="st0" d="M150.48,22.02L150.48,22.02c0.35-0.09,0.72,0.12,0.82,0.47l1.49,5.58c0.09,0.35-0.12,0.72-0.47,0.82l0,0
		c-0.35,0.09-0.72-0.12-0.82-0.47l-1.5-5.58C149.91,22.48,150.12,22.11,150.48,22.02z"/>
</g>
<g>
	<rect x="3.68" y="235.91" class="st0" width="64.38" height="0.9"/>
	<rect x="245.32" y="235.91" class="st0" width="64.38" height="0.9"/>
	<g>
		<path class="st1" d="M21.16,183.87c-0.09-2.12-0.23-4.26-0.42-6.4c2.08,0.03,4.13,0.08,6.17,0.15c2.03,0.07,4.09,0.1,6.17,0.1
			c3.42,0,6.45-0.03,9.11-0.07c2.66-0.05,4.45-0.11,5.37-0.17c-0.19,0.53-0.28,1.22-0.28,2.07c0,0.53,0.02,0.94,0.07,1.24
			c0.05,0.3,0.11,0.63,0.21,0.99c-1.34-0.07-2.81-0.13-4.4-0.2c-1.59-0.07-3.14-0.13-4.64-0.2c-1.5-0.07-2.85-0.12-4.05-0.15
			c-1.2-0.03-2.06-0.05-2.56-0.05c-0.19,1.81-0.29,3.61-0.31,5.38c-0.02,1.78-0.03,3.57-0.03,5.38c3-0.03,5.72-0.08,8.14-0.15
			c2.43-0.07,4.95-0.15,7.59-0.25c-0.14,0.56-0.23,0.99-0.28,1.28c-0.05,0.3-0.07,0.61-0.07,0.94c0,0.26,0.03,0.54,0.1,0.82
			c0.07,0.28,0.15,0.68,0.24,1.21c-5.27-0.3-10.51-0.44-15.73-0.44c0,1.05-0.01,2.11-0.03,3.16c-0.02,1.05-0.03,2.11-0.03,3.16
			c0,2.14,0.07,4.2,0.21,6.17c2.63,0,5.27-0.05,7.9-0.15c2.63-0.1,5.29-0.26,7.97-0.49c-0.09,0.36-0.16,0.69-0.21,0.99
			c-0.05,0.3-0.07,0.71-0.07,1.24c0,0.53,0.02,0.94,0.07,1.23c0.05,0.3,0.11,0.54,0.21,0.74c-1.25-0.03-2.78-0.06-4.61-0.07
			c-1.83-0.02-4.33-0.02-7.52-0.02c-2.82,0-5.1,0-6.86,0c-1.71,0-3.08,0-4.12,0c-1.04,0-1.83,0.01-2.36,0.02
			c-0.53,0.02-0.98,0.04-1.35,0.07c0.18-2.04,0.32-4.12,0.42-6.25c0.09-2.12,0.14-4.55,0.14-7.29v-6.72
			C21.3,188.43,21.25,186,21.16,183.87z"/>
		<path class="st1" d="M77.49,197.78v5.43H60.24v-5.43H77.49z"/>
		<path class="st1" d="M93.63,183.87c-0.09-2.12-0.23-4.26-0.42-6.4c0.78,0.07,1.64,0.12,2.56,0.17c0.92,0.05,1.96,0.07,3.12,0.07
			c1.15,0,2.19-0.03,3.12-0.07c0.92-0.05,1.78-0.11,2.56-0.17c-0.19,2.14-0.32,4.27-0.42,6.4c-0.09,2.12-0.14,4.55-0.14,7.29v6.72
			c0,2.73,0.05,5.16,0.14,7.29c0.09,2.12,0.23,4.21,0.42,6.25c-0.79-0.07-1.64-0.1-2.56-0.1c-0.92,0-1.96,0-3.12,0
			c-1.16,0-2.19,0-3.12,0c-0.92,0-1.78,0.03-2.56,0.1c0.18-2.04,0.32-4.12,0.42-6.25c0.09-2.12,0.14-4.55,0.14-7.29v-6.72
			C93.77,188.43,93.72,186,93.63,183.87z"/>
		<path class="st1" d="M120.24,216.15c0.65-0.3,1.18-0.64,1.59-1.04c0.42-0.4,0.73-0.89,0.94-1.48c0.21-0.59,0.36-1.33,0.45-2.22
			c0.18-2.04,0.32-4.12,0.42-6.25c0.09-2.12,0.14-4.55,0.14-7.29v-6.72c0-2.73-0.05-5.16-0.14-7.29c-0.09-2.12-0.23-4.26-0.42-6.4
			c0.78,0.07,1.64,0.12,2.56,0.17c0.92,0.05,1.96,0.07,3.12,0.07c1.15,0,2.19-0.03,3.12-0.07c0.92-0.05,1.78-0.11,2.56-0.17
			c-0.19,2.14-0.32,4.27-0.42,6.4c-0.09,2.12-0.14,4.55-0.14,7.29v6.72c0,1.38,0.02,2.83,0.07,4.35c0.05,1.51,0.07,3.06,0.07,4.64
			c0,3.85-1.28,6.75-3.85,8.69c-2.56,1.94-6.39,3.21-11.47,3.8l-1.04-2.32C118.78,216.75,119.59,216.45,120.24,216.15z"/>
		<path class="st1" d="M191.33,211.41c-1.11-0.07-2.16-0.1-3.15-0.1c-0.99,0-1.97,0-2.94,0s-1.95,0-2.94,0
			c-0.99,0-1.97,0.03-2.94,0.1c-0.74-1.61-1.5-3.26-2.29-4.94c-0.79-1.68-1.62-3.36-2.49-5.04c-1.48-0.03-2.96-0.06-4.43-0.07
			c-1.48-0.02-2.96-0.03-4.43-0.03c-1.2,0-2.4,0.01-3.6,0.03c-1.2,0.02-2.4,0.04-3.6,0.07c-0.92,1.68-1.78,3.36-2.56,5.04
			c-0.79,1.68-1.5,3.33-2.15,4.94c-0.55-0.07-1.1-0.1-1.63-0.1c-0.53,0-1.07,0-1.63,0s-1.11,0-1.66,0s-1.16,0.03-1.8,0.1
			c0.55-0.86,1.29-2.04,2.22-3.56c0.92-1.51,1.94-3.23,3.05-5.14c1.11-1.91,2.3-3.96,3.57-6.15c1.27-2.19,2.54-4.4,3.81-6.64
			c1.27-2.24,2.52-4.45,3.74-6.62c1.22-2.17,2.34-4.2,3.36-6.08c0.46,0.07,0.9,0.12,1.32,0.17c0.42,0.05,0.85,0.07,1.32,0.07
			c0.46,0,0.9-0.03,1.32-0.07c0.42-0.05,0.85-0.11,1.32-0.17c1.48,2.8,3.06,5.8,4.75,8.99c1.69,3.19,3.38,6.33,5.09,9.41
			c1.71,3.08,3.37,6,4.99,8.77C188.51,207.16,189.99,209.5,191.33,211.41z M166.8,186.76c-1.2,1.98-2.33,3.93-3.4,5.85
			c-1.06,1.93-2.1,3.9-3.12,5.9h12.68c-1.02-2.01-2.02-3.98-3.01-5.9C168.96,190.69,167.91,188.74,166.8,186.76z"/>
		<path class="st1" d="M215.65,195.85v2.02c0,2.73,0.05,5.16,0.14,7.29c0.09,2.12,0.23,4.21,0.42,6.25c-0.79-0.07-1.64-0.1-2.56-0.1
			c-0.92,0-1.96,0-3.12,0c-1.16,0-2.19,0-3.12,0c-0.92,0-1.78,0.03-2.56,0.1c0.18-2.04,0.32-4.12,0.42-6.25
			c0.09-2.12,0.14-4.55,0.14-7.29v-6.72c0-2.73-0.05-5.16-0.14-7.29c-0.09-2.12-0.23-4.26-0.42-6.4c0.79,0.07,1.64,0.12,2.56,0.17
			c0.92,0.05,1.96,0.07,3.12,0.07c1.25,0,2.67-0.04,4.26-0.12c1.59-0.08,3.57-0.12,5.92-0.12c1.75,0,3.26,0.03,4.5,0.1
			c1.25,0.07,2.32,0.17,3.22,0.3c0.9,0.13,1.69,0.31,2.36,0.52c0.67,0.21,1.3,0.47,1.91,0.77c1.39,0.72,2.48,1.62,3.29,2.69
			c0.81,1.07,1.21,2.35,1.21,3.83c0,2.4-0.92,4.36-2.77,5.88c-1.85,1.51-4.5,2.59-7.97,3.21c2.22,2.8,4.6,5.59,7.14,8.37
			c2.54,2.78,5.08,5.54,7.62,8.27c-1.06-0.07-2.1-0.1-3.12-0.1c-1.02,0-2.06,0-3.12,0c-1.06,0-2.11,0-3.15,0
			c-1.04,0-2.09,0.03-3.15,0.1l-12.4-15.56H215.65z M226.6,186.76c0-1.45-0.21-2.6-0.62-3.46c-0.42-0.86-1.05-1.51-1.91-1.95
			c-0.85-0.44-1.96-0.73-3.33-0.86c-1.36-0.13-2.99-0.2-4.88-0.2c-0.14,4.48-0.21,8.96-0.21,13.44c0.28,0.03,0.54,0.06,0.8,0.07
			c0.25,0.02,0.5,0.03,0.73,0.03c3.05,0,5.38-0.58,7-1.75C225.79,190.9,226.6,189.13,226.6,186.76z"/>
		<path class="st1" d="M293.74,211.41c-1.11-0.07-2.16-0.1-3.15-0.1c-0.99,0-1.97,0-2.94,0s-1.95,0-2.94,0
			c-0.99,0-1.97,0.03-2.94,0.1c-0.74-1.61-1.5-3.26-2.29-4.94c-0.79-1.68-1.62-3.36-2.49-5.04c-1.48-0.03-2.96-0.06-4.43-0.07
			c-1.48-0.02-2.96-0.03-4.43-0.03c-1.2,0-2.4,0.01-3.6,0.03c-1.2,0.02-2.4,0.04-3.6,0.07c-0.92,1.68-1.78,3.36-2.56,5.04
			c-0.79,1.68-1.5,3.33-2.15,4.94c-0.55-0.07-1.1-0.1-1.63-0.1c-0.53,0-1.07,0-1.63,0s-1.11,0-1.66,0s-1.16,0.03-1.8,0.1
			c0.55-0.86,1.29-2.04,2.22-3.56c0.92-1.51,1.94-3.23,3.05-5.14c1.11-1.91,2.3-3.96,3.57-6.15c1.27-2.19,2.54-4.4,3.81-6.64
			c1.27-2.24,2.52-4.45,3.74-6.62c1.22-2.17,2.34-4.2,3.36-6.08c0.46,0.07,0.9,0.12,1.32,0.17c0.42,0.05,0.85,0.07,1.32,0.07
			c0.46,0,0.9-0.03,1.32-0.07c0.42-0.05,0.85-0.11,1.32-0.17c1.48,2.8,3.06,5.8,4.75,8.99c1.69,3.19,3.38,6.33,5.09,9.41
			c1.71,3.08,3.37,6,4.99,8.77C290.92,207.16,292.4,209.5,293.74,211.41z M269.21,186.76c-1.2,1.98-2.33,3.93-3.4,5.85
			c-1.06,1.93-2.1,3.9-3.12,5.9h12.68c-1.02-2.01-2.02-3.98-3.01-5.9C271.37,190.69,270.32,188.74,269.21,186.76z"/>
	</g>
	<g>
		<path class="st1" d="M79.02,232.78c0.54-0.41,1.04-0.68,1.49-0.83c0.46-0.14,0.92-0.22,1.4-0.22c0.43,0,0.83,0.06,1.19,0.19
			c0.36,0.13,0.67,0.31,0.92,0.54c0.25,0.23,0.45,0.52,0.59,0.85s0.22,0.69,0.22,1.09c0,0.68-0.01,1.37-0.04,2.04
			c-0.02,0.68-0.04,1.4-0.04,2.15c0,0.14,0,0.3,0.01,0.46s0.03,0.31,0.08,0.43s0.12,0.23,0.21,0.32s0.23,0.13,0.41,0.13
			c0.06,0,0.12,0,0.19-0.01c0.07-0.01,0.13-0.03,0.19-0.06v0.4c-0.13,0.06-0.3,0.11-0.5,0.14s-0.42,0.05-0.66,0.05
			c-0.38,0-0.68-0.1-0.88-0.3c-0.2-0.2-0.32-0.45-0.36-0.76c-0.43,0.43-0.86,0.75-1.28,0.95c-0.42,0.2-0.94,0.31-1.55,0.31
			c-0.3,0-0.59-0.04-0.88-0.13s-0.54-0.22-0.77-0.41c-0.22-0.19-0.4-0.42-0.54-0.69c-0.14-0.27-0.21-0.58-0.21-0.93
			c0-0.72,0.23-1.28,0.68-1.67c0.45-0.4,1.07-0.66,1.86-0.79c0.65-0.11,1.15-0.2,1.52-0.28c0.37-0.08,0.64-0.16,0.81-0.24
			c0.17-0.08,0.28-0.18,0.31-0.3c0.04-0.11,0.05-0.26,0.05-0.44c0-0.3-0.04-0.59-0.11-0.86c-0.07-0.28-0.19-0.52-0.34-0.72
			c-0.16-0.2-0.36-0.37-0.61-0.5s-0.56-0.19-0.92-0.19c-0.48,0-0.93,0.11-1.34,0.32s-0.72,0.52-0.93,0.9h-0.2V232.78z M83.47,235.98
			c-0.2,0.07-0.44,0.13-0.71,0.18s-0.54,0.1-0.82,0.15c-0.28,0.05-0.55,0.12-0.82,0.21s-0.51,0.2-0.72,0.34
			c-0.21,0.14-0.38,0.32-0.5,0.54c-0.13,0.22-0.19,0.49-0.19,0.83c0,0.56,0.16,0.99,0.49,1.28c0.32,0.29,0.68,0.43,1.08,0.43
			c0.46,0,0.87-0.13,1.25-0.38s0.67-0.55,0.87-0.88L83.47,235.98z"/>
		<path class="st1" d="M94.74,235.28c0.43-0.58,0.85-1.14,1.27-1.68s0.82-1.11,1.21-1.68c0.11,0.02,0.21,0.04,0.31,0.06
			c0.1,0.02,0.21,0.03,0.31,0.03c0.14,0,0.35-0.03,0.61-0.09c-0.58,0.66-1.14,1.31-1.68,1.95c-0.55,0.64-1.09,1.29-1.63,1.93
			c0.54,0.79,1.1,1.58,1.68,2.35c0.58,0.77,1.18,1.55,1.79,2.31c-0.17-0.02-0.33-0.04-0.49-0.04c-0.16,0-0.3,0-0.43,0
			s-0.28,0-0.43,0c-0.16,0-0.32,0.01-0.49,0.04c-0.4-0.59-0.8-1.18-1.22-1.79c-0.42-0.61-0.85-1.21-1.28-1.83
			c-0.44,0.61-0.88,1.22-1.3,1.83c-0.43,0.61-0.84,1.2-1.25,1.79c-0.19-0.02-0.39-0.04-0.59-0.04c-0.22,0-0.42,0.01-0.61,0.04
			c0.58-0.67,1.14-1.35,1.69-2.04c0.55-0.69,1.1-1.4,1.64-2.12c-0.54-0.73-1.08-1.46-1.63-2.18s-1.11-1.46-1.68-2.21
			c0.17,0.02,0.33,0.04,0.48,0.06c0.15,0.02,0.31,0.03,0.48,0.03s0.33-0.01,0.48-0.03c0.15-0.02,0.31-0.04,0.48-0.06
			c0.35,0.58,0.71,1.14,1.09,1.68S94.32,234.71,94.74,235.28z"/>
		<path class="st1" d="M111.93,235.97c0,0.7-0.11,1.33-0.32,1.91c-0.21,0.58-0.5,1.07-0.86,1.48c-0.37,0.41-0.8,0.73-1.3,0.95
			c-0.5,0.22-1.04,0.33-1.61,0.33s-1.1-0.12-1.56-0.37c-0.46-0.25-0.81-0.54-1.05-0.89c-0.43,0.35-0.83,0.7-1.21,1.04h-0.32
			c0.02-0.29,0.04-0.64,0.06-1.04s0.03-0.84,0.04-1.3c0.01-0.46,0.02-0.93,0.03-1.41c0.01-0.48,0.01-0.92,0.01-1.33v-3.26
			c0-0.41,0-0.85-0.01-1.33c-0.01-0.48-0.02-0.95-0.03-1.42c-0.01-0.47-0.03-0.91-0.04-1.34c-0.02-0.43-0.04-0.79-0.06-1.09
			c0.34,0.06,0.61,0.09,0.81,0.09c0.13,0,0.27-0.01,0.41-0.03c0.14-0.02,0.3-0.04,0.47-0.06c-0.04,0.24-0.07,0.62-0.09,1.14
			c-0.02,0.52-0.04,1.1-0.05,1.75c-0.01,0.64-0.02,1.3-0.04,1.98c-0.01,0.68-0.02,1.29-0.04,1.84h0.04
			c0.41-0.65,0.86-1.12,1.35-1.42c0.49-0.3,1.06-0.45,1.71-0.45c0.62,0,1.16,0.12,1.62,0.35c0.46,0.23,0.83,0.54,1.13,0.93
			s0.53,0.83,0.68,1.34C111.85,234.87,111.93,235.4,111.93,235.97z M110.34,235.91c0-0.55-0.07-1.04-0.21-1.47
			c-0.14-0.43-0.32-0.78-0.54-1.07s-0.48-0.51-0.77-0.66c-0.29-0.15-0.6-0.23-0.91-0.23c-0.37,0-0.73,0.07-1.07,0.21
			c-0.34,0.14-0.64,0.37-0.89,0.68s-0.45,0.73-0.6,1.24s-0.22,1.14-0.22,1.88c0,2.41,0.88,3.62,2.63,3.62c0.37,0,0.71-0.1,1.03-0.3
			c0.31-0.2,0.58-0.48,0.82-0.86s0.42-0.82,0.55-1.33C110.28,237.12,110.34,236.55,110.34,235.91z"/>
		<path class="st1" d="M116.91,236.22c0-0.82,0.13-1.51,0.39-2.08c0.26-0.57,0.6-1.03,1.02-1.39c0.42-0.35,0.89-0.61,1.41-0.77
			c0.52-0.16,1.04-0.24,1.56-0.24c0.53,0,1.05,0.08,1.57,0.24c0.52,0.16,0.98,0.42,1.4,0.77c0.42,0.35,0.76,0.82,1.02,1.39
			c0.26,0.57,0.39,1.26,0.39,2.08s-0.13,1.51-0.39,2.08c-0.26,0.57-0.6,1.03-1.02,1.39c-0.42,0.35-0.89,0.6-1.4,0.75
			c-0.52,0.14-1.04,0.22-1.57,0.22c-0.52,0-1.04-0.07-1.56-0.22c-0.52-0.14-0.99-0.39-1.41-0.75c-0.42-0.35-0.76-0.82-1.02-1.39
			C117.04,237.73,116.91,237.04,116.91,236.22z M118.5,236.22c0,0.5,0.04,0.99,0.13,1.46c0.09,0.47,0.24,0.88,0.46,1.25
			c0.22,0.37,0.5,0.66,0.86,0.87s0.8,0.32,1.33,0.32s0.97-0.11,1.33-0.32s0.65-0.51,0.86-0.87s0.37-0.78,0.46-1.25
			s0.13-0.95,0.13-1.46s-0.04-0.99-0.13-1.46s-0.24-0.88-0.46-1.25s-0.5-0.66-0.86-0.87s-0.8-0.32-1.33-0.32s-0.97,0.11-1.33,0.32
			s-0.65,0.51-0.86,0.87c-0.22,0.37-0.37,0.78-0.46,1.25C118.54,235.23,118.5,235.71,118.5,236.22z"/>
		<path class="st1" d="M135.03,233.19c-0.17-0.06-0.35-0.09-0.53-0.09c-0.29,0-0.55,0.07-0.77,0.2c-0.23,0.13-0.42,0.31-0.58,0.53
			c-0.16,0.22-0.28,0.49-0.36,0.79c-0.08,0.31-0.13,0.63-0.13,0.98v1.98c0,0.8,0,1.42,0.01,1.84c0.01,0.43,0.03,0.77,0.06,1.04
			c-0.24-0.02-0.48-0.04-0.72-0.04c-0.26,0-0.52,0.01-0.76,0.04c0.04-0.41,0.06-0.96,0.06-1.67s0.01-1.56,0.01-2.58v-0.58
			c0-0.47,0-1.01-0.01-1.62c-0.01-0.61-0.03-1.31-0.06-2.11c0.13,0.02,0.26,0.04,0.38,0.06c0.12,0.02,0.25,0.03,0.38,0.03
			c0.11,0,0.22-0.01,0.34-0.03c0.12-0.02,0.25-0.04,0.38-0.06c-0.05,0.43-0.08,0.77-0.08,1.03s-0.01,0.49-0.01,0.72l0.04,0.02
			c0.71-1.3,1.5-1.94,2.38-1.94c0.11,0,0.2,0.01,0.28,0.02c0.08,0.01,0.18,0.04,0.3,0.09c-0.06,0.14-0.1,0.36-0.11,0.66
			s-0.02,0.56-0.02,0.8l-0.13,0.09C135.32,233.32,135.2,233.25,135.03,233.19z"/>
		<path class="st1" d="M140.12,236.22c0-0.82,0.13-1.51,0.39-2.08c0.26-0.57,0.6-1.03,1.02-1.39c0.42-0.35,0.89-0.61,1.41-0.77
			c0.52-0.16,1.04-0.24,1.56-0.24c0.53,0,1.05,0.08,1.57,0.24c0.52,0.16,0.98,0.42,1.4,0.77c0.42,0.35,0.76,0.82,1.02,1.39
			c0.26,0.57,0.39,1.26,0.39,2.08s-0.13,1.51-0.39,2.08c-0.26,0.57-0.6,1.03-1.02,1.39c-0.42,0.35-0.89,0.6-1.4,0.75
			c-0.52,0.14-1.04,0.22-1.57,0.22c-0.52,0-1.04-0.07-1.56-0.22c-0.52-0.14-0.99-0.39-1.41-0.75c-0.42-0.35-0.76-0.82-1.02-1.39
			C140.24,237.73,140.12,237.04,140.12,236.22z M141.7,236.22c0,0.5,0.04,0.99,0.13,1.46c0.09,0.47,0.24,0.88,0.46,1.25
			c0.22,0.37,0.5,0.66,0.86,0.87s0.8,0.32,1.33,0.32s0.97-0.11,1.33-0.32s0.65-0.51,0.86-0.87s0.37-0.78,0.46-1.25
			s0.13-0.95,0.13-1.46s-0.04-0.99-0.13-1.46s-0.24-0.88-0.46-1.25s-0.5-0.66-0.86-0.87s-0.8-0.32-1.33-0.32s-0.97,0.11-1.33,0.32
			s-0.65,0.51-0.86,0.87c-0.22,0.37-0.37,0.78-0.46,1.25C141.74,235.23,141.7,235.71,141.7,236.22z"/>
		<path class="st1" d="M156.1,229.5c-0.04,0.46-0.06,0.9-0.08,1.34c-0.02,0.44-0.04,0.88-0.06,1.32c0.13,0,0.38,0,0.74-0.01
			c0.36-0.01,0.75-0.02,1.17-0.04c-0.01,0.04-0.02,0.1-0.02,0.2v0.18v0.2c0,0.08,0.01,0.14,0.02,0.18
			c-0.16-0.01-0.32-0.02-0.49-0.03s-0.35-0.01-0.54-0.01h-0.88c-0.01,0.05-0.03,0.24-0.04,0.58c-0.02,0.34-0.03,0.73-0.04,1.2
			c-0.01,0.46-0.02,0.95-0.03,1.45s-0.01,0.95-0.01,1.35c0,0.34,0.01,0.67,0.03,0.99c0.02,0.32,0.08,0.62,0.17,0.87
			c0.1,0.26,0.24,0.46,0.43,0.62c0.19,0.16,0.47,0.23,0.83,0.23c0.1,0,0.22-0.01,0.39-0.04s0.3-0.05,0.42-0.09v0.43
			c-0.2,0.04-0.43,0.08-0.67,0.13c-0.25,0.05-0.48,0.08-0.71,0.08c-0.76,0-1.31-0.19-1.67-0.56c-0.36-0.37-0.54-0.92-0.54-1.64
			c0-0.32,0.01-0.67,0.02-1.05s0.03-0.79,0.04-1.24c0.02-0.45,0.03-0.95,0.04-1.49s0.02-1.16,0.02-1.83h-0.58
			c-0.1,0-0.2,0-0.31,0.01c-0.11,0.01-0.22,0.01-0.34,0.03c0.01-0.07,0.02-0.14,0.03-0.21c0.01-0.07,0.01-0.14,0.01-0.21
			c0-0.06,0-0.12-0.01-0.18c-0.01-0.06-0.02-0.12-0.03-0.18c0.54,0.04,0.94,0.05,1.19,0.05c-0.01-0.24-0.02-0.54-0.03-0.9
			c-0.01-0.36-0.02-0.73-0.04-1.12l1.49-0.63H156.1z"/>
		<path class="st1" d="M173.31,229.5c-0.04,0.46-0.06,0.9-0.08,1.34c-0.02,0.44-0.04,0.88-0.06,1.32c0.13,0,0.38,0,0.74-0.01
			c0.36-0.01,0.75-0.02,1.17-0.04c-0.01,0.04-0.02,0.1-0.02,0.2v0.18v0.2c0,0.08,0.01,0.14,0.02,0.18
			c-0.16-0.01-0.32-0.02-0.49-0.03s-0.35-0.01-0.54-0.01h-0.88c-0.01,0.05-0.03,0.24-0.04,0.58c-0.02,0.34-0.03,0.73-0.04,1.2
			c-0.01,0.46-0.02,0.95-0.03,1.45s-0.01,0.95-0.01,1.35c0,0.34,0.01,0.67,0.03,0.99c0.02,0.32,0.08,0.62,0.17,0.87
			c0.1,0.26,0.24,0.46,0.43,0.62c0.19,0.16,0.47,0.23,0.83,0.23c0.1,0,0.22-0.01,0.39-0.04s0.3-0.05,0.42-0.09v0.43
			c-0.2,0.04-0.43,0.08-0.67,0.13c-0.25,0.05-0.48,0.08-0.71,0.08c-0.76,0-1.31-0.19-1.67-0.56c-0.36-0.37-0.54-0.92-0.54-1.64
			c0-0.32,0.01-0.67,0.02-1.05s0.03-0.79,0.04-1.24c0.02-0.45,0.03-0.95,0.04-1.49s0.02-1.16,0.02-1.83h-0.58
			c-0.1,0-0.2,0-0.31,0.01c-0.11,0.01-0.22,0.01-0.34,0.03c0.01-0.07,0.02-0.14,0.03-0.21c0.01-0.07,0.01-0.14,0.01-0.21
			c0-0.06,0-0.12-0.01-0.18c-0.01-0.06-0.02-0.12-0.03-0.18c0.54,0.04,0.94,0.05,1.19,0.05c-0.01-0.24-0.02-0.54-0.03-0.9
			c-0.01-0.36-0.02-0.73-0.04-1.12l1.49-0.63H173.31z"/>
		<path class="st1" d="M180.49,228.78c0-0.25,0.09-0.47,0.27-0.65c0.18-0.18,0.4-0.27,0.65-0.27s0.47,0.09,0.65,0.27
			c0.18,0.18,0.27,0.4,0.27,0.65c0,0.25-0.09,0.47-0.27,0.65c-0.18,0.18-0.4,0.27-0.65,0.27s-0.47-0.09-0.65-0.27
			C180.58,229.25,180.49,229.04,180.49,228.78z M180.74,235.28c0-0.54-0.01-1.11-0.03-1.7c-0.02-0.59-0.06-1.15-0.12-1.67
			c0.33,0.06,0.61,0.09,0.81,0.09s0.47-0.03,0.81-0.09c-0.06,0.52-0.1,1.07-0.12,1.67c-0.02,0.59-0.03,1.16-0.03,1.7v1.87
			c0,0.54,0.01,1.11,0.03,1.7c0.02,0.59,0.06,1.13,0.12,1.61c-0.28-0.02-0.55-0.04-0.81-0.04s-0.53,0.01-0.81,0.04
			c0.06-0.48,0.1-1.02,0.12-1.61c0.02-0.59,0.03-1.16,0.03-1.7V235.28z"/>
		<path class="st1" d="M189.71,238.27c0.55-0.71,1.08-1.4,1.59-2.09s1-1.33,1.45-1.94c0.45-0.61,0.84-1.13,1.16-1.57
			c-0.08,0-0.32,0.01-0.71,0.02c-0.39,0.01-0.84,0.03-1.34,0.06c-0.5,0.03-1.02,0.06-1.54,0.09c-0.52,0.03-0.95,0.06-1.29,0.1
			c0.04-0.17,0.05-0.34,0.05-0.5c0-0.16-0.02-0.33-0.05-0.52c0.38,0.04,0.95,0.06,1.69,0.07c0.74,0.01,1.68,0.02,2.81,0.02
			c0.25,0,0.48,0,0.68,0c0.22,0,0.41-0.01,0.59-0.02c0.18-0.01,0.36-0.02,0.53-0.04c0.17-0.01,0.36-0.02,0.55-0.04v0.27
			c-0.48,0.62-1,1.31-1.57,2.06c-0.57,0.75-1.12,1.48-1.67,2.2c-0.54,0.71-1.03,1.37-1.48,1.96c-0.44,0.59-0.78,1.05-1.01,1.36
			c0.49,0,0.95,0,1.36-0.01c0.41-0.01,0.83-0.02,1.25-0.04c0.42-0.02,0.87-0.04,1.35-0.07c0.48-0.03,1.04-0.07,1.67-0.13
			c-0.05,0.14-0.07,0.31-0.07,0.5c0,0.19,0.02,0.34,0.07,0.45c-0.76-0.02-1.51-0.04-2.25-0.04s-1.49,0-2.25,0c-0.54,0-1.07,0-1.59,0
			c-0.52,0-1.05,0.01-1.59,0.04v-0.2C188.64,239.64,189.17,238.98,189.71,238.27z"/>
		<path class="st1" d="M201.69,228.78c0-0.25,0.09-0.47,0.27-0.65c0.18-0.18,0.4-0.27,0.65-0.27s0.47,0.09,0.65,0.27
			c0.18,0.18,0.27,0.4,0.27,0.65c0,0.25-0.09,0.47-0.27,0.65c-0.18,0.18-0.4,0.27-0.65,0.27s-0.47-0.09-0.65-0.27
			C201.78,229.25,201.69,229.04,201.69,228.78z M201.95,235.28c0-0.54-0.01-1.11-0.03-1.7c-0.02-0.59-0.06-1.15-0.12-1.67
			c0.33,0.06,0.61,0.09,0.81,0.09s0.47-0.03,0.81-0.09c-0.06,0.52-0.1,1.07-0.12,1.67c-0.02,0.59-0.03,1.16-0.03,1.7v1.87
			c0,0.54,0.01,1.11,0.03,1.7c0.02,0.59,0.06,1.13,0.12,1.61c-0.28-0.02-0.55-0.04-0.81-0.04s-0.53,0.01-0.81,0.04
			c0.06-0.48,0.1-1.02,0.12-1.61c0.02-0.59,0.03-1.16,0.03-1.7V235.28z"/>
		<path class="st1" d="M210.09,233.58c-0.02-0.59-0.06-1.15-0.12-1.67c0.34,0.06,0.61,0.09,0.81,0.09c0.1,0,0.2-0.01,0.31-0.03
			c0.11-0.02,0.25-0.04,0.41-0.06c-0.04,0.48-0.05,0.96-0.05,1.44h0.04c0.64-1.08,1.53-1.62,2.68-1.62c0.3,0,0.59,0.04,0.88,0.14
			c0.29,0.09,0.55,0.21,0.78,0.37c0.23,0.16,0.43,0.35,0.6,0.57c0.17,0.22,0.28,0.46,0.34,0.71h0.04c0.29-0.58,0.68-1.02,1.18-1.32
			c0.5-0.31,1.07-0.46,1.72-0.46c0.4,0,0.76,0.05,1.1,0.16c0.34,0.11,0.63,0.28,0.87,0.5c0.25,0.23,0.44,0.52,0.58,0.88
			c0.14,0.36,0.21,0.79,0.21,1.3c0,0.2-0.01,0.43-0.02,0.67c-0.01,0.24-0.02,0.52-0.04,0.84c-0.01,0.32-0.02,0.68-0.04,1.08
			c-0.01,0.4-0.02,0.87-0.02,1.39c0,0.32,0,0.64,0.01,0.94c0.01,0.3,0.02,0.62,0.04,0.97c-0.13-0.02-0.26-0.04-0.4-0.04
			s-0.26,0-0.38,0c-0.13,0-0.26,0-0.4,0c-0.13,0-0.26,0.01-0.4,0.04c0.04-0.3,0.08-0.91,0.12-1.82c0.04-0.91,0.06-2.18,0.06-3.82
			c0-0.3-0.03-0.58-0.1-0.85c-0.07-0.26-0.17-0.49-0.31-0.68c-0.14-0.19-0.34-0.34-0.58-0.46c-0.24-0.11-0.54-0.17-0.9-0.17
			c-0.43,0-0.8,0.08-1.1,0.25c-0.3,0.17-0.53,0.37-0.7,0.59c-0.1,0.13-0.17,0.26-0.22,0.4c-0.05,0.13-0.1,0.33-0.13,0.6
			c-0.03,0.27-0.05,0.65-0.06,1.13c-0.01,0.49-0.02,1.16-0.02,2.01c0,0.52,0.01,0.99,0.03,1.41c0.02,0.43,0.04,0.89,0.06,1.4
			c-0.28-0.02-0.54-0.04-0.79-0.04s-0.52,0.01-0.79,0.04c0.06-0.66,0.1-1.33,0.13-2.02c0.02-0.68,0.04-1.36,0.04-2.02
			c0-0.56,0-1-0.01-1.32c-0.01-0.32-0.02-0.57-0.04-0.76c-0.02-0.19-0.06-0.34-0.1-0.46s-0.1-0.25-0.17-0.4
			c-0.13-0.23-0.34-0.42-0.62-0.58c-0.28-0.16-0.57-0.24-0.87-0.24c-0.79,0-1.37,0.26-1.75,0.77c-0.37,0.52-0.56,1.24-0.56,2.18
			v1.53c0,0.54,0.01,1.11,0.03,1.7c0.02,0.59,0.06,1.13,0.12,1.61c-0.28-0.02-0.55-0.04-0.81-0.04c-0.26,0-0.53,0.01-0.81,0.04
			c0.06-0.48,0.1-1.02,0.12-1.61s0.03-1.16,0.03-1.7v-1.87C210.12,234.74,210.11,234.18,210.09,233.58z"/>
		<path class="st1" d="M228.89,228.78c0-0.25,0.09-0.47,0.27-0.65c0.18-0.18,0.4-0.27,0.65-0.27s0.47,0.09,0.65,0.27
			c0.18,0.18,0.27,0.4,0.27,0.65c0,0.25-0.09,0.47-0.27,0.65c-0.18,0.18-0.4,0.27-0.65,0.27s-0.47-0.09-0.65-0.27
			C228.98,229.25,228.89,229.04,228.89,228.78z M229.14,235.28c0-0.54-0.01-1.11-0.03-1.7c-0.02-0.59-0.06-1.15-0.12-1.67
			c0.33,0.06,0.61,0.09,0.81,0.09s0.47-0.03,0.81-0.09c-0.06,0.52-0.1,1.07-0.12,1.67c-0.02,0.59-0.03,1.16-0.03,1.7v1.87
			c0,0.54,0.01,1.11,0.03,1.7c0.02,0.59,0.06,1.13,0.12,1.61c-0.28-0.02-0.55-0.04-0.81-0.04s-0.53,0.01-0.81,0.04
			c0.06-0.48,0.1-1.02,0.12-1.61c0.02-0.59,0.03-1.16,0.03-1.7V235.28z"/>
	</g>
</g>
</svg>
