<?xml version="1.0" encoding="utf-8"?>
<!-- Generator: Adobe Illustrator 23.0.3, SVG Export Plug-In . SVG Version: 6.00 Build 0)  -->
<svg version="1.1" id="Слой_1" xmlns="http://www.w3.org/2000/svg" xmlns:xlink="http://www.w3.org/1999/xlink" x="0px" y="0px"
	 viewBox="0 0 313.4 243.5" style="enable-background:new 0 0 313.4 243.5;" xml:space="preserve">
<style type="text/css">
	.st0{fill-rule:evenodd;clip-rule:evenodd;fill:#0D8356;}
	.st1{fill:#0D8356;}
</style>
<g>
	<ellipse class="st0" cx="156.7" cy="45.4" rx="13.3" ry="13.3"/>
	<path class="st0" d="M109.1,147.7c16.6-23,37.7-41.9,61.6-55.9c14.7-8.6,30.4-15.3,46.9-19.9c-18.9,2-37.4,6.7-54.8,13.9
		c-25.8,10.7-49.4,26.8-68.9,47.6C98.3,138.7,103.4,143.6,109.1,147.7L109.1,147.7z M220.6,117.6c4.7-9.2,10.3-18,16.7-26.2
		c-2.4,20.6-12.4,38.8-27.2,51.7C212.8,134.3,216.4,125.8,220.6,117.6L220.6,117.6z M201.6,119.7c8.9-11.5,19-22,30.2-31.4
		c-6.4,8.3-12,17.2-16.8,26.5c-5.7,11-10.1,22.7-13.3,34.8c-7.4,4.9-15.6,8.7-24.4,11C183.8,145.9,192,132.2,201.6,119.7
		L201.6,119.7z M187.4,108.3C201,96,216.7,85.9,233.9,78.6c-14,10.8-26.4,23.3-37.1,37.2c-10.9,14.1-19.9,29.6-26.9,46.2
		c-4.3,0.7-8.7,1.1-13.1,1.1c-3.1,0-6.3-0.2-9.3-0.5C157,141.8,170.6,123.3,187.4,108.3L187.4,108.3z M173.8,97.1
		c15.3-8.9,31.7-15.8,48.9-20.3C208.3,84,195,93,183.2,103.6c-17.8,16-32.2,35.7-42.2,58c-9.6-1.9-18.7-5.5-26.8-10.5
		C130.3,129,150.6,110.7,173.8,97.1z"/>
	<path class="st0" d="M139.9,90.1c-13.8-7.8-28.6-13.9-44.1-18.3c18.5,2,36.5,6.5,53.5,13.4C146.1,86.8,142.9,88.4,139.9,90.1
		L139.9,90.1z M92.8,117.6c0.9,1.8,1.8,3.6,2.7,5.5c-1.8,1.8-3.6,3.6-5.3,5.4c-7.5-10.7-12.5-23.4-14-37
		C82.5,99.6,88.1,108.4,92.8,117.6L92.8,117.6z M100.2,118.6c2-1.9,4.1-3.7,6.2-5.5c-7.5-9-15.8-17.3-24.9-24.8
		c6.4,8.3,12,17.2,16.8,26.5C99,116,99.6,117.3,100.2,118.6L100.2,118.6z M111.3,109.2c2.8-2.2,5.6-4.3,8.4-6.3
		c-12.1-9.8-25.6-18-40.1-24.2C91.2,87.7,101.8,97.9,111.3,109.2L111.3,109.2z M125,99.1c2.8-1.9,5.7-3.7,8.5-5.4
		c-13.5-7.3-27.9-12.9-42.9-16.9C103,82.9,114.5,90.4,125,99.1z"/>
	<path class="st0" d="M76.9,67.8C83.8,29.2,117.4,1,156.7,1c39.3,0,72.9,28.2,79.9,66.8c-10.1-35.8-42.7-60.5-79.9-60.5
		C119.6,7.4,87,32.1,76.9,67.8z"/>
	<path class="st0" d="M156.7,21.2L156.7,21.2c0.4,0,0.7,0.3,0.7,0.7v5.8c0,0.4-0.3,0.7-0.7,0.7l0,0c-0.4,0-0.7-0.3-0.7-0.7v-5.8
		C156.1,21.5,156.4,21.2,156.7,21.2z"/>
	<path class="st0" d="M163,22L163,22c0.4,0.1,0.6,0.5,0.5,0.8l-1.5,5.6c-0.1,0.4-0.5,0.6-0.8,0.5l0,0c-0.4-0.1-0.6-0.5-0.5-0.8
		l1.5-5.6C162.3,22.1,162.7,21.9,163,22z"/>
	<path class="st0" d="M168.9,24.4L168.9,24.4c0.3,0.2,0.4,0.6,0.2,0.9l-2.9,5c-0.2,0.3-0.6,0.4-0.9,0.2l0,0
		c-0.3-0.2-0.4-0.6-0.2-0.9l2.9-5C168.1,24.4,168.5,24.3,168.9,24.4z"/>
	<path class="st0" d="M173.9,28.3L173.9,28.3c0.3,0.3,0.3,0.7,0,0.9l-4.1,4.1c-0.3,0.3-0.7,0.3-0.9,0l0,0c-0.3-0.3-0.3-0.7,0-0.9
		l4.1-4.1C173.2,28,173.6,28,173.9,28.3z"/>
	<path class="st0" d="M177.7,33.3L177.7,33.3c0.2,0.3,0.1,0.7-0.2,0.9l-5,2.9c-0.3,0.2-0.7,0.1-0.9-0.2l0,0
		c-0.2-0.3-0.1-0.7,0.2-0.9l5-2.9C177.1,32.9,177.5,33,177.7,33.3z"/>
	<path class="st0" d="M180.1,39.1L180.1,39.1c0.1,0.3-0.1,0.7-0.5,0.8l-5.6,1.5c-0.4,0.1-0.7-0.1-0.8-0.5l0,0
		c-0.1-0.3,0.1-0.7,0.5-0.8l5.6-1.5C179.7,38.6,180,38.8,180.1,39.1z"/>
	<path class="st0" d="M181,45.4L181,45.4c0,0.4-0.3,0.7-0.7,0.7h-5.8c-0.4,0-0.7-0.3-0.7-0.7l0,0c0-0.4,0.3-0.7,0.7-0.7h5.8
		C180.7,44.7,181,45,181,45.4z"/>
	<path class="st0" d="M180.1,51.7L180.1,51.7c-0.1,0.3-0.5,0.6-0.8,0.5l-5.6-1.5c-0.4-0.1-0.6-0.5-0.5-0.8l0,0
		c0.1-0.3,0.5-0.6,0.8-0.5l5.6,1.5C180,51,180.2,51.3,180.1,51.7z"/>
	<path class="st0" d="M177.7,57.5L177.7,57.5c-0.2,0.3-0.6,0.4-0.9,0.2l-5-2.9c-0.3-0.2-0.4-0.6-0.2-0.9l0,0
		c0.2-0.3,0.6-0.4,0.9-0.2l5,2.9C177.8,56.8,177.9,57.2,177.7,57.5z"/>
	<path class="st0" d="M173.9,62.5L173.9,62.5c-0.3,0.3-0.7,0.3-0.9,0l-4.1-4.1c-0.3-0.3-0.3-0.7,0-0.9l0,0c0.3-0.3,0.7-0.3,0.9,0
		l4.1,4.1C174.1,61.8,174.1,62.3,173.9,62.5z"/>
	<path class="st0" d="M168.9,66.4L168.9,66.4c-0.3,0.2-0.7,0.1-0.9-0.2l-2.9-5c-0.2-0.3-0.1-0.7,0.2-0.9l0,0
		c0.3-0.2,0.7-0.1,0.9,0.2l2.9,5C169.3,65.8,169.2,66.2,168.9,66.4z"/>
	<path class="st0" d="M163,68.8L163,68.8c-0.4,0.1-0.7-0.1-0.8-0.5l-1.5-5.6c-0.1-0.3,0.1-0.7,0.5-0.8l0,0c0.4-0.1,0.7,0.1,0.8,0.5
		l1.5,5.6C163.6,68.3,163.4,68.7,163,68.8z"/>
	<path class="st0" d="M156.7,69.6L156.7,69.6c-0.4,0-0.7-0.3-0.7-0.7v-5.8c0-0.4,0.3-0.7,0.7-0.7l0,0c0.4,0,0.7,0.3,0.7,0.7V69
		C157.4,69.3,157.1,69.6,156.7,69.6z"/>
	<path class="st0" d="M150.5,68.8L150.5,68.8c-0.4-0.1-0.6-0.5-0.5-0.8l1.5-5.6c0.1-0.3,0.5-0.6,0.8-0.5l0,0
		c0.4,0.1,0.6,0.5,0.5,0.8l-1.5,5.6C151.2,68.7,150.8,68.9,150.5,68.8z"/>
	<path class="st0" d="M144.6,66.4L144.6,66.4c-0.3-0.2-0.4-0.6-0.2-0.9l2.9-5c0.2-0.3,0.6-0.4,0.9-0.2l0,0c0.3,0.2,0.4,0.6,0.2,0.9
		l-2.9,5C145.4,66.5,144.9,66.6,144.6,66.4z"/>
	<path class="st0" d="M139.6,62.5L139.6,62.5c-0.3-0.3-0.3-0.7,0-0.9l4.1-4.1c0.3-0.3,0.7-0.3,0.9,0l0,0c0.3,0.3,0.3,0.7,0,0.9
		l-4.1,4.1C140.3,62.8,139.9,62.8,139.6,62.5z"/>
	<path class="st0" d="M135.8,57.5L135.8,57.5c-0.2-0.3-0.1-0.7,0.2-0.9l5-2.9c0.3-0.2,0.7-0.1,0.9,0.2l0,0c0.2,0.3,0.1,0.7-0.2,0.9
		l-5,2.9C136.4,57.9,136,57.8,135.8,57.5z"/>
	<path class="st0" d="M133.4,51.7L133.4,51.7c-0.1-0.3,0.1-0.7,0.5-0.8l5.6-1.5c0.4-0.1,0.7,0.1,0.8,0.5l0,0
		c0.1,0.3-0.1,0.7-0.5,0.8l-5.6,1.5C133.8,52.2,133.4,52,133.4,51.7z"/>
	<path class="st0" d="M132.5,45.4L132.5,45.4c0-0.4,0.3-0.7,0.7-0.7h5.8c0.4,0,0.7,0.3,0.7,0.7l0,0c0,0.4-0.3,0.7-0.7,0.7h-5.8
		C132.8,46.1,132.5,45.8,132.5,45.4z"/>
	<path class="st0" d="M133.4,39.1L133.4,39.1c0.1-0.3,0.5-0.6,0.8-0.5l5.6,1.5c0.4,0.1,0.6,0.5,0.5,0.8l0,0
		c-0.1,0.3-0.5,0.6-0.8,0.5l-5.6-1.5C133.5,39.9,133.3,39.5,133.4,39.1z"/>
	<path class="st0" d="M135.8,33.3L135.8,33.3c0.2-0.3,0.6-0.4,0.9-0.2l5,2.9c0.3,0.2,0.4,0.6,0.2,0.9l0,0c-0.2,0.3-0.6,0.4-0.9,0.2
		l-5-2.9C135.7,34,135.6,33.6,135.8,33.3z"/>
	<path class="st0" d="M139.6,28.3L139.6,28.3c0.3-0.3,0.7-0.3,0.9,0l4.1,4.1c0.3,0.3,0.3,0.7,0,0.9l0,0c-0.3,0.3-0.7,0.3-0.9,0
		l-4.1-4.1C139.4,29,139.4,28.5,139.6,28.3z"/>
	<path class="st0" d="M144.6,24.4L144.6,24.4c0.3-0.2,0.7-0.1,0.9,0.2l2.9,5c0.2,0.3,0.1,0.7-0.2,0.9l0,0c-0.3,0.2-0.7,0.1-0.9-0.2
		l-2.9-5C144.2,25,144.3,24.6,144.6,24.4z"/>
	<path class="st0" d="M150.5,22L150.5,22c0.4-0.1,0.7,0.1,0.8,0.5l1.5,5.6c0.1,0.4-0.1,0.7-0.5,0.8l0,0c-0.4,0.1-0.7-0.1-0.8-0.5
		l-1.5-5.6C149.9,22.5,150.1,22.1,150.5,22z"/>
</g>
<g>
	<rect x="3.7" y="235.9" class="st0" width="64.4" height="0.9"/>
	<rect x="245.3" y="235.9" class="st0" width="64.4" height="0.9"/>
	<g>
		<path class="st1" d="M21.2,183.9c-0.1-2.1-0.2-4.3-0.4-6.4c2.1,0,4.1,0.1,6.2,0.1c2,0.1,4.1,0.1,6.2,0.1c3.4,0,6.5,0,9.1-0.1
			c2.7-0.1,4.5-0.1,5.4-0.2c-0.2,0.5-0.3,1.2-0.3,2.1c0,0.5,0,0.9,0.1,1.2s0.1,0.6,0.2,1c-1.3-0.1-2.8-0.1-4.4-0.2
			c-1.6-0.1-3.1-0.1-4.6-0.2c-1.5-0.1-2.8-0.1-4-0.1s-2.1-0.1-2.6-0.1c-0.2,1.8-0.3,3.6-0.3,5.4c0,1.8,0,3.6,0,5.4
			c3,0,5.7-0.1,8.1-0.1c2.4-0.1,5-0.1,7.6-0.2c-0.1,0.6-0.2,1-0.3,1.3c0,0.3-0.1,0.6-0.1,0.9c0,0.3,0,0.5,0.1,0.8
			c0.1,0.3,0.2,0.7,0.2,1.2c-5.3-0.3-10.5-0.4-15.7-0.4c0,1.1,0,2.1,0,3.2s0,2.1,0,3.2c0,2.1,0.1,4.2,0.2,6.2c2.6,0,5.3-0.1,7.9-0.1
			c2.6-0.1,5.3-0.3,8-0.5c-0.1,0.4-0.2,0.7-0.2,1s-0.1,0.7-0.1,1.2s0,0.9,0.1,1.2c0,0.3,0.1,0.5,0.2,0.7c-1.2,0-2.8-0.1-4.6-0.1
			c-1.8,0-4.3,0-7.5,0c-2.8,0-5.1,0-6.9,0c-1.7,0-3.1,0-4.1,0c-1,0-1.8,0-2.4,0c-0.5,0-1,0-1.4,0.1c0.2-2,0.3-4.1,0.4-6.2
			c0.1-2.1,0.1-4.6,0.1-7.3v-6.7C21.3,188.4,21.2,186,21.2,183.9z"/>
		<path class="st1" d="M77.5,197.8v5.4H60.2v-5.4H77.5z"/>
		<path class="st1" d="M93.6,183.9c-0.1-2.1-0.2-4.3-0.4-6.4c0.8,0.1,1.6,0.1,2.6,0.2s2,0.1,3.1,0.1c1.2,0,2.2,0,3.1-0.1
			c0.9-0.1,1.8-0.1,2.6-0.2c-0.2,2.1-0.3,4.3-0.4,6.4c-0.1,2.1-0.1,4.6-0.1,7.3v6.7c0,2.7,0.1,5.2,0.1,7.3c0.1,2.1,0.2,4.2,0.4,6.2
			c-0.8-0.1-1.6-0.1-2.6-0.1s-2,0-3.1,0s-2.2,0-3.1,0c-0.9,0-1.8,0-2.6,0.1c0.2-2,0.3-4.1,0.4-6.2c0.1-2.1,0.1-4.6,0.1-7.3v-6.7
			C93.8,188.4,93.7,186,93.6,183.9z"/>
		<path class="st1" d="M120.2,216.1c0.7-0.3,1.2-0.6,1.6-1c0.4-0.4,0.7-0.9,0.9-1.5s0.4-1.3,0.4-2.2c0.2-2,0.3-4.1,0.4-6.2
			c0.1-2.1,0.1-4.6,0.1-7.3v-6.7c0-2.7-0.1-5.2-0.1-7.3c-0.1-2.1-0.2-4.3-0.4-6.4c0.8,0.1,1.6,0.1,2.6,0.2s2,0.1,3.1,0.1
			c1.1,0,2.2,0,3.1-0.1c0.9-0.1,1.8-0.1,2.6-0.2c-0.2,2.1-0.3,4.3-0.4,6.4c-0.1,2.1-0.1,4.6-0.1,7.3v6.7c0,1.4,0,2.8,0.1,4.4
			c0.1,1.5,0.1,3.1,0.1,4.6c0,3.9-1.3,6.8-3.9,8.7c-2.6,1.9-6.4,3.2-11.5,3.8l-1-2.3C118.8,216.8,119.6,216.4,120.2,216.1z"/>
		<path class="st1" d="M191.3,211.4c-1.1-0.1-2.2-0.1-3.1-0.1c-1,0-2,0-2.9,0s-1.9,0-2.9,0s-2,0-2.9,0.1c-0.7-1.6-1.5-3.3-2.3-4.9
			c-0.8-1.7-1.6-3.4-2.5-5c-1.5,0-3-0.1-4.4-0.1c-1.5,0-3,0-4.4,0c-1.2,0-2.4,0-3.6,0c-1.2,0-2.4,0-3.6,0.1c-0.9,1.7-1.8,3.4-2.6,5
			c-0.8,1.7-1.5,3.3-2.1,4.9c-0.6-0.1-1.1-0.1-1.6-0.1s-1.1,0-1.6,0s-1.1,0-1.7,0s-1.2,0-1.8,0.1c0.6-0.9,1.3-2,2.2-3.6
			c0.9-1.5,1.9-3.2,3.1-5.1s2.3-4,3.6-6.1c1.3-2.2,2.5-4.4,3.8-6.6s2.5-4.4,3.7-6.6s2.3-4.2,3.4-6.1c0.5,0.1,0.9,0.1,1.3,0.2
			c0.4,0.1,0.9,0.1,1.3,0.1c0.5,0,0.9,0,1.3-0.1c0.4-0.1,0.9-0.1,1.3-0.2c1.5,2.8,3.1,5.8,4.8,9s3.4,6.3,5.1,9.4
			c1.7,3.1,3.4,6,5,8.8C188.5,207.2,190,209.5,191.3,211.4z M166.8,186.8c-1.2,2-2.3,3.9-3.4,5.9c-1.1,1.9-2.1,3.9-3.1,5.9H173
			c-1-2-2-4-3-5.9C169,190.7,167.9,188.7,166.8,186.8z"/>
		<path class="st1" d="M215.6,195.9v2c0,2.7,0.1,5.2,0.1,7.3c0.1,2.1,0.2,4.2,0.4,6.2c-0.8-0.1-1.6-0.1-2.6-0.1s-2,0-3.1,0
			c-1.2,0-2.2,0-3.1,0c-0.9,0-1.8,0-2.6,0.1c0.2-2,0.3-4.1,0.4-6.2c0.1-2.1,0.1-4.6,0.1-7.3v-6.7c0-2.7-0.1-5.2-0.1-7.3
			c-0.1-2.1-0.2-4.3-0.4-6.4c0.8,0.1,1.6,0.1,2.6,0.2s2,0.1,3.1,0.1c1.2,0,2.7,0,4.3-0.1s3.6-0.1,5.9-0.1c1.8,0,3.3,0,4.5,0.1
			c1.2,0.1,2.3,0.2,3.2,0.3s1.7,0.3,2.4,0.5s1.3,0.5,1.9,0.8c1.4,0.7,2.5,1.6,3.3,2.7s1.2,2.4,1.2,3.8c0,2.4-0.9,4.4-2.8,5.9
			c-1.9,1.5-4.5,2.6-8,3.2c2.2,2.8,4.6,5.6,7.1,8.4s5.1,5.5,7.6,8.3c-1.1-0.1-2.1-0.1-3.1-0.1c-1,0-2.1,0-3.1,0s-2.1,0-3.1,0
			s-2.1,0-3.1,0.1l-12.4-15.6L215.6,195.9L215.6,195.9z M226.6,186.8c0-1.4-0.2-2.6-0.6-3.5c-0.4-0.9-1.1-1.5-1.9-1.9
			c-0.9-0.4-2-0.7-3.3-0.9c-1.4-0.1-3-0.2-4.9-0.2c-0.1,4.5-0.2,9-0.2,13.4c0.3,0,0.5,0.1,0.8,0.1c0.2,0,0.5,0,0.7,0
			c3.1,0,5.4-0.6,7-1.8C225.8,190.9,226.6,189.1,226.6,186.8z"/>
		<path class="st1" d="M293.7,211.4c-1.1-0.1-2.2-0.1-3.1-0.1s-2,0-2.9,0s-2,0-2.9,0s-2,0-2.9,0.1c-0.7-1.6-1.5-3.3-2.3-4.9
			c-0.8-1.7-1.6-3.4-2.5-5c-1.5,0-3-0.1-4.4-0.1c-1.5,0-3,0-4.4,0c-1.2,0-2.4,0-3.6,0s-2.4,0-3.6,0.1c-0.9,1.7-1.8,3.4-2.6,5
			c-0.8,1.7-1.5,3.3-2.1,4.9c-0.6-0.1-1.1-0.1-1.6-0.1s-1.1,0-1.6,0s-1.1,0-1.7,0s-1.2,0-1.8,0.1c0.6-0.9,1.3-2,2.2-3.6
			c0.9-1.5,1.9-3.2,3.1-5.1s2.3-4,3.6-6.1c1.3-2.2,2.5-4.4,3.8-6.6s2.5-4.4,3.7-6.6s2.3-4.2,3.4-6.1c0.5,0.1,0.9,0.1,1.3,0.2
			s0.9,0.1,1.3,0.1c0.5,0,0.9,0,1.3-0.1c0.4-0.1,0.9-0.1,1.3-0.2c1.5,2.8,3.1,5.8,4.8,9s3.4,6.3,5.1,9.4s3.4,6,5,8.8
			C290.9,207.2,292.4,209.5,293.7,211.4z M269.2,186.8c-1.2,2-2.3,3.9-3.4,5.9c-1.1,1.9-2.1,3.9-3.1,5.9h12.7c-1-2-2-4-3-5.9
			C271.4,190.7,270.3,188.7,269.2,186.8z"/>
	</g>
	<g>
		<path class="st1" d="M79,232.8c0.5-0.4,1-0.7,1.5-0.8c0.5-0.1,0.9-0.2,1.4-0.2c0.4,0,0.8,0.1,1.2,0.2s0.7,0.3,0.9,0.5
			s0.4,0.5,0.6,0.9s0.2,0.7,0.2,1.1c0,0.7,0,1.4,0,2c0,0.7,0,1.4,0,2.1c0,0.1,0,0.3,0,0.5s0,0.3,0.1,0.4s0.1,0.2,0.2,0.3
			s0.2,0.1,0.4,0.1c0.1,0,0.1,0,0.2,0s0.1,0,0.2-0.1v0.4c-0.1,0.1-0.3,0.1-0.5,0.1s-0.4,0.1-0.7,0.1c-0.4,0-0.7-0.1-0.9-0.3
			s-0.3-0.4-0.4-0.8c-0.4,0.4-0.9,0.8-1.3,0.9s-0.9,0.3-1.6,0.3c-0.3,0-0.6,0-0.9-0.1s-0.5-0.2-0.8-0.4c-0.2-0.2-0.4-0.4-0.5-0.7
			s-0.2-0.6-0.2-0.9c0-0.7,0.2-1.3,0.7-1.7c0.4-0.4,1.1-0.7,1.9-0.8c0.7-0.1,1.2-0.2,1.5-0.3c0.4-0.1,0.6-0.2,0.8-0.2
			s0.3-0.2,0.3-0.3c0-0.1,0.1-0.3,0.1-0.4c0-0.3,0-0.6-0.1-0.9c-0.1-0.3-0.2-0.5-0.3-0.7c-0.2-0.2-0.4-0.4-0.6-0.5s-0.6-0.2-0.9-0.2
			c-0.5,0-0.9,0.1-1.3,0.3s-0.7,0.5-0.9,0.9H79L79,232.8L79,232.8z M83.5,236c-0.2,0.1-0.4,0.1-0.7,0.2s-0.5,0.1-0.8,0.1
			c-0.3,0.1-0.6,0.1-0.8,0.2s-0.5,0.2-0.7,0.3s-0.4,0.3-0.5,0.5c-0.1,0.2-0.2,0.5-0.2,0.8c0,0.6,0.2,1,0.5,1.3
			c0.3,0.3,0.7,0.4,1.1,0.4c0.5,0,0.9-0.1,1.2-0.4s0.7-0.6,0.9-0.9L83.5,236z"/>
		<path class="st1" d="M94.7,235.3c0.4-0.6,0.8-1.1,1.3-1.7s0.8-1.1,1.2-1.7c0.1,0,0.2,0,0.3,0.1s0.2,0,0.3,0c0.1,0,0.3,0,0.6-0.1
			c-0.6,0.7-1.1,1.3-1.7,1.9c-0.6,0.6-1.1,1.3-1.6,1.9c0.5,0.8,1.1,1.6,1.7,2.4s1.2,1.6,1.8,2.3c-0.2,0-0.3,0-0.5,0
			c-0.2,0-0.3,0-0.4,0s-0.3,0-0.4,0c-0.2,0-0.3,0-0.5,0c-0.4-0.6-0.8-1.2-1.2-1.8s-0.8-1.2-1.3-1.8c-0.4,0.6-0.9,1.2-1.3,1.8
			c-0.4,0.6-0.8,1.2-1.2,1.8c-0.2,0-0.4,0-0.6,0c-0.2,0-0.4,0-0.6,0c0.6-0.7,1.1-1.4,1.7-2c0.6-0.7,1.1-1.4,1.6-2.1
			c-0.5-0.7-1.1-1.5-1.6-2.2s-1.1-1.5-1.7-2.2c0.2,0,0.3,0,0.5,0.1s0.3,0,0.5,0s0.3,0,0.5,0s0.3,0,0.5-0.1c0.3,0.6,0.7,1.1,1.1,1.7
			S94.3,234.7,94.7,235.3z"/>
		<path class="st1" d="M111.9,236c0,0.7-0.1,1.3-0.3,1.9s-0.5,1.1-0.9,1.5c-0.4,0.4-0.8,0.7-1.3,0.9s-1,0.3-1.6,0.3
			s-1.1-0.1-1.6-0.4s-0.8-0.5-1.1-0.9c-0.4,0.4-0.8,0.7-1.2,1h-0.3c0-0.3,0-0.6,0.1-1s0-0.8,0-1.3s0-0.9,0-1.4c0-0.5,0-0.9,0-1.3
			v-3.3c0-0.4,0-0.9,0-1.3s0-0.9,0-1.4s0-0.9,0-1.3c0-0.4,0-0.8-0.1-1.1c0.3,0.1,0.6,0.1,0.8,0.1c0.1,0,0.3,0,0.4,0
			c0.1,0,0.3,0,0.5-0.1c0,0.2-0.1,0.6-0.1,1.1s0,1.1-0.1,1.8c0,0.6,0,1.3,0,2c0,0.7,0,1.3,0,1.8h0c0.4-0.6,0.9-1.1,1.3-1.4
			s1.1-0.4,1.7-0.4c0.6,0,1.2,0.1,1.6,0.4c0.5,0.2,0.8,0.5,1.1,0.9s0.5,0.8,0.7,1.3S111.9,235.4,111.9,236z M110.3,235.9
			c0-0.6-0.1-1-0.2-1.5c-0.1-0.4-0.3-0.8-0.5-1.1s-0.5-0.5-0.8-0.7c-0.3-0.1-0.6-0.2-0.9-0.2c-0.4,0-0.7,0.1-1.1,0.2
			s-0.6,0.4-0.9,0.7s-0.4,0.7-0.6,1.2s-0.2,1.1-0.2,1.9c0,2.4,0.9,3.6,2.6,3.6c0.4,0,0.7-0.1,1-0.3c0.3-0.2,0.6-0.5,0.8-0.9
			s0.4-0.8,0.6-1.3C110.3,237.1,110.3,236.6,110.3,235.9z"/>
		<path class="st1" d="M116.9,236.2c0-0.8,0.1-1.5,0.4-2.1s0.6-1,1-1.4c0.4-0.4,0.9-0.6,1.4-0.8c0.5-0.2,1-0.2,1.6-0.2
			c0.5,0,1.1,0.1,1.6,0.2s1,0.4,1.4,0.8s0.8,0.8,1,1.4c0.3,0.6,0.4,1.3,0.4,2.1s-0.1,1.5-0.4,2.1s-0.6,1-1,1.4
			c-0.4,0.4-0.9,0.6-1.4,0.8c-0.5,0.1-1,0.2-1.6,0.2c-0.5,0-1-0.1-1.6-0.2c-0.5-0.1-1-0.4-1.4-0.8c-0.4-0.4-0.8-0.8-1-1.4
			C117,237.7,116.9,237,116.9,236.2z M118.5,236.2c0,0.5,0,1,0.1,1.5s0.2,0.9,0.5,1.2s0.5,0.7,0.9,0.9s0.8,0.3,1.3,0.3
			s1-0.1,1.3-0.3s0.7-0.5,0.9-0.9s0.4-0.8,0.5-1.2s0.1-0.9,0.1-1.5s0-1-0.1-1.5s-0.2-0.9-0.5-1.2s-0.5-0.7-0.9-0.9s-0.8-0.3-1.3-0.3
			s-1,0.1-1.3,0.3s-0.7,0.5-0.9,0.9c-0.2,0.4-0.4,0.8-0.5,1.2S118.5,235.7,118.5,236.2z"/>
		<path class="st1" d="M135,233.2c-0.2-0.1-0.4-0.1-0.5-0.1c-0.3,0-0.6,0.1-0.8,0.2c-0.2,0.1-0.4,0.3-0.6,0.5s-0.3,0.5-0.4,0.8
			c-0.1,0.3-0.1,0.6-0.1,1v2c0,0.8,0,1.4,0,1.8c0,0.4,0,0.8,0.1,1c-0.2,0-0.5,0-0.7,0c-0.3,0-0.5,0-0.8,0c0-0.4,0.1-1,0.1-1.7
			s0-1.6,0-2.6v-0.6c0-0.5,0-1,0-1.6s0-1.3-0.1-2.1c0.1,0,0.3,0,0.4,0.1c0.1,0,0.2,0,0.4,0c0.1,0,0.2,0,0.3,0s0.2,0,0.4-0.1
			c-0.1,0.4-0.1,0.8-0.1,1s0,0.5,0,0.7l0,0c0.7-1.3,1.5-1.9,2.4-1.9c0.1,0,0.2,0,0.3,0c0.1,0,0.2,0,0.3,0.1
			c-0.1,0.1-0.1,0.4-0.1,0.7s0,0.6,0,0.8l-0.1,0.1C135.3,233.3,135.2,233.2,135,233.2z"/>
		<path class="st1" d="M140.1,236.2c0-0.8,0.1-1.5,0.4-2.1s0.6-1,1-1.4c0.4-0.4,0.9-0.6,1.4-0.8s1-0.2,1.6-0.2
			c0.5,0,1.1,0.1,1.6,0.2s1,0.4,1.4,0.8s0.8,0.8,1,1.4c0.3,0.6,0.4,1.3,0.4,2.1s-0.1,1.5-0.4,2.1s-0.6,1-1,1.4
			c-0.4,0.4-0.9,0.6-1.4,0.8c-0.5,0.1-1,0.2-1.6,0.2c-0.5,0-1-0.1-1.6-0.2c-0.5-0.1-1-0.4-1.4-0.8c-0.4-0.4-0.8-0.8-1-1.4
			C140.2,237.7,140.1,237,140.1,236.2z M141.7,236.2c0,0.5,0,1,0.1,1.5c0.1,0.5,0.2,0.9,0.5,1.2s0.5,0.7,0.9,0.9s0.8,0.3,1.3,0.3
			s1-0.1,1.3-0.3s0.6-0.5,0.9-0.9s0.4-0.8,0.5-1.2s0.1-0.9,0.1-1.5s0-1-0.1-1.5s-0.2-0.9-0.5-1.2s-0.5-0.7-0.9-0.9s-0.8-0.3-1.3-0.3
			s-1,0.1-1.3,0.3s-0.6,0.5-0.9,0.9c-0.2,0.4-0.4,0.8-0.5,1.2C141.7,235.2,141.7,235.7,141.7,236.2z"/>
		<path class="st1" d="M156.1,229.5c0,0.5-0.1,0.9-0.1,1.3s0,0.9-0.1,1.3c0.1,0,0.4,0,0.7,0s0.8,0,1.2,0c0,0,0,0.1,0,0.2v0.2v0.2
			c0,0.1,0,0.1,0,0.2c-0.2,0-0.3,0-0.5,0s-0.4,0-0.5,0H156c0,0.1,0,0.2,0,0.6c0,0.3,0,0.7,0,1.2c0,0.5,0,0.9,0,1.4s0,0.9,0,1.4
			c0,0.3,0,0.7,0,1s0.1,0.6,0.2,0.9c0.1,0.3,0.2,0.5,0.4,0.6c0.2,0.2,0.5,0.2,0.8,0.2c0.1,0,0.2,0,0.4,0s0.3-0.1,0.4-0.1v0.4
			c-0.2,0-0.4,0.1-0.7,0.1c-0.2,0.1-0.5,0.1-0.7,0.1c-0.8,0-1.3-0.2-1.7-0.6s-0.5-0.9-0.5-1.6c0-0.3,0-0.7,0-1.1s0-0.8,0-1.2
			c0-0.4,0-0.9,0-1.5s0-1.2,0-1.8h-0.6c-0.1,0-0.2,0-0.3,0s-0.2,0-0.3,0c0-0.1,0-0.1,0-0.2s0-0.1,0-0.2c0-0.1,0-0.1,0-0.2
			s0-0.1,0-0.2c0.5,0,0.9,0.1,1.2,0.1c0-0.2,0-0.5,0-0.9s0-0.7,0-1.1L156.1,229.5L156.1,229.5L156.1,229.5z"/>
		<path class="st1" d="M173.3,229.5c0,0.5-0.1,0.9-0.1,1.3s0,0.9-0.1,1.3c0.1,0,0.4,0,0.7,0s0.8,0,1.2,0c0,0,0,0.1,0,0.2v0.2v0.2
			c0,0.1,0,0.1,0,0.2c-0.2,0-0.3,0-0.5,0s-0.4,0-0.5,0h-0.9c0,0.1,0,0.2,0,0.6c0,0.3,0,0.7,0,1.2c0,0.5,0,0.9,0,1.4s0,0.9,0,1.4
			c0,0.3,0,0.7,0,1s0.1,0.6,0.2,0.9c0.1,0.3,0.2,0.5,0.4,0.6c0.2,0.2,0.5,0.2,0.8,0.2c0.1,0,0.2,0,0.4,0s0.3-0.1,0.4-0.1v0.4
			c-0.2,0-0.4,0.1-0.7,0.1c-0.2,0.1-0.5,0.1-0.7,0.1c-0.8,0-1.3-0.2-1.7-0.6s-0.5-0.9-0.5-1.6c0-0.3,0-0.7,0-1.1s0-0.8,0-1.2
			c0-0.4,0-0.9,0-1.5s0-1.2,0-1.8h-0.6c-0.1,0-0.2,0-0.3,0s-0.2,0-0.3,0c0-0.1,0-0.1,0-0.2s0-0.1,0-0.2c0-0.1,0-0.1,0-0.2
			s0-0.1,0-0.2c0.5,0,0.9,0.1,1.2,0.1c0-0.2,0-0.5,0-0.9s0-0.7,0-1.1L173.3,229.5L173.3,229.5L173.3,229.5z"/>
		<path class="st1" d="M180.5,228.8c0-0.2,0.1-0.5,0.3-0.6c0.2-0.2,0.4-0.3,0.6-0.3s0.5,0.1,0.6,0.3c0.2,0.2,0.3,0.4,0.3,0.6
			s-0.1,0.5-0.3,0.6c-0.2,0.2-0.4,0.3-0.6,0.3s-0.5-0.1-0.6-0.3C180.6,229.2,180.5,229,180.5,228.8z M180.7,235.3c0-0.5,0-1.1,0-1.7
			s-0.1-1.1-0.1-1.7c0.3,0.1,0.6,0.1,0.8,0.1s0.5,0,0.8-0.1c-0.1,0.5-0.1,1.1-0.1,1.7c0,0.6,0,1.2,0,1.7v1.9c0,0.5,0,1.1,0,1.7
			s0.1,1.1,0.1,1.6c-0.3,0-0.6,0-0.8,0s-0.5,0-0.8,0c0.1-0.5,0.1-1,0.1-1.6c0-0.6,0-1.2,0-1.7V235.3z"/>
		<path class="st1" d="M189.7,238.3c0.6-0.7,1.1-1.4,1.6-2.1s1-1.3,1.4-1.9s0.8-1.1,1.2-1.6c-0.1,0-0.3,0-0.7,0
			c-0.4,0-0.8,0-1.3,0.1s-1,0.1-1.5,0.1c-0.5,0-0.9,0.1-1.3,0.1c0-0.2,0.1-0.3,0.1-0.5s0-0.3-0.1-0.5c0.4,0,0.9,0.1,1.7,0.1
			c0.7,0,1.7,0,2.8,0c0.2,0,0.5,0,0.7,0c0.2,0,0.4,0,0.6,0c0.2,0,0.4,0,0.5,0c0.2,0,0.4,0,0.6,0v0.3c-0.5,0.6-1,1.3-1.6,2.1
			s-1.1,1.5-1.7,2.2c-0.5,0.7-1,1.4-1.5,2c-0.4,0.6-0.8,1.1-1,1.4c0.5,0,0.9,0,1.4,0s0.8,0,1.2,0c0.4,0,0.9,0,1.4-0.1
			c0.5,0,1-0.1,1.7-0.1c-0.1,0.1-0.1,0.3-0.1,0.5s0,0.3,0.1,0.4c-0.8,0-1.5,0-2.2,0s-1.5,0-2.2,0c-0.5,0-1.1,0-1.6,0
			c-0.5,0-1.1,0-1.6,0v-0.2C188.6,239.6,189.2,239,189.7,238.3z"/>
		<path class="st1" d="M201.7,228.8c0-0.2,0.1-0.5,0.3-0.6c0.2-0.2,0.4-0.3,0.6-0.3s0.5,0.1,0.6,0.3c0.2,0.2,0.3,0.4,0.3,0.6
			s-0.1,0.5-0.3,0.6c-0.2,0.2-0.4,0.3-0.6,0.3s-0.5-0.1-0.6-0.3C201.8,229.2,201.7,229,201.7,228.8z M201.9,235.3c0-0.5,0-1.1,0-1.7
			s-0.1-1.1-0.1-1.7c0.3,0.1,0.6,0.1,0.8,0.1s0.5,0,0.8-0.1c-0.1,0.5-0.1,1.1-0.1,1.7c0,0.6,0,1.2,0,1.7v1.9c0,0.5,0,1.1,0,1.7
			s0.1,1.1,0.1,1.6c-0.3,0-0.6,0-0.8,0s-0.5,0-0.8,0c0.1-0.5,0.1-1,0.1-1.6c0-0.6,0-1.2,0-1.7V235.3z"/>
		<path class="st1" d="M210.1,233.6c0-0.6-0.1-1.1-0.1-1.7c0.3,0.1,0.6,0.1,0.8,0.1c0.1,0,0.2,0,0.3,0s0.2,0,0.4-0.1
			c0,0.5-0.1,1-0.1,1.4h0c0.6-1.1,1.5-1.6,2.7-1.6c0.3,0,0.6,0,0.9,0.1c0.3,0.1,0.6,0.2,0.8,0.4c0.2,0.2,0.4,0.4,0.6,0.6
			c0.2,0.2,0.3,0.5,0.3,0.7h0c0.3-0.6,0.7-1,1.2-1.3c0.5-0.3,1.1-0.5,1.7-0.5c0.4,0,0.8,0.1,1.1,0.2c0.3,0.1,0.6,0.3,0.9,0.5
			c0.2,0.2,0.4,0.5,0.6,0.9s0.2,0.8,0.2,1.3c0,0.2,0,0.4,0,0.7c0,0.2,0,0.5,0,0.8c0,0.3,0,0.7,0,1.1c0,0.4,0,0.9,0,1.4
			c0,0.3,0,0.6,0,0.9s0,0.6,0,1c-0.1,0-0.3,0-0.4,0s-0.3,0-0.4,0c-0.1,0-0.3,0-0.4,0c-0.1,0-0.3,0-0.4,0c0-0.3,0.1-0.9,0.1-1.8
			s0.1-2.2,0.1-3.8c0-0.3,0-0.6-0.1-0.9c-0.1-0.3-0.2-0.5-0.3-0.7c-0.1-0.2-0.3-0.3-0.6-0.5c-0.2-0.1-0.5-0.2-0.9-0.2
			c-0.4,0-0.8,0.1-1.1,0.2s-0.5,0.4-0.7,0.6c-0.1,0.1-0.2,0.3-0.2,0.4c-0.1,0.1-0.1,0.3-0.1,0.6s-0.1,0.6-0.1,1.1c0,0.5,0,1.2,0,2
			c0,0.5,0,1,0,1.4c0,0.4,0,0.9,0.1,1.4c-0.3,0-0.5,0-0.8,0s-0.5,0-0.8,0c0.1-0.7,0.1-1.3,0.1-2c0-0.7,0-1.4,0-2c0-0.6,0-1,0-1.3
			s0-0.6,0-0.8c0-0.2-0.1-0.3-0.1-0.5s-0.1-0.2-0.2-0.4c-0.1-0.2-0.3-0.4-0.6-0.6s-0.6-0.2-0.9-0.2c-0.8,0-1.4,0.3-1.8,0.8
			c-0.4,0.5-0.6,1.2-0.6,2.2v1.5c0,0.5,0,1.1,0,1.7s0.1,1.1,0.1,1.6c-0.3,0-0.6,0-0.8,0s-0.5,0-0.8,0c0.1-0.5,0.1-1,0.1-1.6
			s0-1.2,0-1.7v-1.9C210.1,234.7,210.1,234.2,210.1,233.6z"/>
		<path class="st1" d="M228.9,228.8c0-0.2,0.1-0.5,0.3-0.6c0.2-0.2,0.4-0.3,0.6-0.3s0.5,0.1,0.6,0.3c0.2,0.2,0.3,0.4,0.3,0.6
			s-0.1,0.5-0.3,0.6c-0.2,0.2-0.4,0.3-0.6,0.3s-0.5-0.1-0.6-0.3C229,229.2,228.9,229,228.9,228.8z M229.1,235.3c0-0.5,0-1.1,0-1.7
			s-0.1-1.1-0.1-1.7c0.3,0.1,0.6,0.1,0.8,0.1s0.5,0,0.8-0.1c-0.1,0.5-0.1,1.1-0.1,1.7c0,0.6,0,1.2,0,1.7v1.9c0,0.5,0,1.1,0,1.7
			s0.1,1.1,0.1,1.6c-0.3,0-0.6,0-0.8,0s-0.5,0-0.8,0c0.1-0.5,0.1-1,0.1-1.6c0-0.6,0-1.2,0-1.7V235.3z"/>
	</g>
</g>
</svg>
