<svg width="32" height="34" viewBox="0 0 32 34" fill="none" xmlns="http://www.w3.org/2000/svg">
<path fill-rule="evenodd" clip-rule="evenodd" d="M3.48975 1.11944C3.29506 1.18194 3.03831 1.29338 2.91925 1.36701C2.59106 1.56982 2.19563 2.03063 2.01 2.42657L1.84375 2.78126V15.8438V28.9063L2.01631 29.2576C2.37613 29.9904 3.00163 30.4743 3.78125 30.623C4.03625 30.6716 4.983 30.6885 6.73994 30.6754L9.32362 30.6563L9.44306 30.5087C9.60481 30.3089 9.59438 30.0518 9.41788 29.8859C9.27419 29.751 9.25562 29.75 6.71269 29.75C3.93 29.75 3.70894 29.7283 3.29619 29.4134C3.171 29.318 2.99694 29.096 2.90931 28.9201L2.75 28.6005L2.75137 15.8471C2.75275 3.14526 2.75325 3.09263 2.88025 2.81251C3.03887 2.46263 3.21 2.2762 3.53125 2.10332L3.78125 1.96876L11.1094 1.95213L18.4375 1.93551V3.42501C18.4375 4.24426 18.4681 5.08145 18.5054 5.28538C18.6884 6.28438 19.4641 7.05901 20.4671 7.24445C20.6697 7.28189 21.5053 7.31251 22.324 7.31251H23.8125V11.4324C23.8125 13.6983 23.8307 15.5999 23.8531 15.6581C23.964 15.9471 24.5282 15.9545 24.6804 15.6689C24.7351 15.5665 24.7493 14.4291 24.7362 11.2188L24.7188 6.90626L24.5407 6.56251C24.2864 6.07157 19.6149 1.40376 19.1562 1.18219L18.8438 1.03126L11.3438 1.01851C4.24312 1.00638 3.82487 1.01176 3.48975 1.11944ZM23.0625 6.33413C23.0625 6.3637 22.4922 6.37795 21.7951 6.36582C20.5804 6.3447 20.5148 6.33713 20.2176 6.18407C19.8292 5.9842 19.5322 5.6017 19.4433 5.18713C19.4057 5.01207 19.375 4.35713 19.375 3.7317V2.59457L21.2188 4.43751C22.2328 5.45113 23.0625 6.30463 23.0625 6.33413ZM5.25456 6.5397C5.08587 6.75407 5.09106 6.89107 5.27581 7.10589L5.42662 7.28126L9.35325 7.29826C12.0812 7.31007 13.3301 7.29451 13.4443 7.2472C13.6024 7.1817 13.75 6.95932 13.75 6.78676C13.75 6.74145 13.6917 6.63026 13.6204 6.5397L13.4909 6.37501H9.4375H5.38406L5.25456 6.5397ZM5.27844 9.77845C5.19406 9.86282 5.125 9.9767 5.125 10.0315C5.125 10.2121 5.30494 10.4834 5.45062 10.5224C5.52931 10.5436 9.07044 10.5612 13.3197 10.5616C21.0418 10.5625 21.0457 10.5624 21.2103 10.4329C21.4167 10.2706 21.4361 9.93614 21.25 9.75001C21.1263 9.62632 21.0417 9.62501 13.2784 9.62501H5.43181L5.27844 9.77845ZM5.31962 12.6094C5.24719 12.6696 5.17056 12.8083 5.14944 12.9178C5.11844 13.0783 5.14206 13.1478 5.27144 13.2771L5.43181 13.4375H13.2784C21.0417 13.4375 21.1263 13.4362 21.25 13.3125C21.4361 13.1264 21.4167 12.7919 21.2103 12.6296C21.0457 12.5001 21.042 12.5 13.2485 12.5C5.9145 12.5 5.4435 12.5065 5.31962 12.6094ZM9.96875 16.9525C9.74394 17.083 9.50925 17.4504 7.6415 20.5957C6.49906 22.5196 5.53469 24.1993 5.4985 24.3281C5.341 24.8891 5.64087 25.3037 6.59156 25.839C7.47337 26.3355 7.96675 26.4048 8.61125 26.1225C8.843 26.021 9.0625 26.0125 9.0625 26.1049C9.0625 26.1208 8.94 26.3076 8.79031 26.5201C8.45981 26.989 8.375 27.2252 8.375 27.6771C8.375 28.4977 9.08025 29.1875 9.91925 29.1875C10.1528 29.1875 10.172 29.2018 10.2388 29.4247C10.3321 29.7362 10.6995 30.1592 11.0178 30.3216C11.1578 30.393 11.4326 30.466 11.6286 30.4837C11.9755 30.5151 11.9868 30.5221 12.0537 30.7452C12.1484 31.0613 12.5079 31.4625 12.841 31.6237C13.1334 31.7653 13.5699 31.8107 13.9375 31.738C14.1458 31.6967 14.1652 31.7085 14.3438 31.983C14.6223 32.4113 15.0943 32.6576 15.625 32.6518C16.0446 32.6471 16.2853 32.56 16.667 32.2745L16.8652 32.1261L17.4937 32.4993C18.1959 32.9163 18.5606 33.0344 18.9717 32.9781C19.5518 32.8985 20.1091 32.4425 20.2576 31.9258C20.3002 31.7775 20.3397 31.6489 20.3454 31.6398C20.3511 31.6308 20.4577 31.666 20.5821 31.718C20.8688 31.8377 21.4389 31.8398 21.7208 31.722C21.8399 31.6721 22.0314 31.5598 22.1461 31.4723C22.3857 31.2895 22.6875 30.7745 22.6875 30.5483C22.6875 30.4029 22.7062 30.395 23.0469 30.3975C23.2446 30.3989 23.5154 30.3629 23.6488 30.3175C24.0916 30.1668 24.5296 29.6675 24.6464 29.1803C24.6846 29.0214 24.6933 29.0187 24.9665 29.0812C25.3519 29.1694 25.8632 29.0493 26.2019 28.791C26.7847 28.3465 26.9861 27.489 26.6593 26.8435C26.575 26.677 26.5206 26.5172 26.5385 26.4883C26.5564 26.4594 26.6859 26.3771 26.8264 26.3054C27.0553 26.1886 27.1187 26.1823 27.4349 26.2445C27.9371 26.3433 28.3534 26.248 28.964 25.8942C29.7681 25.4284 29.9764 25.2698 30.0853 25.0403C30.2109 24.7756 30.2172 24.3638 30.0993 24.1358C29.7899 23.5374 26.0236 17.2493 25.8918 17.1108C25.6864 16.8953 25.3674 16.7887 25.0536 16.8308C24.7267 16.8746 23.5733 17.5628 23.2637 17.8987C22.9123 18.28 22.7931 18.636 22.8224 19.2173C22.8454 19.6715 22.8401 19.6939 22.7011 19.7288C22.4194 19.7995 21.9604 19.706 21.2807 19.4394C20.2998 19.0547 20.0392 19.0474 18.8024 19.3693L17.8237 19.6241L17.3337 19.3902C16.8739 19.1707 16.8071 19.1563 16.25 19.1565C15.6917 19.1566 15.6103 19.1743 14.8863 19.4533C13.9901 19.7987 13.6942 19.8246 13.212 19.6001L12.8928 19.4515L12.862 19.0226C12.8055 18.2357 12.5233 17.8601 11.5456 17.271C10.7166 16.7716 10.3928 16.7062 9.96875 16.9525ZM11.1024 18.1038C11.7836 18.5103 11.9766 18.7691 11.9189 19.1993C11.8823 19.4716 8.72512 24.8709 8.46456 25.1065C8.252 25.2988 7.92513 25.3788 7.656 25.3045C7.5355 25.2712 7.19869 25.1016 6.9075 24.9276C6.41687 24.6343 6.38319 24.6013 6.44863 24.4775C6.57894 24.2307 10.3278 17.9072 10.3907 17.8281C10.4249 17.7852 10.4656 17.75 10.4812 17.75C10.4968 17.75 10.7764 17.9092 11.1024 18.1038ZM27.2199 21.0983C28.3106 22.9398 29.2064 24.4912 29.2108 24.5458C29.2201 24.6615 28.3374 25.2191 27.998 25.3121C27.7071 25.3917 27.3831 25.3 27.1736 25.0785C27.0839 24.9838 26.6702 24.3297 26.2542 23.625C25.8382 22.9203 25.4508 22.3086 25.3932 22.2656C25.2365 22.1486 24.9536 22.1714 24.8125 22.3125C24.5749 22.5501 24.6446 22.7484 25.4356 24.088C25.847 24.7847 26.1997 25.3966 26.2193 25.4478C26.2436 25.5109 26.156 25.6023 25.9463 25.7326L25.6376 25.9245L24.0532 24.9856C20.0594 22.6188 19.0974 22.0625 18.9982 22.0625C18.8134 22.0625 18.5625 22.3078 18.5621 22.489C18.5616 22.7403 18.4387 23.1345 18.3001 23.3296C18.147 23.545 17.7558 23.75 17.4977 23.75H17.3029L17.3234 22.5469C17.3534 20.7773 17.4064 20.7041 18.9474 20.308C19.4726 20.173 19.9812 20.0625 20.0777 20.0625C20.1742 20.0625 20.4141 20.1228 20.6109 20.1964C22.0217 20.7243 22.3983 20.7874 23.02 20.6003L23.3098 20.5131L23.4991 20.8208C23.7056 21.1563 23.9172 21.2784 24.1432 21.1925C24.5617 21.0333 24.5524 20.7454 24.1042 19.9943C23.5187 19.0132 23.6081 18.6641 24.5938 18.0835C24.9031 17.9013 25.1744 17.7517 25.1966 17.7511C25.2188 17.7505 26.1293 19.2567 27.2199 21.0983ZM16.7174 20.1358C16.8059 20.1761 16.8692 20.2253 16.8582 20.2451C16.8472 20.265 16.7409 20.4781 16.6222 20.7188L16.4062 21.1563V22.6048C16.4062 24.2215 16.4076 24.2273 16.8808 24.5529C17.0692 24.6826 17.1478 24.6964 17.5625 24.6726C18.2924 24.6308 18.8359 24.2889 19.201 23.642C19.3787 23.327 19.3973 23.3127 19.5229 23.3936C19.5963 23.4408 20.9781 24.2599 22.5938 25.2137C24.2094 26.1675 25.6086 27.0304 25.7031 27.1312C25.9389 27.3826 25.9355 27.6803 25.6939 27.9507C25.3556 28.3294 25.2987 28.3075 22.8556 26.8555C21.5071 26.0541 20.6176 25.5625 20.5159 25.5625C20.1481 25.5625 19.9335 26.0233 20.1719 26.3011C20.232 26.3713 20.9844 26.8422 21.8438 27.3477C22.7031 27.8531 23.4691 28.3237 23.5459 28.3933C23.8269 28.6482 23.7844 29.1426 23.4634 29.353C23.1339 29.569 22.9964 29.5146 21.25 28.4779C20.3391 27.9371 19.5303 27.4788 19.4527 27.4592C19.2664 27.4124 19.0128 27.5834 18.9608 27.7908C18.8754 28.1308 18.9777 28.2237 20.3125 29.0185C21.41 29.6719 21.6099 29.8142 21.706 30.0108C21.8069 30.2173 21.8091 30.2621 21.7282 30.4558C21.6787 30.5743 21.5728 30.717 21.4927 30.7731C21.2062 30.9737 21.0142 30.9077 19.7964 30.1898C19.1571 29.813 18.5624 29.4867 18.4749 29.4647C18.2388 29.4055 17.9072 29.7459 17.9674 29.9856C18.0281 30.2275 18.0771 30.2726 18.6371 30.6009C19.2088 30.936 19.3491 31.066 19.3943 31.3019C19.4712 31.7045 19.0669 32.1165 18.6723 32.0376C18.4657 31.9963 17.4375 31.3954 17.4375 31.316C17.4375 31.2881 17.4797 31.1643 17.5312 31.0409C17.644 30.7711 17.6522 30.3241 17.5507 29.9853C17.4421 29.6226 16.99 29.1488 16.631 29.0213L16.3347 28.9161L16.3964 28.6468C16.4399 28.4566 16.4356 28.2776 16.3818 28.0372C16.2291 27.3549 15.6917 26.8868 14.9822 26.818L14.6038 26.7813L14.5165 26.519C14.4686 26.3746 14.3244 26.1486 14.1963 26.0166C13.849 25.6587 13.5482 25.5343 13.0258 25.5327C12.6337 25.5315 12.5452 25.5545 12.2574 25.7335L11.9321 25.9357L11.7376 25.7142C11.6306 25.5923 11.4287 25.4343 11.289 25.363C10.9416 25.1858 10.3509 25.1437 10.0391 25.274C9.74581 25.3965 9.63119 25.4013 9.58956 25.2928C9.56681 25.2336 12.3277 20.464 12.4631 20.3286C12.4729 20.3188 12.6469 20.3885 12.8499 20.4835C13.1776 20.637 13.2884 20.656 13.8438 20.6535C14.4397 20.6508 14.5021 20.6371 15.1875 20.36C15.946 20.0532 16.3926 19.9878 16.7174 20.1358ZM10.8693 26.2158C11.0814 26.3255 11.2162 26.6221 11.1666 26.8703C11.1243 27.0816 10.4145 28.0995 10.2468 28.1892C9.83906 28.4075 9.3125 28.0978 9.3125 27.64C9.3125 27.4376 9.38475 27.295 9.72913 26.8168C10.2344 26.1152 10.4525 26.0003 10.8693 26.2158ZM13.5227 26.6942C13.8099 27.013 13.7457 27.2037 12.9977 28.2543C12.6444 28.7504 12.2846 29.2333 12.198 29.3274C11.9956 29.5474 11.7006 29.6048 11.4469 29.4736C11.2089 29.3506 11.125 29.2018 11.125 28.9032C11.125 28.7091 11.2419 28.5101 11.8751 27.6273C12.2878 27.0521 12.6885 26.5496 12.7657 26.5108C12.9978 26.394 13.3232 26.4728 13.5227 26.6942ZM15.2632 27.9311C15.4266 28.0771 15.4659 28.1598 15.4659 28.3575C15.4659 28.571 15.3673 28.7407 14.7022 29.672C14.2354 30.3256 13.8839 30.7586 13.7978 30.786C13.3894 30.9156 13.0434 30.7532 12.9314 30.3795C12.8661 30.1612 12.8729 30.1076 12.9923 29.9054C13.2454 29.4763 14.3846 27.9378 14.5188 27.8439C14.7361 27.6916 15.0343 27.7266 15.2632 27.9311ZM16.5048 30.0577C16.7673 30.3201 16.7509 30.5784 16.4427 31.0398C16.0817 31.5802 15.9155 31.716 15.6151 31.716C15.4088 31.716 15.3288 31.6786 15.1811 31.5132C14.9206 31.2216 14.9394 30.9848 15.2612 30.5055C15.5969 30.0057 15.7657 29.875 16.0758 29.875C16.2647 29.875 16.3647 29.9176 16.5048 30.0577Z" fill="#08705F" stroke="#08705F" stroke-width="0.5"/>
</svg>
