<svg width="33" height="32" viewBox="0 0 33 32" fill="none" xmlns="http://www.w3.org/2000/svg">
<path fill-rule="evenodd" clip-rule="evenodd" d="M0.682688 0.182688L0.5 0.365375V11.9004V23.4355L0.681125 23.6382C0.831 23.8059 0.9075 23.8409 1.125 23.8409C1.3425 23.8409 1.419 23.8059 1.56887 23.6382L1.75 23.4355V12.3428V1.25H12.5625H23.375L23.3744 8.89062L23.3739 16.5312L21.4444 19.5319L19.5149 22.5327L19.2731 23.7913L19.0312 25.0498L18.5938 25.042C18.3169 25.0371 18.0367 25.0753 17.8307 25.1462C17.6517 25.2079 17.4023 25.3282 17.2765 25.4135C17.1508 25.4989 17.0316 25.5524 17.0118 25.5326C16.9919 25.5128 16.9547 25.2995 16.9289 25.0586C16.9023 24.8089 16.8119 24.4671 16.7187 24.2636C16.6288 24.0673 16.4936 23.8406 16.4183 23.7599C16.3429 23.6791 16.1665 23.5456 16.0262 23.4631C15.8859 23.3805 15.6441 23.2956 15.4888 23.2743C15.3039 23.2489 15.0792 23.2721 14.8376 23.3413C14.6347 23.3994 14.3141 23.5332 14.125 23.6386C13.9359 23.744 13.5844 23.9784 13.3438 24.1597C13.1031 24.3409 12.6739 24.7242 12.3899 25.0115C12.1059 25.2987 11.7204 25.7374 11.5331 25.9863C11.3459 26.2352 11.0931 26.6087 10.9714 26.8165C10.8241 27.0677 10.75 27.2729 10.75 27.4291C10.75 27.6046 10.7941 27.7064 10.9241 27.8309C11.0199 27.9227 11.1816 28.0134 11.2835 28.0326C11.4067 28.0557 11.5328 28.0274 11.6599 27.9481C11.765 27.8826 11.9669 27.6354 12.1086 27.3989C12.2502 27.1623 12.5539 26.7355 12.7834 26.4504C13.0129 26.1652 13.3904 25.7687 13.6222 25.5692C13.8541 25.3697 14.1675 25.1216 14.3188 25.018C14.47 24.9144 14.7122 24.7695 14.8569 24.6961C15.0016 24.6226 15.1908 24.5625 15.2773 24.5625C15.3755 24.5625 15.4725 24.6203 15.5354 24.7163C15.5969 24.8101 15.658 25.109 15.6919 25.4819C15.7226 25.8184 15.7303 26.4336 15.7091 26.8488L15.6704 27.6039L15.8601 27.8161C16.0155 27.9901 16.0946 28.0284 16.2982 28.0284C16.4349 28.0284 16.5961 27.9874 16.6565 27.9373C16.7169 27.8872 16.8757 27.6729 17.0095 27.4611C17.1433 27.2492 17.3759 26.9624 17.5264 26.8236C17.6769 26.6849 17.9142 26.5131 18.0538 26.4419C18.1934 26.3708 18.3807 26.3125 18.4701 26.3125H18.6327L18.6171 26.9531C18.6055 27.4236 18.6251 27.6311 18.6907 27.7344C18.7399 27.8118 18.8735 27.9194 18.9877 27.9736C19.1466 28.0489 19.238 28.0571 19.3779 28.0084C19.4783 27.9734 20.3836 27.3574 21.3896 26.6395C22.3956 25.9217 23.2539 25.3137 23.2969 25.2885C23.3589 25.2521 23.375 25.8106 23.375 27.9963V30.75H12.5625H1.75V29.626V28.502L1.574 28.3049C1.42738 28.1409 1.35231 28.1079 1.125 28.1079C0.897687 28.1079 0.822625 28.1409 0.676 28.3049L0.5 28.502V30.0683V31.6346L0.682688 31.8173L0.865375 32L12.5421 31.9986C23.5111 31.9973 24.2268 31.9907 24.3521 31.8893C24.4254 31.8298 24.5168 31.7198 24.5552 31.6448C24.6045 31.5483 24.625 30.3191 24.625 27.4626V23.4169L28.3853 17.5679C30.4535 14.3508 32.2183 11.5641 32.3072 11.375C32.4455 11.0807 32.4688 10.9457 32.4688 10.4375C32.4688 9.92412 32.4461 9.79537 32.3013 9.48637C32.2091 9.28981 32.0011 8.98725 31.8391 8.81394C31.661 8.62356 31.3816 8.41875 31.1329 8.29631C30.756 8.11081 30.6712 8.09375 30.125 8.09375C29.5803 8.09375 29.4935 8.11106 29.1237 8.2935C28.901 8.40337 28.6009 8.61431 28.4569 8.76225C28.3128 8.91019 27.3917 10.28 26.41 11.8062L24.625 14.5812V7.5365C24.625 2.47106 24.6054 0.453438 24.5552 0.35525C24.5168 0.280188 24.4254 0.170188 24.3521 0.11075C24.2268 0.0093127 23.5111 0.0026877 12.5421 0.0013752L0.865375 0L0.682688 0.182688ZM4.86037 3.11987L4.65625 3.30219L4.63794 7.323C4.62787 9.53438 4.63563 11.432 4.65513 11.5399C4.67456 11.6477 4.764 11.8094 4.85381 11.8993L5.01706 12.0625H8.73137C11.1594 12.0625 12.4874 12.0402 12.5659 11.9981C12.6321 11.9628 12.7287 11.8516 12.7806 11.7513C12.8619 11.5939 12.875 11.0067 12.875 7.499C12.875 4.62475 12.8545 3.38919 12.8052 3.29275C12.7668 3.21769 12.6754 3.10769 12.6021 3.04825C12.4791 2.94869 12.1799 2.94019 8.76663 2.93888L5.0645 2.9375L4.86037 3.11987ZM11.625 6.41237V8.63725L11.4219 8.50163C11.3102 8.427 11.0711 8.29563 10.8906 8.20963C10.7102 8.12369 10.5625 8.04019 10.5625 8.02419C10.5625 8.00812 10.6246 7.87662 10.7006 7.73187C10.8126 7.51856 10.8392 7.36225 10.8413 6.90625C10.8434 6.40944 10.8232 6.30363 10.6676 6C10.5706 5.81094 10.4019 5.56244 10.2926 5.44781C10.1832 5.33319 9.97656 5.17019 9.83337 5.08556C9.69019 5.001 9.47925 4.90394 9.36462 4.86987C9.25 4.83575 8.97106 4.80756 8.74475 4.80719C8.47844 4.80675 8.20975 4.85269 7.983 4.93756C7.77237 5.01638 7.50806 5.18569 7.31994 5.36244C7.13019 5.54069 6.93887 5.80375 6.8335 6.03125C6.68887 6.34344 6.65994 6.49 6.66062 6.90625C6.66131 7.28687 6.6945 7.47906 6.7995 7.71106C6.87537 7.87875 6.9375 8.02563 6.9375 8.03744C6.9375 8.04931 6.76175 8.14619 6.54688 8.25281C6.33206 8.35937 6.10706 8.49106 6.04688 8.54544C5.94287 8.6395 5.9375 8.53425 5.9375 6.41594V4.1875H8.78125H11.625V6.41237ZM15.3702 4.37019C15.2351 4.50525 15.1875 4.61225 15.1875 4.78056C15.1875 4.90575 15.2164 5.06231 15.2519 5.12844C15.2872 5.19462 15.3984 5.29119 15.4987 5.34312C15.6523 5.4225 16.0642 5.4375 18.0938 5.4375C20.1232 5.4375 20.5352 5.4225 20.6887 5.34312C20.7891 5.29119 20.9002 5.19462 20.9356 5.12844C20.9711 5.06231 21 4.90575 21 4.78056C21 4.61225 20.9524 4.50525 20.8173 4.37019L20.6346 4.1875H18.0938H15.5529L15.3702 4.37019ZM9.31644 6.285C9.4185 6.38281 9.52913 6.56344 9.56225 6.6865C9.60156 6.83256 9.60056 6.98944 9.55937 7.13856C9.52475 7.26419 9.41194 7.43794 9.30881 7.52475C9.20569 7.6115 9.0225 7.70106 8.90175 7.72375C8.76687 7.749 8.59313 7.73106 8.45144 7.67712C8.32256 7.62806 8.15825 7.49656 8.07912 7.37919C7.99206 7.25 7.9375 7.07506 7.9375 6.92513C7.9375 6.791 7.98106 6.59706 8.03431 6.49413C8.0875 6.39119 8.22113 6.25037 8.33119 6.18125C8.48125 6.08694 8.60612 6.062 8.83106 6.08138C9.05338 6.10056 9.17881 6.15319 9.31644 6.285ZM15.3702 7.12019C15.2311 7.25931 15.1878 7.35994 15.1889 7.54206C15.1896 7.67369 15.2388 7.84119 15.2983 7.91456C15.3577 7.98787 15.4677 8.07931 15.5428 8.11769C15.6364 8.16556 16.4383 8.1875 18.0928 8.1875C20.1231 8.1875 20.5352 8.1725 20.6887 8.09312C20.7891 8.04119 20.9002 7.94462 20.9356 7.87844C20.9711 7.81231 21 7.65575 21 7.53056C21 7.36225 20.9524 7.25525 20.8173 7.12019L20.6346 6.9375H18.0938H15.5529L15.3702 7.12019ZM9.7775 9.16494C9.98169 9.217 10.2629 9.31775 10.4025 9.38881C10.5421 9.45988 10.7461 9.58644 10.8559 9.67006C10.9658 9.75369 11.1413 9.9555 11.2459 10.1186C11.3505 10.2816 11.454 10.5045 11.4759 10.6138L11.5156 10.8125H8.75781C6.59288 10.8125 6.00012 10.7957 6.00063 10.7344C6.00094 10.6914 6.06756 10.5156 6.14862 10.3438C6.22969 10.1719 6.40519 9.923 6.53862 9.79062C6.67206 9.65831 6.90831 9.48538 7.06356 9.40638C7.21881 9.32731 7.47194 9.22825 7.62606 9.18612C7.78019 9.14406 8.04688 9.087 8.21875 9.05938C8.39062 9.03175 8.72812 9.02288 8.96875 9.03969C9.20938 9.0565 9.57331 9.11288 9.7775 9.16494ZM30.6774 9.48369C30.7922 9.53781 30.9521 9.68313 31.0326 9.80663C31.1132 9.93019 31.1973 10.1322 31.2196 10.2557C31.2419 10.3791 31.2301 10.5901 31.1932 10.7244C31.1563 10.8588 31.0746 11.0463 31.0115 11.1411L30.8968 11.3136L29.954 10.7067L29.0112 10.1L29.1903 9.83969C29.2888 9.69656 29.4621 9.53619 29.5753 9.48338C29.6886 9.43056 29.8375 9.37294 29.9062 9.35525C29.975 9.33763 30.1297 9.33719 30.25 9.35431C30.3703 9.37138 30.5627 9.42963 30.6774 9.48369ZM15.3702 9.87019C15.2311 10.0093 15.1878 10.1099 15.1889 10.2921C15.1896 10.4237 15.2388 10.5912 15.2983 10.6646C15.3577 10.7379 15.4677 10.8293 15.5428 10.8677C15.6364 10.9156 16.4383 10.9375 18.0928 10.9375C20.1231 10.9375 20.5352 10.9225 20.6887 10.8431C20.7891 10.7912 20.9002 10.6946 20.9356 10.6284C20.9711 10.5623 21 10.4101 21 10.2901C21 10.1467 20.9446 10.0062 20.8382 9.87981L20.6764 9.6875H18.1146H15.5529L15.3702 9.87019ZM29.4877 11.9194L30.1941 12.3759L30.0502 12.614C29.971 12.745 28.3312 15.3036 26.4062 18.2996C24.4813 21.2957 22.8871 23.7477 22.8637 23.7486C22.8403 23.7494 22.4184 23.4911 21.9262 23.1746C21.434 22.8582 21.0235 22.595 21.0141 22.5898C21.0046 22.5845 22.6032 20.0801 24.5665 17.0245C26.5298 13.9688 28.1773 11.4041 28.2277 11.3251L28.3193 11.1815L28.5502 11.3222C28.6773 11.3996 29.0991 11.6683 29.4877 11.9194ZM5.18269 20.1202C5.04356 20.2593 5.00031 20.3599 5.00138 20.5421C5.00213 20.6737 5.05131 20.8412 5.11075 20.9146C5.17019 20.9879 5.28019 21.0793 5.35525 21.1177C5.45206 21.1672 6.79506 21.1875 9.97087 21.1875H14.45L14.6625 20.975C14.7973 20.8403 14.875 20.7019 14.875 20.5969C14.875 20.5058 14.8325 20.3491 14.7806 20.2488C14.7287 20.1484 14.6321 20.0373 14.5659 20.0019C14.4867 19.9594 12.8999 19.9375 9.90556 19.9375H5.36538L5.18269 20.1202ZM5.18269 22.7452C5.04356 22.8843 5.00031 22.9849 5.00138 23.1671C5.00213 23.2987 5.05131 23.4662 5.11075 23.5396C5.17019 23.6129 5.28019 23.7043 5.35525 23.7427C5.44819 23.7902 6.194 23.8125 7.68962 23.8125H9.8875L10.108 23.592C10.3088 23.3912 10.3253 23.3479 10.2931 23.1077C10.2692 22.9298 10.2045 22.7982 10.0941 22.7033C9.93087 22.5628 9.92544 22.5625 7.64794 22.5625H5.36538L5.18269 22.7452ZM21.3011 24.2738C21.6167 24.4759 21.875 24.6607 21.875 24.6844C21.875 24.7081 21.4953 24.9992 21.0312 25.3312C20.5672 25.6632 20.1875 25.8979 20.1875 25.8528C20.1875 25.8076 20.2717 25.3371 20.3745 24.8072C20.4774 24.2773 20.5618 23.8353 20.562 23.825C20.5623 23.8147 20.5996 23.8288 20.6448 23.8563C20.6901 23.8838 20.9854 24.0716 21.3011 24.2738ZM0.682688 25.5577C0.558688 25.6817 0.5 25.8031 0.5 25.9358C0.5 26.0433 0.540062 26.2087 0.589062 26.3034C0.638062 26.3982 0.751875 26.5092 0.842 26.5503C0.932125 26.5914 1.06219 26.625 1.13106 26.625C1.19987 26.625 1.33369 26.5849 1.42844 26.5359C1.52319 26.4869 1.63425 26.3731 1.67531 26.283C1.71637 26.1929 1.75 26.0339 1.75 25.9297C1.75 25.8038 1.68881 25.6792 1.56731 25.5577C1.424 25.4144 1.32862 25.375 1.125 25.375C0.921375 25.375 0.826 25.4144 0.682688 25.5577Z" fill="#08705F"/>
<path d="M5.364 16.7139C5.22487 16.8531 5.18162 16.9537 5.18269 17.1358C5.18344 17.2674 5.23263 17.4349 5.29206 17.5083C5.3515 17.5816 5.4615 17.6731 5.53656 17.7114C5.63337 17.7609 6.97637 17.7812 10.1522 17.7812H18.6313L18.8438 17.5688C18.9786 17.434 19.0563 17.2956 19.0563 17.1906C19.0563 17.0996 19.0138 16.9429 18.9619 16.8425C18.91 16.7421 18.8134 16.631 18.7472 16.5956C18.668 16.5532 13.0813 16.5312 10.0869 16.5312H5.54669L5.364 16.7139Z" fill="#08705F"/>
</svg>
