<svg width="227" height="38" viewBox="0 0 227 38" fill="none" xmlns="http://www.w3.org/2000/svg">
<path d="M40.1362 19.0701C40.1362 16.5868 42.1153 14.8223 44.7769 14.8223C46.2442 14.8223 47.5067 15.3451 48.2915 16.26L47.029 17.371C46.4489 16.7501 45.7323 16.4234 44.8793 16.4234C43.2755 16.4234 42.1495 17.5017 42.1495 19.0375C42.1495 20.5732 43.2755 21.6515 44.8793 21.6515C45.7323 21.6515 46.4489 21.3248 47.029 20.6713L48.2915 21.7822C47.4726 22.7298 46.2442 23.2527 44.7769 23.2527C42.1153 23.318 40.1362 21.5535 40.1362 19.0701Z" fill="white"/>
<path d="M56.549 21.6515V23.1872H49.9292V14.9856H56.3784V16.5214H51.8742V18.2859H55.8324V19.7563H51.8742V21.6515H56.549Z" fill="white"/>
<path d="M66.274 14.9856V23.1872H64.6361L60.3708 18.2205V23.1872H58.4258V14.9856H60.0637L64.329 19.9523V14.9856H66.274Z" fill="white"/>
<path d="M70.369 16.5214H67.6392V14.9856H75.0779V16.5214H72.3481V23.1546H70.369V16.5214Z" fill="white"/>
<path d="M83.0968 21.6515V23.1872H76.4771V14.9856H82.9262V16.5214H78.422V18.2859H82.3802V19.7563H78.422V21.6515H83.0968Z" fill="white"/>
<path d="M90.4328 23.1872L88.7949 20.8999H88.6926H86.9864V23.1872H85.0073V14.9856H88.7267C91.0129 14.9856 92.4461 16.1293 92.4461 17.9591C92.4461 19.2008 91.7977 20.083 90.6717 20.5405L92.5825 23.1872H90.4328ZM88.5561 16.5214H86.9523V19.3642H88.5561C89.7504 19.3642 90.3646 18.8413 90.3646 17.9264C90.3987 17.0769 89.7845 16.5214 88.5561 16.5214Z" fill="white"/>
<path d="M97.4966 19.0701C97.4966 16.6521 99.4757 14.8223 102.171 14.8223C104.867 14.8223 106.846 16.6194 106.846 19.0701C106.846 21.5208 104.867 23.318 102.171 23.318C99.4757 23.318 97.4966 21.5208 97.4966 19.0701ZM104.833 19.0701C104.833 17.5017 103.673 16.4561 102.171 16.4561C100.67 16.4561 99.5098 17.5344 99.5098 19.0701C99.5098 20.6386 100.67 21.6842 102.171 21.6842C103.673 21.6842 104.833 20.6386 104.833 19.0701Z" fill="white"/>
<path d="M110.633 16.5214V18.678H114.592V20.2137H110.633V23.1872H108.654V14.9856H115.103V16.5214H110.633Z" fill="white"/>
<path d="M120.529 14.9856H124.419C127.217 14.9856 129.128 16.5867 129.128 19.0701C129.128 21.5534 127.217 23.1546 124.419 23.1546H120.529V14.9856ZM124.317 21.6188C126.023 21.6188 127.115 20.6385 127.115 19.0701C127.115 17.5016 125.989 16.5214 124.317 16.5214H122.508V21.6188H124.317Z" fill="white"/>
<path d="M130.937 14.9856H132.916V23.1872H130.937V14.9856Z" fill="white"/>
<path d="M141.003 18.9721H142.811V22.2724C141.856 22.9586 140.559 23.318 139.365 23.318C136.669 23.318 134.69 21.5535 134.69 19.0701C134.69 16.5868 136.669 14.8223 139.399 14.8223C140.9 14.8223 142.163 15.3124 142.982 16.2273L141.719 17.3383C141.105 16.7175 140.388 16.4234 139.501 16.4234C137.829 16.4234 136.703 17.5017 136.703 19.0375C136.703 20.5732 137.829 21.6515 139.467 21.6515C140.013 21.6515 140.491 21.5535 141.003 21.2921V18.9721Z" fill="white"/>
<path d="M144.961 14.9856H146.94V23.1872H144.961V14.9856Z" fill="white"/>
<path d="M151.035 16.5214H148.305V14.9856H155.744V16.5214H153.014V23.1546H151.035V16.5214Z" fill="white"/>
<path d="M162.33 21.4227H158.371L157.621 23.1872H155.607L159.429 14.9856H161.374L165.196 23.1872H163.114L162.33 21.4227ZM161.715 19.985L160.35 16.8481L158.986 19.985H161.715Z" fill="white"/>
<path d="M166.39 14.9856H168.369V21.6188H172.669V23.1546H166.39V14.9856Z" fill="white"/>
<path d="M174.067 14.9856H176.046V23.1872H174.067V14.9856Z" fill="white"/>
<path d="M185.294 21.6515V23.1872H177.821V21.9456L182.53 16.5214H177.923V14.9856H185.123V16.2273L180.448 21.6515H185.294Z" fill="white"/>
<path d="M192.528 21.4227H188.57L187.819 23.1872H185.806L189.627 14.9856H191.572L195.394 23.1872H193.313L192.528 21.4227ZM191.879 19.985L190.515 16.8481L189.15 19.985H191.879Z" fill="white"/>
<path d="M197.885 16.5214H195.155V14.9856H202.594V16.5214H199.864V23.1546H197.885V16.5214Z" fill="white"/>
<path d="M203.993 14.9856H205.972V23.1872H203.993V14.9856Z" fill="white"/>
<path d="M207.747 19.0701C207.747 16.6521 209.726 14.8223 212.421 14.8223C215.117 14.8223 217.096 16.6194 217.096 19.0701C217.096 21.5208 215.117 23.318 212.421 23.318C209.726 23.318 207.747 21.5208 207.747 19.0701ZM215.117 19.0701C215.117 17.5017 213.957 16.4561 212.455 16.4561C210.954 16.4561 209.794 17.5344 209.794 19.0701C209.794 20.6386 210.954 21.6842 212.455 21.6842C213.957 21.6842 215.117 20.6386 215.117 19.0701Z" fill="white"/>
<path d="M226.753 14.9856V23.1872H225.115L220.85 18.2205V23.1872H218.905V14.9856H220.543L224.808 19.9523V14.9856H226.753Z" fill="white"/>
<path d="M40.7505 29.6897C40.7505 28.5134 41.7059 27.6638 43.0026 27.6638C44.2992 27.6638 45.2547 28.5134 45.2547 29.6897C45.2547 30.8661 44.2992 31.7156 43.0026 31.7156C41.7059 31.7156 40.7505 30.8661 40.7505 29.6897ZM44.2651 29.6897C44.2651 28.9382 43.7192 28.448 42.9685 28.448C42.2519 28.448 41.6718 28.9709 41.6718 29.6897C41.6718 30.4413 42.2178 30.9314 42.9685 30.9314C43.7192 30.9641 44.2651 30.4413 44.2651 29.6897Z" fill="white"/>
<path d="M46.8924 28.4481V29.4937H48.8033V30.2126H46.8924V31.6504H45.937V27.7292H49.0422V28.4481H46.8924Z" fill="white"/>
<path d="M54.0244 30.8008H52.1135L51.7382 31.6504H50.7827L52.5912 27.7292H53.5125L55.3552 31.6504H54.3656L54.0244 30.8008ZM53.7514 30.1146L53.1031 28.6115L52.4547 30.1146H53.7514Z" fill="white"/>
<path d="M58.5282 29.6244H59.3812V31.2255C58.9376 31.5522 58.3234 31.7156 57.7434 31.7156C56.4467 31.7156 55.5254 30.8661 55.5254 29.6897C55.5254 28.5134 56.4808 27.6638 57.7775 27.6638C58.4941 27.6638 59.1083 27.8926 59.4836 28.35L58.8694 28.8728C58.5623 28.5787 58.2211 28.4154 57.8116 28.4154C57.0268 28.4154 56.4808 28.9382 56.4808 29.6571C56.4808 30.3759 57.0268 30.8987 57.8116 30.8987C58.0846 30.8987 58.3234 30.8661 58.5623 30.7354V29.6244H58.5282Z" fill="white"/>
<path d="M62.8619 31.6504L62.0771 30.572H62.0429H61.224V31.6504H60.2686V27.7292H62.0429C63.1349 27.7292 63.8173 28.2847 63.8173 29.167C63.8173 29.7552 63.5102 30.1799 62.9642 30.4087L63.8856 31.683H62.8619V31.6504ZM61.9747 28.4808H61.1899V29.8532H61.9747C62.5548 29.8532 62.8619 29.5918 62.8619 29.167C62.8619 28.7422 62.5548 28.4808 61.9747 28.4808Z" fill="white"/>
<path d="M64.2949 29.6897C64.2949 28.5134 65.2504 27.6638 66.547 27.6638C67.8437 27.6638 68.7991 28.5134 68.7991 29.6897C68.7991 30.8661 67.8437 31.7156 66.547 31.7156C65.2504 31.7156 64.2949 30.8661 64.2949 29.6897ZM67.8096 29.6897C67.8096 28.9382 67.2636 28.448 66.5129 28.448C65.7963 28.448 65.2162 28.9709 65.2162 29.6897C65.2162 30.4413 65.7622 30.9314 66.5129 30.9314C67.2636 30.9641 67.8096 30.4413 67.8096 29.6897Z" fill="white"/>
<path d="M71.1538 27.7292H72.1092V31.6504H71.1538V27.7292Z" fill="white"/>
<path d="M76.8179 27.7292V31.6504H76.0331L73.9858 29.265V31.6504H73.0645V27.7292H73.8493L75.8966 30.1146V27.7292H76.8179Z" fill="white"/>
<path d="M77.7734 27.7292H79.6161C80.9468 27.7292 81.8681 28.5135 81.8681 29.6898C81.8681 30.8661 80.9468 31.6504 79.6161 31.6504H77.7734V27.7292ZM79.5819 30.8988C80.4009 30.8988 80.9127 30.4413 80.9127 29.6898C80.9127 28.9383 80.3668 28.4808 79.5819 28.4808H78.7289V30.8988H79.5819Z" fill="white"/>
<path d="M82.585 29.9185V27.7292H83.5404V29.8859C83.5404 30.6374 83.8816 30.9315 84.4617 30.9315C85.0418 30.9315 85.383 30.6374 85.383 29.8859V27.7292H86.3043V29.9185C86.3043 31.0622 85.6219 31.7157 84.4617 31.7157C83.2674 31.7157 82.585 31.0949 82.585 29.9185Z" fill="white"/>
<path d="M86.8843 31.2581L87.1914 30.5719C87.5326 30.8007 88.0444 30.9641 88.5563 30.9641C89.1023 30.9641 89.3411 30.8007 89.3411 30.5393C89.3411 29.8204 86.9525 30.3105 86.9525 28.8401C86.9525 28.1866 87.4985 27.6311 88.6928 27.6311C89.2046 27.6311 89.7506 27.7618 90.1259 27.9905L89.8188 28.6767C89.4435 28.4807 89.034 28.3827 88.6928 28.3827C88.1468 28.3827 87.908 28.5787 87.908 28.8401C87.908 29.559 90.2965 29.0688 90.2965 30.5066C90.2965 31.1601 89.7165 31.7156 88.5563 31.7156C87.908 31.7156 87.2596 31.5522 86.8843 31.2581Z" fill="white"/>
<path d="M91.7298 28.4808H90.4331V27.7292H94.016V28.4808H92.6852V31.6504H91.7298V28.4808Z" fill="white"/>
<path d="M97.1207 31.6504L96.3359 30.572H96.3017H95.4828V31.6504H94.5273V27.7292H96.3017C97.3937 27.7292 98.0761 28.2847 98.0761 29.167C98.0761 29.7552 97.769 30.1799 97.223 30.4087L98.1444 31.683H97.1207V31.6504ZM96.2335 28.4808H95.4487V29.8532H96.2335C96.8136 29.8532 97.1207 29.5918 97.1207 29.167C97.0866 28.7422 96.8136 28.4808 96.2335 28.4808Z" fill="white"/>
<path d="M100.704 30.278V31.6504H99.7484V30.2453L98.1787 27.7292H99.1683L100.26 29.4611L101.352 27.7292H102.273L100.704 30.278Z" fill="white"/>
<path d="M104.321 29.9185V27.7292H105.276V29.8859C105.276 30.6374 105.617 30.9315 106.198 30.9315C106.778 30.9315 107.119 30.6374 107.119 29.8859V27.7292H108.04V29.9185C108.04 31.0622 107.358 31.7157 106.198 31.7157C105.003 31.7157 104.321 31.0949 104.321 29.9185Z" fill="white"/>
<path d="M112.715 27.7292V31.6504H111.93L109.883 29.265V31.6504H108.961V27.7292H109.746L111.794 30.1146V27.7292H112.715Z" fill="white"/>
<path d="M113.67 27.7292H115.513C116.844 27.7292 117.765 28.5135 117.765 29.6898C117.765 30.8661 116.844 31.6504 115.513 31.6504H113.67V27.7292ZM115.479 30.8988C116.298 30.8988 116.81 30.4413 116.81 29.6898C116.81 28.9383 116.264 28.4808 115.479 28.4808H114.626V30.8988H115.479Z" fill="white"/>
<path d="M121.655 30.9315V31.6504H118.481V27.7292H121.587V28.4481H119.437V29.2977H121.348V30.0166H119.437V30.9315H121.655Z" fill="white"/>
<path d="M125.033 31.6504L124.248 30.572H124.214H123.395V31.6504H122.44V27.7292H124.214C125.306 27.7292 125.989 28.2847 125.989 29.167C125.989 29.7552 125.682 30.1799 125.136 30.4087L126.057 31.683H125.033V31.6504ZM124.146 28.4808H123.361V29.8532H124.146C124.726 29.8532 125.033 29.5918 125.033 29.167C124.999 28.7422 124.726 28.4808 124.146 28.4808Z" fill="white"/>
<path d="M129.23 28.4808H127.934V27.7292H131.516V28.4808H130.22V31.6504H129.264V28.4808H129.23Z" fill="white"/>
<path d="M135.748 27.7292V31.6504H134.792V30.0492H132.95V31.6504H131.994V27.7292H132.95V29.265H134.792V27.7292H135.748Z" fill="white"/>
<path d="M139.876 30.9315V31.6504H136.703V27.7292H139.808V28.4481H137.659V29.2977H139.569V30.0166H137.659V30.9315H139.876Z" fill="white"/>
<path d="M146.019 31.6503V29.2976L144.824 31.2255H144.381L143.187 29.3303V31.6176H142.299V27.6965H143.084L144.62 30.1472L146.121 27.6965H146.906V31.6176H146.019V31.6503Z" fill="white"/>
<path d="M147.861 27.7292H148.817V31.6504H147.861V27.7292Z" fill="white"/>
<path d="M153.526 27.7292V31.6504H152.741L150.694 29.265V31.6504H149.772V27.7292H150.557L152.605 30.1146V27.7292H153.526Z" fill="white"/>
<path d="M154.515 27.7292H155.471V31.6504H154.515V27.7292Z" fill="white"/>
<path d="M156.085 31.2581L156.392 30.5719C156.733 30.8007 157.245 30.9641 157.757 30.9641C158.303 30.9641 158.542 30.8007 158.542 30.5393C158.542 29.8204 156.153 30.3105 156.153 28.8401C156.153 28.1866 156.699 27.6311 157.893 27.6311C158.405 27.6311 158.951 27.7618 159.327 27.9905L159.019 28.6767C158.644 28.4807 158.235 28.3827 157.893 28.3827C157.347 28.3827 157.109 28.5787 157.109 28.8401C157.109 29.559 159.497 29.0688 159.497 30.5066C159.497 31.1601 158.917 31.7156 157.757 31.7156C157.109 31.7156 156.46 31.5522 156.085 31.2581Z" fill="white"/>
<path d="M160.93 28.4808H159.634V27.7292H163.217V28.4808H161.92V31.6504H160.93V28.4808Z" fill="white"/>
<path d="M166.322 31.6504L165.537 30.572H165.503H164.684V31.6504H163.729V27.7292H165.503C166.595 27.7292 167.277 28.2847 167.277 29.167C167.277 29.7552 166.97 30.1799 166.424 30.4087L167.346 31.683H166.322V31.6504ZM165.435 28.4808H164.65V29.8532H165.435C166.015 29.8532 166.322 29.5918 166.322 29.167C166.288 28.7422 166.015 28.4808 165.435 28.4808Z" fill="white"/>
<path d="M169.904 30.278V31.6504H168.949V30.2453L167.379 27.7292H168.369L169.461 29.4611L170.553 27.7292H171.474L169.904 30.278Z" fill="white"/>
<path d="M173.283 29.6897C173.283 28.5134 174.238 27.6638 175.535 27.6638C176.831 27.6638 177.787 28.5134 177.787 29.6897C177.787 30.8661 176.831 31.7156 175.535 31.7156C174.238 31.7156 173.283 30.8661 173.283 29.6897ZM176.797 29.6897C176.797 28.9382 176.251 28.448 175.501 28.448C174.784 28.448 174.204 28.9709 174.204 29.6897C174.204 30.4413 174.75 30.9314 175.501 30.9314C176.251 30.9641 176.797 30.4413 176.797 29.6897Z" fill="white"/>
<path d="M179.425 28.4481V29.4937H181.336V30.2126H179.425V31.6504H178.47V27.7292H181.575V28.4481H179.425Z" fill="white"/>
<path d="M186.557 30.8008H184.646L184.27 31.6504H183.315L185.123 27.7292H186.045L187.887 31.6504H186.898L186.557 30.8008ZM186.249 30.1146L185.601 28.6115L184.953 30.1146H186.249Z" fill="white"/>
<path d="M191.06 29.6244H191.913V31.2255C191.47 31.5522 190.856 31.7156 190.276 31.7156C188.979 31.7156 188.058 30.8661 188.058 29.6897C188.058 28.5134 189.013 27.6638 190.31 27.6638C191.026 27.6638 191.64 27.8926 192.016 28.35L191.402 28.8728C191.095 28.5787 190.753 28.4154 190.344 28.4154C189.559 28.4154 189.013 28.9382 189.013 29.6571C189.013 30.3759 189.559 30.8987 190.344 30.8987C190.617 30.8987 190.856 30.8661 191.095 30.7354V29.6244H191.06Z" fill="white"/>
<path d="M195.394 31.6504L194.609 30.572H194.575H193.756V31.6504H192.801V27.7292H194.575C195.667 27.7292 196.35 28.2847 196.35 29.167C196.35 29.7552 196.042 30.1799 195.496 30.4087L196.418 31.683H195.394V31.6504ZM194.507 28.4808H193.722V29.8532H194.507C195.087 29.8532 195.394 29.5918 195.394 29.167C195.394 28.7422 195.087 28.4808 194.507 28.4808Z" fill="white"/>
<path d="M197.1 27.7292H198.056V31.6504H197.1V27.7292Z" fill="white"/>
<path d="M198.738 29.6897C198.738 28.5134 199.694 27.6638 200.956 27.6638C201.673 27.6638 202.253 27.9252 202.628 28.35L202.014 28.8728C201.741 28.5787 201.4 28.4154 200.99 28.4154C200.24 28.4154 199.694 28.9382 199.694 29.6571C199.694 30.4086 200.24 30.8987 200.99 30.8987C201.4 30.8987 201.741 30.7354 202.014 30.4413L202.628 30.9641C202.253 31.4216 201.639 31.6503 200.922 31.6503C199.694 31.7156 198.738 30.8661 198.738 29.6897Z" fill="white"/>
<path d="M203.208 29.9185V27.7292H204.163V29.8859C204.163 30.6374 204.505 30.9315 205.085 30.9315C205.665 30.9315 206.006 30.6374 206.006 29.8859V27.7292H206.927V29.9185C206.927 31.0622 206.245 31.7157 205.085 31.7157C203.89 31.7157 203.208 31.0949 203.208 29.9185Z" fill="white"/>
<path d="M207.849 27.7292H208.805V30.8988H210.852V31.6504H207.849V27.7292Z" fill="white"/>
<path d="M211.841 28.4808H210.544V27.7292H214.127V28.4808H212.797V31.6504H211.841V28.4808Z" fill="white"/>
<path d="M214.503 29.9185V27.7292H215.458V29.8859C215.458 30.6374 215.8 30.9315 216.38 30.9315C216.96 30.9315 217.301 30.6374 217.301 29.8859V27.7292H218.222V29.9185C218.222 31.0622 217.54 31.7157 216.38 31.7157C215.22 31.7157 214.503 31.0949 214.503 29.9185Z" fill="white"/>
<path d="M221.771 31.6504L220.986 30.572H220.952H220.133V31.6504H219.178V27.7292H220.952C222.044 27.7292 222.726 28.2847 222.726 29.167C222.726 29.7552 222.419 30.1799 221.873 30.4087L222.795 31.683H221.771V31.6504ZM220.884 28.4808H220.099V29.8532H220.884C221.464 29.8532 221.771 29.5918 221.771 29.167C221.737 28.7422 221.464 28.4808 220.884 28.4808Z" fill="white"/>
<path d="M226.616 30.9315V31.6504H223.443V27.7292H226.548V28.4481H224.398V29.2977H226.309V30.0166H224.398V30.9315H226.616Z" fill="white"/>
<path fill-rule="evenodd" clip-rule="evenodd" d="M29.7628 31.291V35.6369C29.7628 36.5518 28.978 37.336 27.9884 37.336H18.4341C18.98 36.3557 19.6966 35.4408 20.5156 34.6566C22.6994 32.5653 25.7363 31.2583 29.0803 31.2583C29.3533 31.2583 29.5581 31.291 29.7628 31.291Z" fill="white"/>
<path fill-rule="evenodd" clip-rule="evenodd" d="M29.7628 26.3896V30.1147C29.5581 30.1147 29.3192 30.1147 29.1145 30.1147C25.4292 30.1147 22.0852 31.5524 19.6625 33.8724C18.6047 34.8854 17.7175 36.0617 17.0692 37.3687H12.9062C13.7593 35.0488 15.1583 32.9575 16.9668 31.2584C20.072 28.2848 24.4056 26.4223 29.1486 26.4223C29.3533 26.3896 29.5581 26.3896 29.7628 26.3896Z" fill="white"/>
<path fill-rule="evenodd" clip-rule="evenodd" d="M29.7631 21.521V25.2461C29.5584 25.2461 29.3195 25.2461 29.1148 25.2461C24.0305 25.2461 19.3899 27.2393 16.08 30.4088C14.0667 32.3367 12.5312 34.7221 11.6099 37.3688H7.54932C8.57299 33.7091 10.5862 30.4088 13.316 27.7948C17.3425 23.939 22.9386 21.521 29.1148 21.521C29.3537 21.521 29.5584 21.521 29.7631 21.521Z" fill="white"/>
<path fill-rule="evenodd" clip-rule="evenodd" d="M7.78811 33.3496C7.17391 34.624 6.66207 35.9637 6.28672 37.3361H1.98727C1.03183 37.3361 0.212891 36.5845 0.212891 35.6369V31.291C0.417626 31.291 0.656485 31.291 0.86122 31.291C3.42042 31.2583 5.809 32.0426 7.78811 33.3496Z" fill="white"/>
<path fill-rule="evenodd" clip-rule="evenodd" d="M10.4155 29.1671C9.63068 30.1473 8.9141 31.193 8.2999 32.2713C6.18429 30.8989 3.59097 30.082 0.827041 30.082C0.622305 30.082 0.383447 30.082 0.178711 30.082V26.3569C0.383447 26.3569 0.622305 26.3569 0.827041 26.3569C4.40992 26.3896 7.68569 27.4026 10.4155 29.1671Z" fill="white"/>
<path fill-rule="evenodd" clip-rule="evenodd" d="M13.9984 25.6054C13.4525 26.0302 12.9406 26.4877 12.4629 26.9452C12.0193 27.3699 11.6098 27.7947 11.2004 28.2522C8.26583 26.3243 4.68295 25.2133 0.86122 25.2133C0.656485 25.2133 0.417626 25.2133 0.212891 25.2133V21.4883C0.417626 21.4883 0.656485 21.4883 0.86122 21.4883C5.77488 21.521 10.3132 23.024 13.9984 25.6054Z" fill="white"/>
<path fill-rule="evenodd" clip-rule="evenodd" d="M0.86122 20.3447C5.84312 20.3447 10.6885 21.8478 14.715 24.6579L14.988 24.854C19.0486 21.9458 23.9622 20.3447 29.1147 20.3447C29.3195 20.3447 29.5583 20.3447 29.7631 20.3447V18.0247L15.3292 20.6388L15.0221 9.07153H1.98727C1.03183 9.07153 0.212891 9.82308 0.212891 10.7707V20.3774C0.417626 20.3447 0.656484 20.3447 0.86122 20.3447Z" fill="white"/>
<path fill-rule="evenodd" clip-rule="evenodd" d="M29.7631 18.4167L14.5444 21.4883V9.03875H15.8411V13.8421H20.8571V17.5672H18.9804V19.3643H20.8571V17.5672H24.7471V13.8421H29.7631V16.9463V18.4167ZM29.7631 6.68609V4.20272H33.7896V0.379639H29.7631V4.2354H24.7471V9.03875V13.8421H20.8571V9.03875H24.7471H29.7631V6.68609ZM17.8543 9.03875H20.8571V6.16327H17.8543V9.03875Z" fill="white"/>
<path d="M37.1337 10.1824H33.312V13.8421H37.1337V10.1824Z" fill="white"/>
<path d="M33.8235 15.1492H31.3325V17.5345H33.8235V15.1492Z" fill="white"/>
<path d="M34.779 6H32.2881V8.38534H34.779V6Z" fill="white"/>
</svg>
