<svg width="32" height="33" viewBox="0 0 32 33" fill="none" xmlns="http://www.w3.org/2000/svg">
<path fill-rule="evenodd" clip-rule="evenodd" d="M19.453 3.95329C18.9463 3.44663 18.2663 3.16663 17.5597 3.16663H7.99967C6.53301 3.16663 5.33301 4.36663 5.33301 5.83329V27.1666C5.33301 28.6333 6.51967 29.8333 7.98634 29.8333H23.9997C25.4663 29.8333 26.6663 28.6333 26.6663 27.1666V12.2733C26.6663 11.5666 26.3863 10.8866 25.8797 10.3933L19.453 3.95329ZM19.9997 24.5H11.9997C11.2663 24.5 10.6663 23.9 10.6663 23.1666C10.6663 22.4333 11.2663 21.8333 11.9997 21.8333H19.9997C20.733 21.8333 21.333 22.4333 21.333 23.1666C21.333 23.9 20.733 24.5 19.9997 24.5ZM19.9997 19.1666H11.9997C11.2663 19.1666 10.6663 18.5666 10.6663 17.8333C10.6663 17.1 11.2663 16.5 11.9997 16.5H19.9997C20.733 16.5 21.333 17.1 21.333 17.8333C21.333 18.5666 20.733 19.1666 19.9997 19.1666ZM17.333 11.1666V5.16663L24.6663 12.5H18.6663C17.933 12.5 17.333 11.9 17.333 11.1666Z" fill="#3AA291"/>
</svg>
