<svg width="32" height="32" viewBox="0 0 32 32" fill="none" xmlns="http://www.w3.org/2000/svg">
<path fill-rule="evenodd" clip-rule="evenodd" d="M6.93994 1.01181C6.82544 1.13469 6.8125 1.22987 6.8125 1.94931V2.75H5.77844C4.76381 2.75 4.74144 2.75288 4.59094 2.90344L4.4375 3.05681V16.955V30.8532L4.58213 30.9891L4.72681 31.125H15.0724H25.4181L25.5372 30.9936C25.6425 30.8774 25.6585 30.7404 25.676 29.8061L25.6957 28.75H26.5017C27.2503 28.75 27.3167 28.7402 27.4351 28.6132C27.5623 28.4767 27.5625 28.4576 27.5625 17.8764V7.27637L24.3594 4.07606L21.1562 0.875687L14.1118 0.875375L7.06738 0.875L6.93994 1.01181ZM20.5625 4.68294V7.61594L20.7272 7.74544C20.8884 7.87231 20.9527 7.875 23.7897 7.875H26.6875V17.875V27.875H17.1875H7.6875V14.8125V1.75H14.125H20.5625V4.68294ZM23.7812 4.6875L26.0931 7H23.7653H21.4375V4.6875C21.4375 3.41563 21.4447 2.375 21.4534 2.375C21.4622 2.375 22.5098 3.41563 23.7812 4.6875ZM6.8125 16.0625C6.8125 28.4167 6.81331 28.5008 6.9375 28.625C7.06131 28.7488 7.14581 28.75 15.9375 28.75H24.8125V29.5V30.25H15.0625H5.3125V16.9375V3.625H6.0625H6.8125V16.0625ZM9.88894 5.72231C9.74894 5.82037 9.69781 6.13769 9.79781 6.2875C9.93362 6.49087 10.1137 6.5 13.9889 6.5C17.6589 6.5 17.8686 6.494 18.0035 6.38475C18.197 6.22806 18.197 5.89694 18.0035 5.74025C17.8686 5.631 17.6577 5.625 13.9445 5.625C10.5008 5.625 10.0111 5.63675 9.88894 5.72231ZM9.85344 9.92681C9.71613 10.0785 9.72187 10.3927 9.86431 10.5216C9.96925 10.6166 10.568 10.625 17.1984 10.625C24.1134 10.625 24.4225 10.6202 24.5216 10.5107C24.6589 10.359 24.6531 10.0448 24.5107 9.91594C24.4058 9.82094 23.807 9.8125 17.1766 9.8125C10.2616 9.8125 9.9525 9.81731 9.85344 9.92681ZM10 13.9809C9.84419 14.0366 9.75 14.2 9.75 14.4146C9.75 14.8393 9.24956 14.8125 17.2014 14.8125C24.2917 14.8125 24.3764 14.8111 24.5 14.6875C24.6243 14.5632 24.6648 14.2812 24.5772 14.15C24.4376 13.9409 24.3156 13.9374 17.176 13.9424C13.2808 13.9451 10.0516 13.9624 10 13.9809ZM16.2812 17.1647C15.3339 17.3641 14.2909 18.0331 13.7244 18.8048C11.6219 21.6691 13.643 25.692 17.1819 25.6866C17.929 25.6854 18.4451 25.5667 19.1194 25.2407C19.5408 25.0371 19.7528 24.8796 20.1882 24.4465C21.0499 23.5894 21.4195 22.7734 21.4802 21.5938C21.5224 20.7731 21.4024 20.2074 21.0229 19.4389C20.7847 18.9564 20.6357 18.7518 20.2204 18.3364C19.7989 17.9151 19.6079 17.7769 19.1208 17.5419C18.1706 17.0835 17.2492 16.9611 16.2812 17.1647ZM17.985 18.0316C18.5636 18.168 19.0707 18.451 19.5546 18.9074C20.9637 20.2368 20.9959 22.4464 19.6261 23.8125C18.9351 24.5017 18.1635 24.8191 17.1741 24.8214C16.216 24.8236 15.4386 24.4996 14.7442 23.8088C14.0714 23.1395 13.7521 22.3509 13.7507 21.3547C13.7478 19.1558 15.8281 17.5231 17.985 18.0316ZM17.4933 20.8542L16.502 21.8334L16.1306 21.4792C15.9264 21.2844 15.7048 21.125 15.6381 21.125C15.4246 21.125 15.1875 21.3638 15.1875 21.5789C15.1875 21.7405 15.2812 21.8674 15.7382 22.3243C16.5439 23.1301 16.4373 23.162 17.924 21.6682C18.7661 20.8221 19.125 20.4197 19.125 20.3216C19.125 20.2447 19.0559 20.1128 18.9716 20.0284C18.6747 19.7315 18.5717 19.789 17.4933 20.8542Z" fill="#08705F" stroke="#08705F" stroke-width="0.5"/>
</svg>
