<svg width="9" height="14" viewBox="0 0 9 14" fill="none" xmlns="http://www.w3.org/2000/svg">
<path fill-rule="evenodd" clip-rule="evenodd" d="M8.08914 13.4225C7.93287 13.5787 7.72094 13.6665 7.49997 13.6665C7.279 13.6665 7.06708 13.5787 6.91081 13.4225L1.07747 7.58915C0.921248 7.43288 0.833486 7.22095 0.833486 6.99998C0.833486 6.77901 0.921248 6.56709 1.07747 6.41082L6.91081 0.577484C7.06798 0.425686 7.27848 0.341691 7.49698 0.34359C7.71547 0.345488 7.92448 0.433129 8.07899 0.587636C8.2335 0.742143 8.32114 0.951154 8.32304 1.16965C8.32494 1.38815 8.24094 1.59865 8.08914 1.75582L2.84497 6.99998L8.08914 12.2442C8.24537 12.4004 8.33313 12.6123 8.33313 12.8333C8.33313 13.0543 8.24537 13.2662 8.08914 13.4225Z" fill="#B4B9BD"/>
</svg>
