<svg width="32" height="32" viewBox="0 0 32 32" fill="none" xmlns="http://www.w3.org/2000/svg">
<path fill-rule="evenodd" clip-rule="evenodd" d="M14.9769 0.099025C14.7753 0.147838 14.4378 0.278275 14.2269 0.388837C14.0122 0.5014 13.648 0.78315 13.3991 1.02927C13.1198 1.3054 12.8815 1.61377 12.7576 1.85927L12.5605 2.2499L11.452 2.2514C10.8423 2.25221 10.231 2.27884 10.0935 2.31059C9.94409 2.34509 9.7744 2.4454 9.67165 2.56009C9.50528 2.74577 9.49978 2.77477 9.49978 3.46965V4.1874H7.90909C6.98928 4.1874 6.17878 4.21652 5.98721 4.25646C5.80509 4.29446 5.47821 4.40934 5.2609 4.51177C5.02453 4.62327 4.69228 4.86177 4.43384 5.10559C4.13021 5.39202 3.93784 5.64096 3.78665 5.94321C3.66828 6.17977 3.54084 6.52134 3.50346 6.70221C3.45553 6.93402 3.44034 10.3905 3.45196 18.4061L3.46853 29.7811L3.66946 30.2054C3.78709 30.4537 4.01559 30.7818 4.22059 30.9968C4.43121 31.2175 4.7399 31.4527 4.99484 31.5867C5.22809 31.7093 5.59884 31.852 5.81871 31.9038C6.16596 31.9856 7.50065 31.9981 15.9757 31.999C22.3189 31.9996 25.8505 31.9777 26.0694 31.9365C26.2545 31.9015 26.6112 31.7758 26.862 31.657C27.1445 31.523 27.4603 31.305 27.6925 31.0836C27.9513 30.8367 28.1389 30.5811 28.2991 30.257L28.531 29.7876L28.5476 18.4094C28.5592 10.3915 28.544 6.93402 28.4961 6.70221C28.4587 6.52134 28.3313 6.17977 28.2129 5.94321C28.0617 5.64096 27.8693 5.39202 27.5657 5.10559C27.3073 4.86177 26.975 4.62327 26.7387 4.51177C26.5213 4.40934 26.1945 4.29446 26.0123 4.25646C25.8208 4.21652 25.0103 4.1874 24.0905 4.1874H22.4998V3.47346C22.4998 2.80134 22.4905 2.74852 22.3421 2.57209C22.2307 2.43977 22.092 2.36484 21.8702 2.31727C21.6975 2.28021 21.0583 2.24834 20.4498 2.2464L19.3435 2.24284L19.1376 1.81102C19.0055 1.53409 18.801 1.24859 18.5674 1.01502C18.367 0.81465 18.0327 0.5599 17.8242 0.448775C17.6158 0.337712 17.228 0.191275 16.9625 0.123338C16.6425 0.041525 16.2883 0.00165001 15.9117 0.00508751C15.5992 0.00796251 15.1785 0.050275 14.9769 0.099025ZM16.835 1.64921C17.0381 1.74859 17.3092 1.95946 17.4946 2.1624C17.7292 2.41902 17.8412 2.60971 17.934 2.91034C18.0026 3.13228 18.0894 3.37127 18.127 3.44146C18.1645 3.51165 18.2848 3.62371 18.3944 3.69052C18.5728 3.79934 18.7153 3.81196 19.7654 3.81215L20.9373 3.8124V5.34365V6.8749H15.9998H11.0623V5.34365V3.8124H12.1592C13.0272 3.8124 13.295 3.79221 13.4432 3.71559C13.5461 3.6624 13.6852 3.52877 13.7523 3.41871C13.8194 3.30871 13.8747 3.17646 13.8752 3.1249C13.8756 3.07334 13.9423 2.88871 14.0234 2.71459C14.1045 2.54046 14.2628 2.29327 14.3752 2.16527C14.4875 2.03734 14.7048 1.85915 14.858 1.7694C15.0112 1.67959 15.2393 1.56771 15.365 1.52071C15.5077 1.4674 15.762 1.44377 16.0418 1.4579C16.3685 1.4744 16.5837 1.52627 16.835 1.64921ZM9.49978 6.72065C9.49978 7.42415 9.52453 7.75071 9.58978 7.90677C9.63928 8.02527 9.77284 8.1789 9.88665 8.24827C10.0903 8.37246 10.1858 8.37446 15.9998 8.37446C21.6683 8.37446 21.9138 8.36971 22.0985 8.25702C22.2044 8.19246 22.338 8.04065 22.3954 7.91971C22.4791 7.7434 22.4998 7.5059 22.4998 6.72196V5.74415L24.1717 5.76265C25.6772 5.77934 25.8678 5.79321 26.0875 5.90221C26.2217 5.96877 26.4292 6.12096 26.5486 6.24034C26.668 6.35977 26.8254 6.58652 26.8983 6.74434L27.031 7.03115V18.2235V29.416L26.8435 29.7169C26.7131 29.9263 26.5514 30.077 26.3123 30.212L25.9685 30.4061H15.9998H6.03103L5.68728 30.212C5.44815 30.077 5.28646 29.9263 5.15603 29.717L4.96853 29.416L4.95178 18.4111C4.94021 10.7809 4.95559 7.30734 5.0019 7.0839C5.03865 6.90665 5.15353 6.63352 5.25728 6.47696C5.36096 6.3204 5.54803 6.12796 5.67296 6.04921C5.79796 5.97052 5.98584 5.87315 6.09059 5.83277C6.21734 5.78396 6.81928 5.75784 7.8904 5.75465L9.49978 5.7499V6.72065ZM12.2102 10.7491C12.1368 10.7788 11.715 11.1481 11.2727 11.5698C10.8304 11.9916 10.2648 12.5343 10.0157 12.7758L9.56296 13.2148L8.95046 12.5761L8.33796 11.9374H8.00634C7.71259 11.9374 7.65053 11.9616 7.46228 12.1499C7.2889 12.3233 7.24978 12.4101 7.24978 12.6218C7.24978 12.7644 7.29003 12.957 7.33928 13.0499C7.38846 13.1427 7.8314 13.6166 8.32365 14.1031C8.81584 14.5895 9.28428 15.007 9.36459 15.0309C9.4449 15.0548 9.60296 15.057 9.71584 15.0358C9.8739 15.0061 10.2851 14.6534 11.5073 13.499C12.3797 12.6749 13.1426 11.9231 13.2026 11.8284C13.2625 11.7336 13.3117 11.5718 13.3117 11.4686C13.3118 11.3655 13.2569 11.1911 13.1898 11.0811C13.1227 10.971 12.9836 10.8374 12.8807 10.7842C12.7777 10.731 12.6147 10.6892 12.5185 10.6913C12.4223 10.6935 12.2835 10.7195 12.2102 10.7491ZM14.8681 12.656C14.7785 12.7046 14.6552 12.8209 14.594 12.9143C14.5328 13.0076 14.4827 13.1907 14.4827 13.3211C14.4827 13.4516 14.5303 13.6309 14.5884 13.7196C14.6465 13.8083 14.784 13.9356 14.8938 14.0026C15.0868 14.1203 15.2433 14.1245 19.5799 14.1246C23.2516 14.1248 24.1038 14.1093 24.2725 14.0387C24.386 13.9913 24.5398 13.875 24.6143 13.7803C24.7015 13.6695 24.7498 13.5198 24.7498 13.3605C24.7498 13.2243 24.7018 13.0317 24.6432 12.9324C24.5845 12.8331 24.4467 12.7093 24.3368 12.6571C24.1639 12.5751 23.5269 12.5627 19.5841 12.5649C15.7775 12.567 15.0043 12.5819 14.8681 12.656ZM12.3545 16.7998C12.227 16.8155 11.8918 17.0939 11.1485 17.8014C10.5824 18.3403 9.99284 18.8921 9.83847 19.0276L9.55778 19.2742L8.9819 18.7064C8.66515 18.3941 8.34459 18.1075 8.26953 18.0693C8.1944 18.0311 8.05946 17.9999 7.96953 17.9999C7.87965 17.9999 7.72359 18.0426 7.62271 18.0947C7.5219 18.1468 7.39359 18.2781 7.33765 18.3863C7.27009 18.5169 7.24609 18.674 7.26628 18.8532C7.29353 19.0948 7.3699 19.2016 7.98903 19.8635C8.36984 20.2705 8.80865 20.7208 8.96415 20.8642C9.21746 21.0977 9.27959 21.1249 9.55959 21.1249H9.87221L10.7641 20.2899C11.2547 19.8307 12.0217 19.1033 12.4685 18.6735L13.281 17.8921V17.5722C13.281 17.2995 13.2532 17.2244 13.092 17.0633C12.988 16.9593 12.8193 16.8526 12.717 16.8261C12.6147 16.7996 12.4516 16.7877 12.3545 16.7998ZM15.0738 18.6867C14.9598 18.7137 14.7981 18.8001 14.7143 18.8788C14.6306 18.9575 14.5356 19.1179 14.5032 19.2353C14.4628 19.3815 14.4677 19.5201 14.5189 19.6751C14.5638 19.8116 14.678 19.9584 14.8059 20.0445L15.0183 20.1874H19.6059C23.5843 20.1874 24.2178 20.1748 24.3768 20.0926C24.4777 20.0405 24.6028 19.9153 24.655 19.8145C24.7071 19.7136 24.7498 19.5177 24.7498 19.379C24.7498 19.1921 24.7053 19.0772 24.5779 18.9351C24.4752 18.8204 24.3055 18.7201 24.156 18.6856C24.015 18.653 22.0265 18.63 19.5935 18.6328C17.2217 18.6355 15.1878 18.6598 15.0738 18.6867ZM12.2092 22.937C12.1353 22.9668 11.6994 23.3503 11.2405 23.7891C10.7815 24.228 10.2143 24.7713 9.98003 24.9966L9.55403 25.4061L9.01128 24.8325C8.71278 24.5171 8.40709 24.2288 8.33203 24.1919C8.2569 24.1551 8.07834 24.1249 7.93515 24.1249C7.7224 24.1249 7.6359 24.1638 7.46228 24.3374C7.2889 24.5108 7.24978 24.5977 7.24978 24.8093C7.24978 24.9519 7.29003 25.1445 7.33928 25.2374C7.38846 25.3302 7.8314 25.8041 8.32365 26.2906C8.81584 26.777 9.28428 27.1945 9.36459 27.2184C9.4449 27.2423 9.60422 27.2442 9.71859 27.2228C9.88034 27.1924 10.2787 26.851 11.51 25.687C12.381 24.8638 13.1426 24.1123 13.2026 24.017C13.2625 23.9216 13.3117 23.7593 13.3117 23.6561C13.3118 23.553 13.2569 23.3786 13.1898 23.2686C13.1227 23.1585 12.9836 23.0249 12.8807 22.9717C12.7777 22.9185 12.6147 22.8767 12.5185 22.8788C12.4223 22.881 12.2831 22.9072 12.2092 22.937ZM14.903 24.8378C14.7983 24.8834 14.6674 24.9897 14.6122 25.074C14.5569 25.1583 14.5059 25.2957 14.4988 25.3792C14.4917 25.4628 14.489 25.5948 14.4928 25.6727C14.4967 25.7505 14.596 25.9193 14.7137 26.0477L14.9277 26.2811L19.4481 26.2999C22.5228 26.3126 24.042 26.2973 24.1983 26.2519C24.3247 26.2152 24.5005 26.0991 24.5889 25.994C24.7033 25.858 24.7498 25.7303 24.7498 25.5516C24.7498 25.4135 24.7018 25.2192 24.6432 25.1199C24.5845 25.0207 24.4467 24.8968 24.3368 24.8446C24.164 24.7626 23.5302 24.7502 19.6153 24.7523C15.9987 24.7543 15.0554 24.7714 14.903 24.8378Z" fill="#08705F"/>
</svg>
