<svg width="19" height="21" viewBox="0 0 19 21" fill="none" xmlns="http://www.w3.org/2000/svg">
<path fill-rule="evenodd" clip-rule="evenodd" d="M18.4936 4.23864C18.3848 1.89119 16.4478 0.0219727 14.0734 0.0219727H9.18938L8.98056 0.0267975C6.62755 0.135758 4.75438 2.07656 4.75438 4.45597V5.38897L4.76123 5.49074C4.81089 5.85682 5.12469 6.13897 5.50438 6.13897C5.9186 6.13897 6.25438 5.80319 6.25438 5.38897V4.45597L6.25936 4.28353C6.34859 2.74295 7.62564 1.52197 9.18938 1.52197H14.0734L14.2453 1.52694C15.781 1.61588 16.9984 2.88889 16.9984 4.44697V15.587L16.9934 15.7594C16.9041 17.3 15.6263 18.522 14.0634 18.522H9.17838L9.00661 18.517C7.47199 18.428 6.25438 17.1543 6.25438 15.597V14.655L6.24754 14.5532C6.19788 14.1871 5.88408 13.905 5.50438 13.905C5.09017 13.905 4.75438 14.2408 4.75438 14.655V15.597L4.75949 15.8113C4.87131 18.1552 6.80715 20.022 9.17838 20.022H14.0634L14.2721 20.0171C16.6245 19.9081 18.4984 17.9662 18.4984 15.587V4.44697L18.4936 4.23864ZM9.35337 6.57653C9.61909 6.30972 10.0357 6.28466 10.3298 6.50191L10.414 6.57435L13.342 9.49035C13.6096 9.75685 13.6339 10.1749 13.415 10.469L13.4123 10.4721C13.3914 10.4999 13.3685 10.5263 13.344 10.5509L13.342 10.5532L10.414 13.4692C10.1205 13.7615 9.64566 13.7605 9.35337 13.467C9.08765 13.2002 9.0643 12.7835 9.28275 12.4903L9.35555 12.4064L10.9963 10.7718H0.771484C0.357271 10.7718 0.0214844 10.436 0.0214844 10.0218C0.0214844 9.64208 0.303638 9.32828 0.669714 9.27862L0.771484 9.27177H10.9961L9.35555 7.63719C9.08873 7.37147 9.06367 6.95486 9.28092 6.6608L9.35337 6.57653Z" fill="#EB5757"/>
</svg>
