<svg width="24" height="24" viewBox="0 0 24 24" fill="none" xmlns="http://www.w3.org/2000/svg">
<path fill-rule="evenodd" clip-rule="evenodd" d="M15.707 19.707C15.5194 19.8945 15.2651 19.9998 15 19.9998C14.7348 19.9998 14.4805 19.8945 14.293 19.707L7.29297 12.707C7.1055 12.5195 7.00018 12.2652 7.00018 12C7.00018 11.7348 7.1055 11.4805 7.29297 11.293L14.293 4.293C14.4816 4.11084 14.7342 4.01005 14.9964 4.01233C15.2586 4.0146 15.5094 4.11977 15.6948 4.30518C15.8802 4.49059 15.9854 4.7414 15.9876 5.0036C15.9899 5.2658 15.8891 5.5184 15.707 5.707L9.41397 12L15.707 18.293C15.8944 18.4805 15.9998 18.7348 15.9998 19C15.9998 19.2652 15.8944 19.5195 15.707 19.707Z" fill="#08705F"/>
</svg>
