<svg width="44" height="45" viewBox="0 0 44 45" fill="none" xmlns="http://www.w3.org/2000/svg">
<rect y="0.5" width="44" height="44" rx="22" fill="#18A0FB" fill-opacity="0.1"/>
<path fill-rule="evenodd" clip-rule="evenodd" d="M21.3581 9.45944C20.2265 9.76416 19.4354 10.7561 19.4191 11.8907C19.4147 12.2049 19.4438 12.3777 19.5437 12.629C19.6155 12.8095 19.6745 12.9709 19.6749 12.9877C19.6755 13.0102 16.2679 15.995 14.3854 17.6211C14.2992 17.6956 14.2677 17.682 14.041 17.473C13.5154 16.9885 12.6886 16.7447 11.9722 16.8631C10.6458 17.0821 9.63949 18.3288 9.76806 19.5937C9.7977 19.8856 10.0756 20.5489 10.3004 20.8646C10.3632 20.9529 10.4066 21.046 10.3967 21.0715C10.3868 21.0969 9.87426 21.5569 9.25766 22.0935C8.64106 22.6302 8.10659 23.1074 8.06995 23.1538C7.97294 23.277 7.98535 23.5105 8.09555 23.6361C8.17036 23.7214 13.2883 28.1823 21.6111 35.4164C21.7653 35.5505 21.9055 35.6251 22.003 35.6251C22.1256 35.6251 22.8848 34.9872 25.9465 32.3117C28.0319 30.4893 29.7689 28.9588 29.8065 28.9106C29.9276 28.7553 29.8902 28.481 29.7307 28.3557C29.4692 28.1499 29.3927 28.1875 28.5415 28.9401L27.9688 29.4464L25.6406 26.7858L23.3123 24.1252V22.7703V21.4154L26.18 19.8223C28.7772 18.3796 29.0584 18.236 29.1611 18.3001C29.2318 18.3443 29.2611 18.4019 29.2389 18.4531C29.0093 18.9818 29.0081 19.7123 29.236 20.2189C29.5358 20.8852 30.3127 21.8613 31.0943 22.5536C31.649 23.045 31.6954 23.0359 32.463 22.286L33.0741 21.689L33.2381 21.8286C33.3284 21.9053 33.7533 22.2735 34.1825 22.6467L34.9628 23.3252L32.807 25.2115C31.4259 26.42 30.6395 27.1451 30.6183 27.2294C30.5436 27.5271 30.8818 27.8332 31.1488 27.7096C31.2727 27.6522 35.8086 23.7082 35.9315 23.551C36.0276 23.428 36.0143 23.2042 35.9029 23.0697C35.8509 23.007 35.3409 22.5543 34.7694 22.0638C34.1979 21.5732 33.6964 21.1405 33.6549 21.1024C33.5912 21.0437 33.5978 21.0073 33.6966 20.8685C33.9239 20.5493 34.2018 19.887 34.2316 19.5937C34.302 18.9013 34.0121 18.1507 33.462 17.6005C33.0475 17.1861 32.6011 16.9561 32.0305 16.8629C31.3126 16.7456 30.4847 16.9882 29.9638 17.4683L29.7194 17.6936L28.6624 16.7722C28.081 16.2654 26.8634 15.2067 25.9566 14.4195L24.3079 12.9883L24.4486 12.6445C24.6214 12.2224 24.6291 11.7022 24.4699 11.1936C24.0638 9.89584 22.6542 9.11037 21.3581 9.45944ZM22.7244 10.3588C23.6241 10.7817 24.0066 11.7768 23.5863 12.6007C23.4135 12.9393 22.8583 13.6385 22.4141 14.0769L21.9998 14.4857L21.5856 14.0769C21.0758 13.5739 20.552 12.8927 20.3671 12.4923C19.9603 11.6116 20.5566 10.5144 21.5897 10.2429C21.861 10.1716 22.4553 10.2323 22.7244 10.3588ZM21.4803 10.8179C20.9812 11.0539 20.7252 11.4579 20.7286 12.0045C20.7308 12.3774 20.8689 12.67 21.1717 12.9436C21.973 13.6675 23.2792 13.0624 23.2693 11.9717C23.2646 11.4436 23.0081 11.049 22.5194 10.8179C22.1664 10.6511 21.8333 10.6511 21.4803 10.8179ZM22.3031 11.6422C22.4955 11.8346 22.4907 12.1689 22.2932 12.3242C21.9806 12.5702 21.5623 12.381 21.5623 11.9937C21.5623 11.564 22.0118 11.3508 22.3031 11.6422ZM20.6873 14.3448C20.8528 14.5327 21.1801 14.8572 21.4146 15.0659C21.974 15.5637 22.0263 15.5638 22.5859 15.069C22.9374 14.7582 23.6778 13.9545 23.8114 13.7389C23.8391 13.6942 28.2812 17.4831 28.3619 17.6202C28.3749 17.6423 27.1604 18.3397 25.663 19.17L22.9406 20.6798L20.3683 18.2677C18.9535 16.941 17.8005 15.828 17.8061 15.7943C17.8117 15.7606 18.3423 15.2741 18.9854 14.7132L20.1546 13.6933L20.2706 13.8483C20.3343 13.9336 20.5219 14.157 20.6873 14.3448ZM19.7877 18.8414C21.23 20.1979 22.4289 21.3409 22.4521 21.3814C22.4752 21.422 22.4875 21.9917 22.4795 22.6476L22.4647 23.84L20.3907 23.8543L18.3166 23.8686L15.9725 25.6261L13.6283 27.3836L13.4801 27.2464C13.3986 27.1709 12.3664 26.2699 11.1863 25.2442L9.04066 23.3792L9.90111 22.6299C10.3744 22.2178 10.8047 21.8439 10.8574 21.799C10.9452 21.7242 11.0028 21.7658 11.5508 22.3001C12.3033 23.034 12.3528 23.0432 12.9054 22.5536C13.3868 22.1272 14.0629 21.3675 14.3749 20.9025C14.9135 20.0999 15.0465 19.5202 14.8641 18.7699L14.7684 18.3759L15.0071 18.1737C15.1385 18.0626 15.652 17.6141 16.1483 17.177C16.6446 16.74 17.0765 16.3808 17.108 16.3788C17.1397 16.3768 18.3455 17.4849 19.7877 18.8414ZM13.0047 17.7782C13.5914 17.9778 14.1249 18.7365 14.1248 19.3713C14.1247 19.876 13.5714 20.7472 12.7178 21.5865L12.3399 21.9581L11.903 21.5031C11.4152 20.9949 10.9213 20.3566 10.728 19.9845C10.5549 19.6513 10.5536 19.0818 10.7252 18.725C11.1567 17.8277 12.054 17.455 13.0047 17.7782ZM32.4292 17.8548C32.8024 18.0367 33.0813 18.3229 33.2718 18.7192C33.4461 19.082 33.4461 19.6488 33.2717 19.9845C33.0784 20.3566 32.5845 20.9949 32.0967 21.5031L31.6598 21.9581L31.2819 21.5865C30.8106 21.1231 30.2655 20.4332 30.0624 20.0429C29.7521 19.4471 29.8549 18.7852 30.3417 18.2438C30.883 17.6418 31.6857 17.4922 32.4292 17.8548ZM12.0741 18.1742C11.4685 18.3292 11.0932 18.8126 11.0936 19.4376C11.094 20.1849 11.6099 20.6971 12.3594 20.6942C12.7655 20.6927 13.0634 20.5567 13.3215 20.2552C13.9955 19.4679 13.5215 18.2842 12.483 18.1612C12.3483 18.1453 12.1643 18.1511 12.0741 18.1742ZM31.3788 18.1742C30.4155 18.4206 30.0464 19.5171 30.6782 20.2552C30.9363 20.5567 31.2342 20.6927 31.6403 20.6942C32.3898 20.6971 32.9057 20.1849 32.9061 19.4376C32.9063 19.0535 32.8152 18.817 32.562 18.5439C32.281 18.241 31.7572 18.0774 31.3788 18.1742ZM12.6893 19.1419C12.9516 19.4355 12.7482 19.8751 12.35 19.8751C11.8661 19.8751 11.7238 19.2378 12.1577 19.0141C12.3349 18.9227 12.5368 18.9712 12.6893 19.1419ZM31.994 19.1419C32.0617 19.2177 32.117 19.3287 32.117 19.3887C32.117 19.541 31.9745 19.8005 31.8685 19.8412C31.415 20.0152 31.007 19.5554 31.2752 19.1724C31.4564 18.9138 31.778 18.9002 31.994 19.1419ZM25.0148 27.3208C26.7031 29.2486 27.3078 29.9739 27.2717 30.0283C27.2128 30.1174 22.0434 34.6407 22.0006 34.6407C21.9736 34.6407 14.6174 28.2555 14.3792 28.0254C14.2815 27.931 14.3513 27.8727 16.43 26.3121L18.5819 24.6965L20.6453 24.692L22.7087 24.6876L25.0148 27.3208ZM21.2336 27.0322C20.7933 27.1731 20.4693 27.3814 20.1189 27.7488C19.7449 28.1408 19.5066 28.6247 19.434 29.1392C19.3428 29.7859 19.4979 30.2792 20.0423 31.0732C20.3881 31.5777 21.6095 32.8518 21.8382 32.9464C22.0951 33.0528 22.2593 32.9452 22.9955 32.1876C24.5411 30.597 24.894 29.6216 24.3545 28.4318C24.1723 28.0298 23.6902 27.4879 23.324 27.2732C22.7429 26.9326 21.862 26.831 21.2336 27.0322ZM22.7572 27.9086C23.5662 28.3259 23.9724 29.2717 23.6523 29.9923C23.4792 30.3819 23.024 30.987 22.4907 31.5364L21.9989 32.0431L21.4802 31.5052C20.8699 30.8723 20.3379 30.1075 20.2628 29.7548C20.0931 28.9595 20.6536 28.0786 21.5077 27.7981C21.771 27.7116 22.5003 27.7761 22.7572 27.9086ZM21.5077 28.3294C21.0487 28.5279 20.7311 29.0055 20.7311 29.4973C20.7311 30.2525 21.2536 30.7812 21.9998 30.7812C22.7461 30.7812 23.2686 30.2525 23.2686 29.4973C23.2686 28.9992 22.947 28.5218 22.4801 28.3271C22.224 28.2203 21.7574 28.2214 21.5077 28.3294ZM22.2932 29.176C22.4468 29.2967 22.4895 29.5739 22.3847 29.7697C22.2956 29.9362 22.0282 30.0173 21.8337 29.9367C21.6333 29.8537 21.5623 29.7344 21.5623 29.4803C21.5623 29.2546 21.7634 29.0626 21.9998 29.0626C22.082 29.0626 22.214 29.1136 22.2932 29.176Z" fill="#18A0FB"/>
</svg>
