<svg width="32" height="32" viewBox="0 0 32 32" fill="none" xmlns="http://www.w3.org/2000/svg">
<path fill-rule="evenodd" clip-rule="evenodd" d="M27.0414 2.02794C26.9074 2.05514 26.6963 2.12851 26.5724 2.191C26.4485 2.25348 26.2479 2.40474 26.1267 2.52707C25.9679 2.68755 25.6844 3.20387 25.1098 4.379C24.6716 5.27515 24.1996 6.24496 24.0609 6.53402L23.8089 7.05961L23.4365 6.94535C23.2317 6.88247 22.8267 6.78252 22.5365 6.72325C22.2463 6.66391 21.7853 6.58837 21.5121 6.55532C21.2005 6.51764 19.1573 6.49541 16.0307 6.4957C13.006 6.49599 10.8396 6.5193 10.521 6.55498C10.2321 6.58728 9.79677 6.65274 9.55366 6.70039C9.31048 6.74805 8.84876 6.86557 8.5275 6.96162C8.20624 7.05761 7.68701 7.24638 7.37366 7.38114C7.06032 7.51585 6.57128 7.76212 6.28695 7.92839C6.00262 8.09465 5.53258 8.40473 5.24239 8.61744C4.9522 8.83015 4.44375 9.27087 4.11252 9.59681C3.7813 9.9227 3.32597 10.4315 3.10079 10.7275C2.87556 11.0235 2.55764 11.4938 2.39431 11.7726C2.23099 12.0514 1.99274 12.5152 1.86488 12.8031C1.73702 13.0912 1.54397 13.6131 1.43581 13.9631C1.32765 14.313 1.1941 14.8442 1.139 15.1435C1.07996 15.4643 1.02626 16.136 1.00815 16.7803C0.989094 17.4578 1.00398 18.0998 1.04731 18.4698C1.08571 18.7981 1.16831 19.2986 1.23086 19.5822C1.29341 19.8657 1.4269 20.3425 1.5275 20.6417C1.6281 20.941 1.84993 21.4748 2.02035 21.828C2.19083 22.1812 2.48131 22.6967 2.66586 22.9735C2.85047 23.2503 3.12172 23.6295 3.26875 23.8163C3.41572 24.0031 3.77643 24.4025 4.07037 24.704L4.60473 25.2522L4.50232 27.0277C4.44604 28.0042 4.3982 28.9895 4.39615 29.2174C4.39263 29.5969 4.40676 29.6475 4.56346 29.8188C4.70961 29.9786 4.77152 30.0049 4.98849 29.9993C5.19619 29.994 5.62802 29.7985 7.36077 28.9255L9.47909 27.8581H11.7977C13.26 27.8581 14.1755 27.8361 14.2765 27.7986C14.3647 27.7658 14.4711 27.695 14.513 27.6411C14.5549 27.5872 14.59 27.4751 14.591 27.392C14.5921 27.3088 14.5425 27.1799 14.4808 27.1056L14.3688 26.9704H11.7988H9.22882L7.29423 27.9558C6.16712 28.5299 5.35008 28.9143 5.33671 28.8767C5.32417 28.8412 5.36122 27.9276 5.4192 26.8467L5.52448 24.8813L4.79719 24.1495C4.3972 23.7471 3.90306 23.1866 3.69917 22.9042C3.49521 22.6217 3.21311 22.1839 3.07224 21.9314C2.93137 21.6788 2.7083 21.2065 2.57657 20.8818C2.44491 20.5572 2.26182 19.9902 2.16984 19.6218C2.07786 19.2535 1.96917 18.6197 1.92831 18.2134C1.88206 17.7534 1.86816 17.1807 1.89144 16.6956C1.91201 16.2672 1.96817 15.6847 2.01625 15.4012C2.06438 15.1177 2.16603 14.6667 2.24218 14.3989C2.31839 14.1312 2.48043 13.6673 2.60225 13.368C2.72413 13.0688 2.91753 12.6564 3.03202 12.4516C3.14658 12.2469 3.37128 11.8861 3.53138 11.6498C3.69149 11.4136 3.98812 11.027 4.19055 10.7907C4.39292 10.5545 4.69923 10.2303 4.87118 10.0702C5.04306 9.91015 5.32886 9.66216 5.50619 9.51903C5.68353 9.37591 6.02648 9.12986 6.26831 8.97225C6.51013 8.81469 6.9718 8.55599 7.29423 8.3974C7.61666 8.23887 8.14668 8.01888 8.4721 7.90863C8.79747 7.79838 9.31189 7.65588 9.61527 7.59202C9.91859 7.52816 10.4966 7.44643 10.8996 7.41041C11.4086 7.36488 13.1277 7.35239 16.5275 7.36952C20.8123 7.39111 21.4848 7.40623 21.9209 7.49071C22.195 7.54374 22.6239 7.64076 22.8742 7.70628C23.1244 7.7718 23.3424 7.84637 23.3586 7.87197C23.3748 7.89763 23.058 8.59591 22.6545 9.42367C22.186 10.385 21.9209 10.9954 21.9209 11.1133C21.9209 11.2445 21.9656 11.3322 22.0754 11.4165C22.1603 11.4818 22.2893 11.5353 22.362 11.5353C22.4347 11.5353 22.548 11.4901 22.6136 11.435C22.6793 11.3799 23.3571 10.0462 24.1197 8.47117C24.8823 6.89615 25.524 5.59073 25.5456 5.57017C25.5672 5.54961 26.2511 5.84336 27.0652 6.22291C27.8793 6.60246 28.5456 6.94146 28.5457 6.97617C28.5459 7.01093 27.3653 9.46835 25.9223 12.4372C24.4792 15.406 23.2774 17.8351 23.2516 17.8351C23.2257 17.8353 22.6981 17.5999 22.0791 17.3122C21.4601 17.0244 20.7905 16.7157 20.5912 16.6261L20.2289 16.4632L21.0747 14.7295C21.5399 13.7759 21.9206 12.9398 21.9207 12.8716C21.9208 12.8032 21.9038 12.7038 21.8828 12.6504C21.8619 12.5971 21.7648 12.5206 21.6671 12.4805C21.5386 12.4277 21.4423 12.4236 21.319 12.4656C21.1759 12.5143 21.0945 12.6351 20.8115 13.2178C20.6262 13.5997 20.1824 14.5178 19.8254 15.258L19.1762 16.6039L19.0526 18.5799C18.9847 19.6666 18.9129 20.7297 18.8932 20.9424L18.8574 21.329H13.2325H7.60763L7.43627 21.4964C7.34201 21.5885 7.26492 21.7193 7.26492 21.7872C7.26492 21.855 7.34201 21.9858 7.43627 22.0779L7.60763 22.2454H13.2802C18.9076 22.2454 18.9547 22.2463 19.2049 22.3646C19.4203 22.4665 19.4866 22.4743 19.6597 22.4185C19.7953 22.3748 20.5269 21.7495 21.8736 20.5264L23.8848 18.6997L25.8178 14.7128L27.7507 10.726L27.9149 10.9158C28.0052 11.0203 28.2393 11.3366 28.4351 11.6188C28.6309 11.901 28.9187 12.3802 29.0746 12.6838C29.2306 12.9875 29.45 13.4935 29.5622 13.8083C29.6744 14.1232 29.8202 14.6248 29.8864 14.9229C29.9525 15.221 30.0375 15.7728 30.0754 16.149C30.115 16.5424 30.1295 17.1615 30.1096 17.6062C30.0906 18.0315 30.0225 18.6764 29.9584 19.0393C29.8943 19.4022 29.7477 19.9796 29.6329 20.3222C29.518 20.6649 29.3097 21.1798 29.1701 21.4664C29.0306 21.7531 28.8031 22.168 28.6647 22.3885C28.5263 22.609 28.2487 22.9956 28.0478 23.2476C27.8469 23.4996 27.448 23.9318 27.1614 24.2079C26.8747 24.484 26.4335 24.8608 26.181 25.0452C25.9284 25.2296 25.4667 25.5215 25.155 25.6939C24.8433 25.8663 24.3641 26.0998 24.09 26.2129C23.8159 26.3259 23.3535 26.4848 23.0624 26.566C22.7713 26.6471 22.3096 26.7565 22.0365 26.809C21.6327 26.8866 21.01 26.9106 18.706 26.9374L15.8722 26.9704L15.7601 27.1056C15.6986 27.1799 15.6482 27.3104 15.6482 27.3955C15.6482 27.4806 15.7008 27.6054 15.7652 27.6728C15.8295 27.7404 15.976 27.8128 16.0908 27.8338C16.2056 27.8549 17.4389 27.8591 18.8317 27.8434C21.0811 27.818 21.4424 27.8011 22.0661 27.692C22.4524 27.6245 23.0063 27.501 23.2972 27.4175C23.5882 27.3341 24.1428 27.1344 24.5297 26.9738C24.9166 26.8132 25.4514 26.5546 25.7181 26.3992C25.9848 26.2438 26.4333 25.9488 26.7147 25.7437C26.9961 25.5386 27.5057 25.0993 27.8471 24.7674C28.1885 24.4355 28.6269 23.9573 28.8214 23.7046C29.016 23.4519 29.2838 23.0719 29.4165 22.86C29.5492 22.6482 29.7671 22.2625 29.9007 22.0029C30.0343 21.7434 30.2302 21.3116 30.3362 21.0434C30.4422 20.7752 30.5861 20.3367 30.6561 20.069C30.7262 19.8012 30.8229 19.376 30.871 19.124C30.9191 18.872 30.973 18.1625 30.9908 17.5475C31.0112 16.8399 30.9973 16.2088 30.9528 15.8293C30.9142 15.4993 30.833 15.0045 30.7722 14.7297C30.7115 14.4549 30.5672 13.954 30.4516 13.6165C30.336 13.279 30.1133 12.7436 29.9566 12.4266C29.8 12.1096 29.4874 11.5771 29.2619 11.2431C29.0365 10.9092 28.7039 10.4654 28.5229 10.2569C28.3418 10.0484 28.1937 9.86468 28.1937 9.8487C28.1937 9.83266 28.7231 8.7301 29.3702 7.39855C30.0172 6.06695 30.574 4.84675 30.6073 4.6869C30.655 4.45809 30.6483 4.32127 30.5755 4.04378C30.5247 3.84997 30.4202 3.59402 30.3433 3.475C30.2665 3.35605 30.0983 3.16578 29.9697 3.05233C29.8412 2.93881 29.4219 2.69775 29.0381 2.51665C28.6543 2.33555 28.2445 2.15371 28.1275 2.11265C28.0105 2.07152 27.7731 2.02456 27.5999 2.00818C27.4267 1.99186 27.1754 2.00073 27.0414 2.02794ZM28.5774 3.28531C29.3568 3.65518 29.428 3.70238 29.5745 3.94665C29.7043 4.16297 29.7271 4.25764 29.7027 4.47906C29.6846 4.64452 29.5405 5.01565 29.3291 5.44142L28.9851 6.13442L27.4771 5.44142C26.6476 5.06026 25.97 4.72264 25.9711 4.69114C25.9723 4.65964 26.1497 4.28691 26.3653 3.86286C26.698 3.20885 26.7884 3.07638 26.9617 2.98944C27.0756 2.93234 27.2925 2.88704 27.452 2.88704C27.6864 2.88704 27.8895 2.95891 28.5774 3.28531ZM7.42748 12.2655C7.37794 12.3207 7.32026 12.4208 7.29933 12.488C7.2784 12.5553 7.29141 12.6748 7.32817 12.7538C7.36499 12.8326 7.45937 12.9258 7.53793 12.9608C7.63665 13.0047 8.60143 13.0244 10.66 13.0244C13.5851 13.0244 13.6419 13.0222 13.7936 12.9057C13.9068 12.8187 13.9481 12.7345 13.9481 12.5906C13.9481 12.4707 13.9024 12.3498 13.8308 12.2798C13.7165 12.1681 13.6354 12.1653 10.6156 12.1653C7.73848 12.1653 7.51114 12.1724 7.42748 12.2655ZM7.43029 15.374C7.28731 15.5137 7.26052 15.5776 7.29194 15.7033C7.3134 15.7892 7.38275 15.9109 7.44612 15.9739C7.5595 16.0867 7.63876 16.0885 12.5185 16.0885H17.4756L17.6172 15.9278C17.695 15.8394 17.7586 15.7311 17.7586 15.6871C17.7586 15.6431 17.7293 15.5443 17.6935 15.4675C17.6577 15.3907 17.5642 15.2993 17.4856 15.2643C17.3845 15.2194 15.9176 15.2008 12.4752 15.2008H7.60763L7.43029 15.374ZM21.1176 17.8425C21.6723 18.0984 22.2536 18.3706 22.4095 18.4473L22.6928 18.5866L22.1805 19.0558C21.8987 19.3138 21.6221 19.5568 21.5658 19.5957C21.4795 19.6556 21.3439 19.6117 20.6942 19.3134L19.9247 18.9603L19.9576 18.5267C19.9757 18.2882 20.0049 17.932 20.0224 17.7351C20.0399 17.5382 20.0666 17.3771 20.0817 17.3771C20.0968 17.3771 20.5629 17.5865 21.1176 17.8425ZM7.46054 18.3781C7.39254 18.4246 7.3202 18.5279 7.29968 18.6076C7.27781 18.6928 7.29839 18.8206 7.34945 18.917C7.39729 19.0075 7.47913 19.0974 7.53136 19.117C7.58354 19.1366 9.82473 19.1526 12.5118 19.1526C15.1988 19.1526 17.44 19.1366 17.4922 19.117C17.5444 19.0974 17.6262 19.0075 17.6741 18.917C17.7251 18.8206 17.7457 18.6928 17.7239 18.6076C17.7033 18.5279 17.631 18.4246 17.563 18.3781C17.4564 18.3051 16.7624 18.2935 12.5118 18.2935C8.26111 18.2935 7.56712 18.3051 7.46054 18.3781ZM20.2986 20.7562L19.8398 21.1858L19.8196 21.014C19.8085 20.9195 19.8174 20.6308 19.8393 20.3726L19.8791 19.9029L20.3183 20.1148L20.7574 20.3267L20.2986 20.7562Z" fill="#08705F" stroke="#08705F" stroke-width="0.5"/>
</svg>
