<svg width="19" height="19" viewBox="0 0 19 19" fill="none" xmlns="http://www.w3.org/2000/svg">
<path d="M8 3.00004H3C2.46957 3.00004 1.96086 3.21075 1.58579 3.58583C1.21071 3.9609 1 4.46961 1 5.00004V16C1 16.5305 1.21071 17.0392 1.58579 17.4143C1.96086 17.7893 2.46957 18 3 18H14C14.5304 18 15.0391 17.7893 15.4142 17.4143C15.7893 17.0392 16 16.5305 16 16V11M14.586 1.58604C14.7705 1.39502 14.9912 1.24266 15.2352 1.13784C15.4792 1.03302 15.7416 0.977847 16.0072 0.975539C16.2728 0.973232 16.5361 1.02384 16.7819 1.1244C17.0277 1.22496 17.251 1.37346 17.4388 1.56125C17.6266 1.74904 17.7751 1.97234 17.8756 2.21813C17.9762 2.46392 18.0268 2.72728 18.0245 2.99284C18.0222 3.2584 17.967 3.52084 17.8622 3.76485C17.7574 4.00886 17.605 4.22955 17.414 4.41404L8.828 13H6V10.172L14.586 1.58604Z" stroke="#313131" stroke-width="1.5" stroke-linecap="round" stroke-linejoin="round"/>
</svg>
