<?xml version="1.0" standalone="no"?>
<!DOCTYPE svg PUBLIC "-//W3C//DTD SVG 20010904//EN"
 "http://www.w3.org/TR/2001/REC-SVG-20010904/DTD/svg10.dtd">
<svg version="1.0" xmlns="http://www.w3.org/2000/svg"
 width="512.000000pt" height="512.000000pt" viewBox="0 0 512.000000 512.000000"
 preserveAspectRatio="xMidYMid meet">
<metadata>
Created by potrace 1.14, written by Peter Selinger 2001-2017
</metadata>
<g transform="translate(0.000000,512.000000) scale(0.100000,-0.100000)"
fill="#000000" stroke="none">
<path d="M423 5100 c-206 -61 -366 -230 -407 -432 -10 -50 -12 -476 -11 -2128
2 -2236 -1 -2090 53 -2210 61 -134 184 -243 335 -298 l72 -25 2069 -2 c1212
-1 2090 2 2120 7 224 41 419 235 455 456 8 48 11 652 9 2137 -3 1958 -4 2072
-21 2115 -44 110 -74 158 -147 231 -53 53 -95 85 -141 107 -136 65 27 61
-2249 61 -1977 -1 -2078 -1 -2137 -19z"/>
</g>
</svg>
